M48
;DRILL file {KiCad (2017-11-24 revision a01d81e4b)-master} date Sat Jan 27 17:29:47 2018
;FORMAT={-:-/ absolute / inch / decimal}
FMAT,2
INCH,TZ
T1C0.016
T2C0.020
T3C0.031
T4C0.040
%
G90
G05
M72
T1
X3.3268Y-2.361
X3.4024Y-4.1142
X3.46Y-3.2837
X3.4644Y-2.6575
X3.4646Y-2.5864
X3.4646Y-2.9301
X3.4646Y-2.9921
X3.4646Y-4.4482
X3.47Y-3.6
X3.47Y-3.6549
X3.563Y-2.6969
X3.563Y-3.0512
X3.563Y-3.8337
X3.563Y-4.2179
X3.5827Y-2.9921
X3.6024Y-2.6378
X3.6415Y-2.3112
X3.7008Y-3.4055
X3.7008Y-3.8386
X3.7098Y-2.3418
X3.7402Y-4.2126
X3.8Y-2.18
X3.8976Y-3.6417
X3.9961Y-2.4213
X4.4016Y-2.4173
X4.5866Y-3.7913
X4.61Y-2.15
X4.6281Y-2.5984
X4.6614Y-2.4173
X4.6935Y-2.9435
X4.707Y-3.5545
X4.708Y-3.6868
X4.7085Y-3.0805
X4.7085Y-3.2774
X4.7085Y-3.4348
X4.7165Y-3.6457
X4.7167Y-3.7685
X4.7192Y-3.5976
X4.8173Y-3.6116
X4.8213Y-3.5547
X4.8534Y-3.6402
X4.8545Y-2.9291
X4.8801Y-2.126
X4.8939Y-3.0685
X4.9116Y-2.47
X4.9333Y-3.7785
X5.0376Y-2.13
X5.0376Y-2.5984
X5.0514Y-3.7785
X5.1006Y-2.126
X5.1006Y-2.47
X5.1104Y-3.7785
X5.1951Y-2.13
X5.1951Y-2.5945
X5.2466Y-3.7847
X5.2679Y-3.0685
X5.2896Y-2.126
X5.2896Y-2.47
X5.3543Y-3.6181
X5.3841Y-2.13
X5.3841Y-2.5906
X5.3976Y-3.5315
X5.4055Y-3.5827
X5.4057Y-3.0685
X5.4185Y-3.1396
X5.4185Y-3.4152
X5.4185Y-3.7695
X5.4203Y-3.8947
X5.447Y-2.5906
X5.5Y-2.0717
X5.5411Y-3.4797
X5.5485Y-3.0585
X5.5523Y-3.5511
X5.6198Y-3.6423
X5.6599Y-3.6104
T2
X2.2079Y-2.7898
T3
X2.1063Y-3.5404
X2.2079Y-2.4041
X2.5197Y-2.2638
X2.9528Y-2.2579
X4.1496Y-2.2028
X4.3943Y-2.6102
X4.4724Y-2.3012
X4.4724Y-2.7014
X4.7913Y-3.1063
X2.2079Y-3.3404
X2.2079Y-3.4404
X2.2079Y-3.5404
X2.2079Y-3.6404
X2.2079Y-3.7404
X2.2079Y-3.8404
X2.2079Y-3.9404
X2.2079Y-4.0404
X2.2079Y-4.1404
X2.3079Y-3.2404
X2.3079Y-3.3404
X2.3079Y-3.4404
X2.3079Y-3.5404
X2.3079Y-3.6404
X2.3079Y-3.7404
X2.3079Y-3.8404
X2.3079Y-3.9404
X2.3079Y-4.0404
X2.3079Y-4.1404
X2.3079Y-4.2404
X2.4079Y-3.2404
X2.4079Y-3.3404
X2.4079Y-4.1404
X2.4079Y-4.2404
X2.5079Y-3.2404
X2.5079Y-3.3404
X2.5079Y-4.1404
X2.5079Y-4.2404
X2.6079Y-3.2404
X2.6079Y-3.3404
X2.6079Y-4.1404
X2.6079Y-4.2404
X2.7079Y-3.2404
X2.7079Y-3.3404
X2.7079Y-4.1404
X2.7079Y-4.2404
X2.8079Y-3.2404
X2.8079Y-3.3404
X2.8079Y-4.1404
X2.8079Y-4.2404
X2.9079Y-3.2404
X2.9079Y-3.3404
X2.9079Y-4.1404
X2.9079Y-4.2404
X3.0079Y-3.2404
X3.0079Y-3.3404
X3.0079Y-4.1404
X3.0079Y-4.2404
X3.1079Y-3.2404
X3.1079Y-3.3404
X3.1079Y-3.4404
X3.1079Y-3.5404
X3.1079Y-3.6404
X3.1079Y-3.7404
X3.1079Y-3.8404
X3.1079Y-3.9404
X3.1079Y-4.0404
X3.1079Y-4.1404
X3.1079Y-4.2404
X3.2079Y-3.3404
X3.2079Y-3.4404
X3.2079Y-3.5404
X3.2079Y-3.6404
X3.2079Y-3.7404
X3.2079Y-3.8404
X3.2079Y-3.9404
X3.2079Y-4.0404
X3.2079Y-4.1404
T4
X5.73Y-3.26
X5.73Y-3.36
X5.73Y-3.46
X5.73Y-3.56
X5.73Y-3.66
X5.73Y-3.76
X5.77Y-2.12
X5.6463Y-3.95
X5.6463Y-4.05
X5.6463Y-4.15
X5.6463Y-4.25
X5.6463Y-4.35
X5.6463Y-4.45
X2.0669Y-3.8404
T0
M30
