G04 #@! TF.GenerationSoftware,KiCad,Pcbnew,(2017-11-24 revision a01d81e4b)-master*
G04 #@! TF.CreationDate,2018-01-27T17:30:05+01:00*
G04 #@! TF.ProjectId,phram_1,706872616D5F312E6B696361645F7063,rev?*
G04 #@! TF.SameCoordinates,Original*
G04 #@! TF.FileFunction,Copper,L2,Bot,Signal*
G04 #@! TF.FilePolarity,Positive*
%FSLAX46Y46*%
G04 Gerber Fmt 4.6, Leading zero omitted, Abs format (unit mm)*
G04 Created by KiCad (PCBNEW (2017-11-24 revision a01d81e4b)-master) date Sat Jan 27 17:30:05 2018*
%MOMM*%
%LPD*%
G01*
G04 APERTURE LIST*
%ADD10C,1.400000*%
%ADD11R,1.500000X1.300000*%
%ADD12R,1.300000X1.500000*%
%ADD13R,1.500000X1.250000*%
%ADD14R,1.250000X1.500000*%
%ADD15O,2.032000X1.727200*%
%ADD16C,2.235200*%
%ADD17C,0.800000*%
%ADD18C,1.600000*%
%ADD19C,0.254000*%
%ADD20C,0.400000*%
%ADD21C,1.000000*%
%ADD22C,0.600000*%
G04 APERTURE END LIST*
D10*
X68780000Y-82305000D03*
X66240000Y-84845000D03*
X66240000Y-82305000D03*
X63700000Y-84845000D03*
X63700000Y-82305000D03*
X61160000Y-84845000D03*
X61160000Y-82305000D03*
X58620000Y-84845000D03*
X58620000Y-82305000D03*
X56080000Y-84845000D03*
X58620000Y-87385000D03*
X56080000Y-87385000D03*
X58620000Y-89925000D03*
X56080000Y-89925000D03*
X58620000Y-92465000D03*
X56080000Y-92465000D03*
X58620000Y-95005000D03*
X56080000Y-95005000D03*
X58620000Y-97545000D03*
X56080000Y-97545000D03*
X58620000Y-100085000D03*
X56080000Y-100085000D03*
X58620000Y-102625000D03*
X56080000Y-102625000D03*
X58620000Y-105165000D03*
X56080000Y-105165000D03*
X58620000Y-107705000D03*
X61160000Y-105165000D03*
X61160000Y-107705000D03*
X63700000Y-105165000D03*
X63700000Y-107705000D03*
X66240000Y-105165000D03*
X66240000Y-107705000D03*
X68780000Y-105165000D03*
X68780000Y-107705000D03*
X71320000Y-105165000D03*
X71320000Y-107705000D03*
X73860000Y-105165000D03*
X73860000Y-107705000D03*
X76400000Y-105165000D03*
X76400000Y-107705000D03*
X78940000Y-105165000D03*
X78940000Y-107705000D03*
X81480000Y-105165000D03*
X78940000Y-102625000D03*
X81480000Y-102625000D03*
X78940000Y-100085000D03*
X81480000Y-100085000D03*
X78940000Y-97545000D03*
X81480000Y-97545000D03*
X78940000Y-95005000D03*
X81480000Y-95005000D03*
X78940000Y-92465000D03*
X81480000Y-92465000D03*
X78940000Y-89925000D03*
X81480000Y-89925000D03*
X78940000Y-87385000D03*
X81480000Y-87385000D03*
X78940000Y-84845000D03*
X81480000Y-84845000D03*
X78940000Y-82305000D03*
X76400000Y-84845000D03*
X76400000Y-82305000D03*
X73860000Y-84845000D03*
X73860000Y-82305000D03*
X71320000Y-84845000D03*
X71320000Y-82305000D03*
X68780000Y-84845000D03*
D11*
X95350000Y-105000000D03*
X92650000Y-105000000D03*
X93700000Y-95000000D03*
X91000000Y-95000000D03*
D12*
X99000000Y-90350000D03*
X99000000Y-87650000D03*
X99000000Y-62850000D03*
X99000000Y-60150000D03*
D13*
X117800000Y-87200000D03*
X115300000Y-87200000D03*
X90250000Y-99500000D03*
X87750000Y-99500000D03*
X90424000Y-70358000D03*
X87924000Y-70358000D03*
D14*
X96000000Y-60250000D03*
X96000000Y-62750000D03*
D13*
X115570000Y-52578000D03*
X113070000Y-52578000D03*
X90424000Y-79502000D03*
X87924000Y-79502000D03*
D14*
X125800000Y-76300000D03*
X125800000Y-73800000D03*
X96012000Y-87750000D03*
X96012000Y-90250000D03*
X129555000Y-64790000D03*
X129555000Y-67290000D03*
X134355000Y-65024000D03*
X134355000Y-67524000D03*
X136755000Y-56388000D03*
X136755000Y-58888000D03*
X139700000Y-56388000D03*
X139700000Y-58888000D03*
X121500000Y-96000000D03*
X121500000Y-98500000D03*
X133800000Y-76100000D03*
X133800000Y-73600000D03*
D13*
X132080000Y-52324000D03*
X134580000Y-52324000D03*
D14*
X127955000Y-56388000D03*
X127955000Y-58888000D03*
D13*
X139400000Y-86700000D03*
X141900000Y-86700000D03*
X90424000Y-108966000D03*
X87924000Y-108966000D03*
D14*
X137300000Y-76100000D03*
X137300000Y-73600000D03*
D13*
X139400000Y-79800000D03*
X141900000Y-79800000D03*
D14*
X126800000Y-96000000D03*
X126800000Y-98500000D03*
X131300000Y-96100000D03*
X131300000Y-98600000D03*
X117045000Y-78245000D03*
X117045000Y-80745000D03*
D15*
X143415000Y-100330000D03*
X143415000Y-102870000D03*
X143415000Y-105410000D03*
X143415000Y-107950000D03*
X143415000Y-110490000D03*
X143415000Y-113030000D03*
D13*
X137600000Y-93600000D03*
X140100000Y-93600000D03*
D15*
X145542000Y-82804000D03*
X145542000Y-85344000D03*
X145542000Y-87884000D03*
X145542000Y-90424000D03*
X145542000Y-92964000D03*
X145542000Y-95504000D03*
D16*
X146558000Y-53848000D03*
D12*
X86360000Y-94140000D03*
X86360000Y-91440000D03*
D16*
X52500000Y-97545000D03*
D17*
X90500000Y-77500000D03*
X90500000Y-68500000D03*
X139700000Y-52620000D03*
X136755000Y-54102000D03*
X127955000Y-54102000D03*
X131955000Y-54102000D03*
X134355000Y-62738000D03*
X129555000Y-62738000D03*
X124755000Y-62738000D03*
X117094000Y-54610000D03*
D18*
X113600000Y-58450000D03*
X113600000Y-68616397D03*
X121700000Y-78900000D03*
D17*
X90500000Y-107135000D03*
X90500000Y-97375000D03*
X94000000Y-86500000D03*
X94228904Y-59482072D03*
X137630000Y-86745000D03*
X137630000Y-79745000D03*
X119596000Y-87245000D03*
X119805000Y-95720000D03*
X129805000Y-95974000D03*
X133805000Y-77940000D03*
X124305000Y-77940000D03*
X137630000Y-95745000D03*
X137675896Y-98925101D03*
X133264319Y-96132275D03*
X88138000Y-92835000D03*
X96520000Y-55372000D03*
X87884000Y-83405000D03*
D18*
X105400000Y-55950000D03*
D17*
X140745037Y-88385209D03*
X116500000Y-96300000D03*
X119558858Y-90283775D03*
X134355000Y-54000000D03*
X129555000Y-54000000D03*
X123955000Y-54000000D03*
X138355000Y-65800000D03*
X136755000Y-65800000D03*
X131955000Y-65900000D03*
X127955000Y-66000000D03*
X117555000Y-66000000D03*
X123305000Y-74400000D03*
X88000000Y-112985000D03*
X86420000Y-104500000D03*
X88000000Y-74425000D03*
X88000000Y-65695000D03*
D18*
X64000000Y-57500000D03*
X75000000Y-57350000D03*
D17*
X119596000Y-83245000D03*
X128305000Y-95974000D03*
X140932000Y-77686000D03*
X119215000Y-74765000D03*
D18*
X56080000Y-61065000D03*
X111615300Y-66299035D03*
D17*
X119596000Y-78245000D03*
X125305000Y-95974000D03*
X137305000Y-77940000D03*
X111800000Y-61400000D03*
X118400000Y-61400000D03*
D18*
X53500000Y-89925000D03*
D17*
X84500725Y-59969856D03*
X92494210Y-58705325D03*
X56080000Y-70860000D03*
X123277005Y-92460216D03*
X142742213Y-92513827D03*
X136000000Y-91900000D03*
X119584157Y-93645736D03*
X141027590Y-90197368D03*
X122460141Y-90288260D03*
X137100000Y-89700000D03*
X119867422Y-91379621D03*
X143761611Y-91703143D03*
X122358488Y-91735609D03*
X137300000Y-91000000D03*
X119800000Y-92600000D03*
X91000000Y-76000000D03*
X88000000Y-76000000D03*
X91500000Y-67000000D03*
X87995000Y-67500000D03*
X95000000Y-107000000D03*
X94000000Y-97500000D03*
X99000000Y-92500000D03*
X101500000Y-61500000D03*
X88138000Y-91440000D03*
D19*
X137630000Y-95745000D02*
X137630000Y-96310685D01*
X137630000Y-96310685D02*
X141649315Y-100330000D01*
X141649315Y-100330000D02*
X142145000Y-100330000D01*
X142145000Y-100330000D02*
X143415000Y-100330000D01*
D20*
X90500000Y-77500000D02*
X90500000Y-79426000D01*
D19*
X90500000Y-79426000D02*
X90424000Y-79502000D01*
D20*
X90500000Y-68500000D02*
X90500000Y-70282000D01*
D19*
X90500000Y-70282000D02*
X90424000Y-70358000D01*
D21*
X90500000Y-107135000D02*
X90500000Y-108890000D01*
X90500000Y-108890000D02*
X90424000Y-108966000D01*
X131955000Y-54102000D02*
X131955000Y-52449000D01*
X131955000Y-52449000D02*
X132080000Y-52324000D01*
X129555000Y-64790000D02*
X129555000Y-62738000D01*
X134355000Y-65024000D02*
X134355000Y-62738000D01*
X127955000Y-56388000D02*
X132080000Y-56388000D01*
X132080000Y-56388000D02*
X136755000Y-56388000D01*
X131955000Y-54102000D02*
X131955000Y-56263000D01*
X131955000Y-56263000D02*
X132080000Y-56388000D01*
X127955000Y-56388000D02*
X127955000Y-54102000D01*
X123444000Y-56388000D02*
X127955000Y-56388000D01*
X124755000Y-62738000D02*
X121385643Y-59368643D01*
X121385643Y-58453643D02*
X121382000Y-58450000D01*
X121385643Y-59368643D02*
X121385643Y-58453643D01*
X129555000Y-62738000D02*
X124755000Y-62738000D01*
X139700000Y-52620000D02*
X139700000Y-56388000D01*
X136755000Y-54102000D02*
X136755000Y-56388000D01*
X136755000Y-56388000D02*
X139700000Y-56388000D01*
X121382000Y-58450000D02*
X123444000Y-56388000D01*
X113600000Y-58450000D02*
X121382000Y-58450000D01*
X117094000Y-54610000D02*
X115570000Y-53086000D01*
D19*
X115570000Y-53086000D02*
X115570000Y-52578000D01*
D21*
X113600000Y-68616397D02*
X113600000Y-71877887D01*
X113600000Y-71877887D02*
X118222113Y-76500000D01*
X121700000Y-78900000D02*
X121700000Y-77768630D01*
X121700000Y-77768630D02*
X120431370Y-76500000D01*
X120431370Y-76500000D02*
X118222113Y-76500000D01*
X137630000Y-95745000D02*
X137630000Y-93630000D01*
D19*
X137630000Y-93630000D02*
X137600000Y-93600000D01*
D21*
X119596000Y-87245000D02*
X117845000Y-87245000D01*
X117845000Y-87245000D02*
X117800000Y-87200000D01*
X119805000Y-95720000D02*
X121220000Y-95720000D01*
X121220000Y-95720000D02*
X121500000Y-96000000D01*
X129805000Y-95974000D02*
X131174000Y-95974000D01*
X131174000Y-95974000D02*
X131300000Y-96100000D01*
X137630000Y-86745000D02*
X139355000Y-86745000D01*
X139355000Y-86745000D02*
X139400000Y-86700000D01*
X137630000Y-79745000D02*
X139345000Y-79745000D01*
X139345000Y-79745000D02*
X139400000Y-79800000D01*
X125800000Y-76300000D02*
X125800000Y-76445000D01*
X125800000Y-76445000D02*
X124305000Y-77940000D01*
X133805000Y-77940000D02*
X133805000Y-76105000D01*
X133805000Y-76105000D02*
X133800000Y-76100000D01*
D19*
X90500000Y-107135000D02*
X92635000Y-105000000D01*
X92635000Y-105000000D02*
X92650000Y-105000000D01*
D22*
X90500000Y-97375000D02*
X90500000Y-99250000D01*
D19*
X90500000Y-99250000D02*
X90250000Y-99500000D01*
X90500000Y-97375000D02*
X91000000Y-96875000D01*
X91000000Y-96875000D02*
X91000000Y-95000000D01*
X96012000Y-87750000D02*
X98900000Y-87750000D01*
X98900000Y-87750000D02*
X99000000Y-87650000D01*
D22*
X94000000Y-86500000D02*
X94887000Y-86500000D01*
X94887000Y-86500000D02*
X96012000Y-87625000D01*
D19*
X96012000Y-87625000D02*
X96012000Y-87750000D01*
X99000000Y-60150000D02*
X96100000Y-60150000D01*
X96100000Y-60150000D02*
X96000000Y-60250000D01*
D22*
X96000000Y-60250000D02*
X94996832Y-60250000D01*
X94996832Y-60250000D02*
X94228904Y-59482072D01*
D21*
X117045000Y-78120000D02*
X111615300Y-72690300D01*
X111615300Y-72690300D02*
X111615300Y-67430405D01*
X117045000Y-78245000D02*
X117045000Y-78120000D01*
X111615300Y-67430405D02*
X111615300Y-66299035D01*
X125305000Y-85405000D02*
X129840000Y-85405000D01*
X129840000Y-85405000D02*
X137305000Y-77940000D01*
X125305000Y-87005000D02*
X125305000Y-85405000D01*
X125305000Y-85405000D02*
X119995999Y-80095999D01*
X119995999Y-80095999D02*
X119995999Y-78644999D01*
X119995999Y-78644999D02*
X119596000Y-78245000D01*
X137305000Y-77940000D02*
X137305000Y-76105000D01*
X137305000Y-76105000D02*
X137300000Y-76100000D01*
X125305000Y-95974000D02*
X126774000Y-95974000D01*
X126774000Y-95974000D02*
X126800000Y-96000000D01*
X125305000Y-87005000D02*
X125305000Y-95974000D01*
X117045000Y-78245000D02*
X119596000Y-78245000D01*
D19*
X111800000Y-61400000D02*
X118400000Y-61400000D01*
D21*
X56080000Y-89925000D02*
X53500000Y-89925000D01*
D19*
X84900724Y-59569857D02*
X84500725Y-59969856D01*
X85765256Y-58705325D02*
X84900724Y-59569857D01*
X92494210Y-58705325D02*
X85765256Y-58705325D01*
X56080000Y-84845000D02*
X56080000Y-80845000D01*
X56080000Y-80845000D02*
X56080000Y-70860000D01*
X122091485Y-93645736D02*
X122877006Y-92860215D01*
X119584157Y-93645736D02*
X122091485Y-93645736D01*
X122877006Y-92860215D02*
X123277005Y-92460216D01*
X142342214Y-92113828D02*
X142742213Y-92513827D01*
X142128386Y-91900000D02*
X142342214Y-92113828D01*
X136000000Y-91900000D02*
X142128386Y-91900000D01*
X137100000Y-89700000D02*
X140530222Y-89700000D01*
X140530222Y-89700000D02*
X140627591Y-89797369D01*
X140627591Y-89797369D02*
X141027590Y-90197368D01*
X122060142Y-90688259D02*
X122460141Y-90288260D01*
X119867422Y-91379621D02*
X121368780Y-91379621D01*
X121368780Y-91379621D02*
X122060142Y-90688259D01*
X143361612Y-91303144D02*
X143761611Y-91703143D01*
X143058468Y-91000000D02*
X143361612Y-91303144D01*
X137300000Y-91000000D02*
X143058468Y-91000000D01*
X121958489Y-92135608D02*
X122358488Y-91735609D01*
X119800000Y-92600000D02*
X121494097Y-92600000D01*
X121494097Y-92600000D02*
X121958489Y-92135608D01*
X88000000Y-76000000D02*
X91000000Y-76000000D01*
X91000000Y-67500000D02*
X91500000Y-67000000D01*
X87995000Y-67500000D02*
X91000000Y-67500000D01*
X95000000Y-107000000D02*
X95000000Y-105350000D01*
X95000000Y-105350000D02*
X95350000Y-105000000D01*
X94000000Y-97500000D02*
X94000000Y-95300000D01*
X94000000Y-95300000D02*
X93700000Y-95000000D01*
X99000000Y-92500000D02*
X99000000Y-90350000D01*
X101500000Y-61500000D02*
X100150000Y-62850000D01*
X100150000Y-62850000D02*
X99000000Y-62850000D01*
X88138000Y-91440000D02*
X86360000Y-91440000D01*
G36*
X149290000Y-115290000D02*
X50710000Y-115290000D01*
X50710000Y-109251750D01*
X86539000Y-109251750D01*
X86539000Y-109717310D01*
X86635673Y-109950699D01*
X86814302Y-110129327D01*
X87047691Y-110226000D01*
X87638250Y-110226000D01*
X87797000Y-110067250D01*
X87797000Y-109093000D01*
X86697750Y-109093000D01*
X86539000Y-109251750D01*
X50710000Y-109251750D01*
X50710000Y-97892084D01*
X50747097Y-97892084D01*
X51013352Y-98536471D01*
X51505936Y-99029915D01*
X52149857Y-99297295D01*
X52847084Y-99297903D01*
X53491471Y-99031648D01*
X53984915Y-98539064D01*
X54252295Y-97895143D01*
X54252903Y-97197916D01*
X53986648Y-96553529D01*
X53494064Y-96060085D01*
X52850143Y-95792705D01*
X52152916Y-95792097D01*
X51508529Y-96058352D01*
X51015085Y-96550936D01*
X50747705Y-97194857D01*
X50747097Y-97892084D01*
X50710000Y-97892084D01*
X50710000Y-95269383D01*
X54744769Y-95269383D01*
X54947582Y-95760229D01*
X55322796Y-96136098D01*
X55657527Y-96275091D01*
X55324771Y-96412582D01*
X54948902Y-96787796D01*
X54745232Y-97278287D01*
X54744769Y-97809383D01*
X54947582Y-98300229D01*
X55322796Y-98676098D01*
X55657527Y-98815091D01*
X55324771Y-98952582D01*
X54948902Y-99327796D01*
X54745232Y-99818287D01*
X54744769Y-100349383D01*
X54947582Y-100840229D01*
X55322796Y-101216098D01*
X55657527Y-101355091D01*
X55324771Y-101492582D01*
X54948902Y-101867796D01*
X54745232Y-102358287D01*
X54744769Y-102889383D01*
X54947582Y-103380229D01*
X55322796Y-103756098D01*
X55657527Y-103895091D01*
X55324771Y-104032582D01*
X54948902Y-104407796D01*
X54745232Y-104898287D01*
X54744769Y-105429383D01*
X54947582Y-105920229D01*
X55322796Y-106296098D01*
X55813287Y-106499768D01*
X56344383Y-106500231D01*
X56835229Y-106297418D01*
X57211098Y-105922204D01*
X57350091Y-105587473D01*
X57487582Y-105920229D01*
X57862796Y-106296098D01*
X58197527Y-106435091D01*
X57864771Y-106572582D01*
X57488902Y-106947796D01*
X57285232Y-107438287D01*
X57284769Y-107969383D01*
X57487582Y-108460229D01*
X57862796Y-108836098D01*
X58353287Y-109039768D01*
X58884383Y-109040231D01*
X59375229Y-108837418D01*
X59751098Y-108462204D01*
X59890091Y-108127473D01*
X60027582Y-108460229D01*
X60402796Y-108836098D01*
X60893287Y-109039768D01*
X61424383Y-109040231D01*
X61915229Y-108837418D01*
X62291098Y-108462204D01*
X62430091Y-108127473D01*
X62567582Y-108460229D01*
X62942796Y-108836098D01*
X63433287Y-109039768D01*
X63964383Y-109040231D01*
X64455229Y-108837418D01*
X64831098Y-108462204D01*
X64970091Y-108127473D01*
X65107582Y-108460229D01*
X65482796Y-108836098D01*
X65973287Y-109039768D01*
X66504383Y-109040231D01*
X66995229Y-108837418D01*
X67371098Y-108462204D01*
X67510091Y-108127473D01*
X67647582Y-108460229D01*
X68022796Y-108836098D01*
X68513287Y-109039768D01*
X69044383Y-109040231D01*
X69535229Y-108837418D01*
X69911098Y-108462204D01*
X70050091Y-108127473D01*
X70187582Y-108460229D01*
X70562796Y-108836098D01*
X71053287Y-109039768D01*
X71584383Y-109040231D01*
X72075229Y-108837418D01*
X72451098Y-108462204D01*
X72590091Y-108127473D01*
X72727582Y-108460229D01*
X73102796Y-108836098D01*
X73593287Y-109039768D01*
X74124383Y-109040231D01*
X74615229Y-108837418D01*
X74991098Y-108462204D01*
X75130091Y-108127473D01*
X75267582Y-108460229D01*
X75642796Y-108836098D01*
X76133287Y-109039768D01*
X76664383Y-109040231D01*
X77155229Y-108837418D01*
X77531098Y-108462204D01*
X77670091Y-108127473D01*
X77807582Y-108460229D01*
X78182796Y-108836098D01*
X78673287Y-109039768D01*
X79204383Y-109040231D01*
X79695229Y-108837418D01*
X80071098Y-108462204D01*
X80173874Y-108214690D01*
X86539000Y-108214690D01*
X86539000Y-108680250D01*
X86697750Y-108839000D01*
X87797000Y-108839000D01*
X87797000Y-107864750D01*
X88051000Y-107864750D01*
X88051000Y-108839000D01*
X88071000Y-108839000D01*
X88071000Y-109093000D01*
X88051000Y-109093000D01*
X88051000Y-110067250D01*
X88209750Y-110226000D01*
X88800309Y-110226000D01*
X89033698Y-110129327D01*
X89175346Y-109987680D01*
X89216191Y-110048809D01*
X89426235Y-110189157D01*
X89674000Y-110238440D01*
X91174000Y-110238440D01*
X91421765Y-110189157D01*
X91631809Y-110048809D01*
X91772157Y-109838765D01*
X91821440Y-109591000D01*
X91821440Y-108341000D01*
X91772157Y-108093235D01*
X91635000Y-107887967D01*
X91635000Y-107135000D01*
X91625482Y-107087148D01*
X92415190Y-106297440D01*
X93400000Y-106297440D01*
X93647765Y-106248157D01*
X93857809Y-106107809D01*
X93998157Y-105897765D01*
X94000000Y-105888500D01*
X94001843Y-105897765D01*
X94142191Y-106107809D01*
X94238000Y-106171827D01*
X94238000Y-106298235D01*
X94123081Y-106412954D01*
X93965180Y-106793223D01*
X93964821Y-107204971D01*
X94122058Y-107585515D01*
X94412954Y-107876919D01*
X94793223Y-108034820D01*
X95204971Y-108035179D01*
X95585515Y-107877942D01*
X95876919Y-107587046D01*
X96034820Y-107206777D01*
X96035179Y-106795029D01*
X95877942Y-106414485D01*
X95762000Y-106298341D01*
X95762000Y-106297440D01*
X96100000Y-106297440D01*
X96347765Y-106248157D01*
X96557809Y-106107809D01*
X96698157Y-105897765D01*
X96747440Y-105650000D01*
X96747440Y-105410000D01*
X141731655Y-105410000D01*
X141845729Y-105983489D01*
X142170585Y-106469670D01*
X142485366Y-106680000D01*
X142170585Y-106890330D01*
X141845729Y-107376511D01*
X141731655Y-107950000D01*
X141845729Y-108523489D01*
X142170585Y-109009670D01*
X142485366Y-109220000D01*
X142170585Y-109430330D01*
X141845729Y-109916511D01*
X141731655Y-110490000D01*
X141845729Y-111063489D01*
X142170585Y-111549670D01*
X142485366Y-111760000D01*
X142170585Y-111970330D01*
X141845729Y-112456511D01*
X141731655Y-113030000D01*
X141845729Y-113603489D01*
X142170585Y-114089670D01*
X142656766Y-114414526D01*
X143230255Y-114528600D01*
X143599745Y-114528600D01*
X144173234Y-114414526D01*
X144659415Y-114089670D01*
X144984271Y-113603489D01*
X145098345Y-113030000D01*
X144984271Y-112456511D01*
X144659415Y-111970330D01*
X144344634Y-111760000D01*
X144659415Y-111549670D01*
X144984271Y-111063489D01*
X145098345Y-110490000D01*
X144984271Y-109916511D01*
X144659415Y-109430330D01*
X144344634Y-109220000D01*
X144659415Y-109009670D01*
X144984271Y-108523489D01*
X145098345Y-107950000D01*
X144984271Y-107376511D01*
X144659415Y-106890330D01*
X144344634Y-106680000D01*
X144659415Y-106469670D01*
X144984271Y-105983489D01*
X145098345Y-105410000D01*
X144984271Y-104836511D01*
X144659415Y-104350330D01*
X144349931Y-104143539D01*
X144765732Y-103772036D01*
X145019709Y-103244791D01*
X145022358Y-103229026D01*
X144901217Y-102997000D01*
X143542000Y-102997000D01*
X143542000Y-103017000D01*
X143288000Y-103017000D01*
X143288000Y-102997000D01*
X141928783Y-102997000D01*
X141807642Y-103229026D01*
X141810291Y-103244791D01*
X142064268Y-103772036D01*
X142480069Y-104143539D01*
X142170585Y-104350330D01*
X141845729Y-104836511D01*
X141731655Y-105410000D01*
X96747440Y-105410000D01*
X96747440Y-104350000D01*
X96698157Y-104102235D01*
X96557809Y-103892191D01*
X96347765Y-103751843D01*
X96100000Y-103702560D01*
X94600000Y-103702560D01*
X94352235Y-103751843D01*
X94142191Y-103892191D01*
X94001843Y-104102235D01*
X94000000Y-104111500D01*
X93998157Y-104102235D01*
X93857809Y-103892191D01*
X93647765Y-103751843D01*
X93400000Y-103702560D01*
X91900000Y-103702560D01*
X91652235Y-103751843D01*
X91442191Y-103892191D01*
X91301843Y-104102235D01*
X91252560Y-104350000D01*
X91252560Y-105304810D01*
X90547852Y-106009518D01*
X90500000Y-106000000D01*
X90065654Y-106086397D01*
X89697434Y-106332434D01*
X89451397Y-106700654D01*
X89365000Y-107135000D01*
X89365000Y-107783759D01*
X89216191Y-107883191D01*
X89175346Y-107944320D01*
X89033698Y-107802673D01*
X88800309Y-107706000D01*
X88209750Y-107706000D01*
X88051000Y-107864750D01*
X87797000Y-107864750D01*
X87638250Y-107706000D01*
X87047691Y-107706000D01*
X86814302Y-107802673D01*
X86635673Y-107981301D01*
X86539000Y-108214690D01*
X80173874Y-108214690D01*
X80274768Y-107971713D01*
X80275231Y-107440617D01*
X80072418Y-106949771D01*
X79697204Y-106573902D01*
X79362473Y-106434909D01*
X79695229Y-106297418D01*
X80071098Y-105922204D01*
X80210091Y-105587473D01*
X80347582Y-105920229D01*
X80722796Y-106296098D01*
X81213287Y-106499768D01*
X81744383Y-106500231D01*
X82235229Y-106297418D01*
X82611098Y-105922204D01*
X82814768Y-105431713D01*
X82815231Y-104900617D01*
X82612418Y-104409771D01*
X82237204Y-104033902D01*
X81902473Y-103894909D01*
X82235229Y-103757418D01*
X82611098Y-103382204D01*
X82814768Y-102891713D01*
X82815231Y-102360617D01*
X82612418Y-101869771D01*
X82237204Y-101493902D01*
X81902473Y-101354909D01*
X82235229Y-101217418D01*
X82611098Y-100842204D01*
X82814768Y-100351713D01*
X82815231Y-99820617D01*
X82800825Y-99785750D01*
X86365000Y-99785750D01*
X86365000Y-100251310D01*
X86461673Y-100484699D01*
X86640302Y-100663327D01*
X86873691Y-100760000D01*
X87464250Y-100760000D01*
X87623000Y-100601250D01*
X87623000Y-99627000D01*
X86523750Y-99627000D01*
X86365000Y-99785750D01*
X82800825Y-99785750D01*
X82612418Y-99329771D01*
X82237204Y-98953902D01*
X81902473Y-98814909D01*
X82062736Y-98748690D01*
X86365000Y-98748690D01*
X86365000Y-99214250D01*
X86523750Y-99373000D01*
X87623000Y-99373000D01*
X87623000Y-98398750D01*
X87877000Y-98398750D01*
X87877000Y-99373000D01*
X87897000Y-99373000D01*
X87897000Y-99627000D01*
X87877000Y-99627000D01*
X87877000Y-100601250D01*
X88035750Y-100760000D01*
X88626309Y-100760000D01*
X88859698Y-100663327D01*
X89001346Y-100521680D01*
X89042191Y-100582809D01*
X89252235Y-100723157D01*
X89500000Y-100772440D01*
X91000000Y-100772440D01*
X91247765Y-100723157D01*
X91457809Y-100582809D01*
X91598157Y-100372765D01*
X91647440Y-100125000D01*
X91647440Y-98875000D01*
X91629688Y-98785750D01*
X120240000Y-98785750D01*
X120240000Y-99376309D01*
X120336673Y-99609698D01*
X120515301Y-99788327D01*
X120748690Y-99885000D01*
X121214250Y-99885000D01*
X121373000Y-99726250D01*
X121373000Y-98627000D01*
X121627000Y-98627000D01*
X121627000Y-99726250D01*
X121785750Y-99885000D01*
X122251310Y-99885000D01*
X122484699Y-99788327D01*
X122663327Y-99609698D01*
X122760000Y-99376309D01*
X122760000Y-98785750D01*
X125540000Y-98785750D01*
X125540000Y-99376309D01*
X125636673Y-99609698D01*
X125815301Y-99788327D01*
X126048690Y-99885000D01*
X126514250Y-99885000D01*
X126673000Y-99726250D01*
X126673000Y-98627000D01*
X126927000Y-98627000D01*
X126927000Y-99726250D01*
X127085750Y-99885000D01*
X127551310Y-99885000D01*
X127784699Y-99788327D01*
X127963327Y-99609698D01*
X128060000Y-99376309D01*
X128060000Y-98885750D01*
X130040000Y-98885750D01*
X130040000Y-99476309D01*
X130136673Y-99709698D01*
X130315301Y-99888327D01*
X130548690Y-99985000D01*
X131014250Y-99985000D01*
X131173000Y-99826250D01*
X131173000Y-98727000D01*
X131427000Y-98727000D01*
X131427000Y-99826250D01*
X131585750Y-99985000D01*
X132051310Y-99985000D01*
X132284699Y-99888327D01*
X132463327Y-99709698D01*
X132560000Y-99476309D01*
X132560000Y-98885750D01*
X132401250Y-98727000D01*
X131427000Y-98727000D01*
X131173000Y-98727000D01*
X130198750Y-98727000D01*
X130040000Y-98885750D01*
X128060000Y-98885750D01*
X128060000Y-98785750D01*
X127901250Y-98627000D01*
X126927000Y-98627000D01*
X126673000Y-98627000D01*
X125698750Y-98627000D01*
X125540000Y-98785750D01*
X122760000Y-98785750D01*
X122601250Y-98627000D01*
X121627000Y-98627000D01*
X121373000Y-98627000D01*
X120398750Y-98627000D01*
X120240000Y-98785750D01*
X91629688Y-98785750D01*
X91598157Y-98627235D01*
X91457809Y-98417191D01*
X91435000Y-98401950D01*
X91435000Y-97822171D01*
X91534820Y-97581777D01*
X91534963Y-97417668D01*
X91538816Y-97413815D01*
X91676464Y-97207809D01*
X91703996Y-97166605D01*
X91762000Y-96875000D01*
X91762000Y-96295053D01*
X91997765Y-96248157D01*
X92207809Y-96107809D01*
X92348157Y-95897765D01*
X92350000Y-95888500D01*
X92351843Y-95897765D01*
X92492191Y-96107809D01*
X92702235Y-96248157D01*
X92950000Y-96297440D01*
X93238000Y-96297440D01*
X93238000Y-96798235D01*
X93123081Y-96912954D01*
X92965180Y-97293223D01*
X92964821Y-97704971D01*
X93122058Y-98085515D01*
X93412954Y-98376919D01*
X93793223Y-98534820D01*
X94204971Y-98535179D01*
X94585515Y-98377942D01*
X94876919Y-98087046D01*
X95034820Y-97706777D01*
X95035179Y-97295029D01*
X94877942Y-96914485D01*
X94762000Y-96798341D01*
X94762000Y-96205236D01*
X94907809Y-96107809D01*
X95048157Y-95897765D01*
X95097440Y-95650000D01*
X95097440Y-94350000D01*
X95048157Y-94102235D01*
X94907809Y-93892191D01*
X94697765Y-93751843D01*
X94450000Y-93702560D01*
X92950000Y-93702560D01*
X92702235Y-93751843D01*
X92492191Y-93892191D01*
X92351843Y-94102235D01*
X92350000Y-94111500D01*
X92348157Y-94102235D01*
X92207809Y-93892191D01*
X91997765Y-93751843D01*
X91750000Y-93702560D01*
X90250000Y-93702560D01*
X90002235Y-93751843D01*
X89792191Y-93892191D01*
X89651843Y-94102235D01*
X89602560Y-94350000D01*
X89602560Y-95650000D01*
X89651843Y-95897765D01*
X89792191Y-96107809D01*
X90002235Y-96248157D01*
X90238000Y-96295053D01*
X90238000Y-96363385D01*
X89914485Y-96497058D01*
X89623081Y-96787954D01*
X89465180Y-97168223D01*
X89464821Y-97579971D01*
X89565000Y-97822424D01*
X89565000Y-98227560D01*
X89500000Y-98227560D01*
X89252235Y-98276843D01*
X89042191Y-98417191D01*
X89001346Y-98478320D01*
X88859698Y-98336673D01*
X88626309Y-98240000D01*
X88035750Y-98240000D01*
X87877000Y-98398750D01*
X87623000Y-98398750D01*
X87464250Y-98240000D01*
X86873691Y-98240000D01*
X86640302Y-98336673D01*
X86461673Y-98515301D01*
X86365000Y-98748690D01*
X82062736Y-98748690D01*
X82235229Y-98677418D01*
X82611098Y-98302204D01*
X82814768Y-97811713D01*
X82815231Y-97280617D01*
X82612418Y-96789771D01*
X82237204Y-96413902D01*
X81902473Y-96274909D01*
X82235229Y-96137418D01*
X82611098Y-95762204D01*
X82814768Y-95271713D01*
X82815231Y-94740617D01*
X82685131Y-94425750D01*
X85075000Y-94425750D01*
X85075000Y-95016309D01*
X85171673Y-95249698D01*
X85350301Y-95428327D01*
X85583690Y-95525000D01*
X86074250Y-95525000D01*
X86233000Y-95366250D01*
X86233000Y-94267000D01*
X86487000Y-94267000D01*
X86487000Y-95366250D01*
X86645750Y-95525000D01*
X87136310Y-95525000D01*
X87369699Y-95428327D01*
X87548327Y-95249698D01*
X87645000Y-95016309D01*
X87645000Y-94425750D01*
X87486250Y-94267000D01*
X86487000Y-94267000D01*
X86233000Y-94267000D01*
X85233750Y-94267000D01*
X85075000Y-94425750D01*
X82685131Y-94425750D01*
X82612418Y-94249771D01*
X82237204Y-93873902D01*
X81902473Y-93734909D01*
X82235229Y-93597418D01*
X82611098Y-93222204D01*
X82814768Y-92731713D01*
X82815231Y-92200617D01*
X82612418Y-91709771D01*
X82237204Y-91333902D01*
X81918788Y-91201684D01*
X82173831Y-91096042D01*
X82235669Y-90860275D01*
X82065395Y-90690000D01*
X85062560Y-90690000D01*
X85062560Y-92190000D01*
X85111843Y-92437765D01*
X85252191Y-92647809D01*
X85462235Y-92788157D01*
X85490209Y-92793721D01*
X85350301Y-92851673D01*
X85171673Y-93030302D01*
X85075000Y-93263691D01*
X85075000Y-93854250D01*
X85233750Y-94013000D01*
X86233000Y-94013000D01*
X86233000Y-93993000D01*
X86487000Y-93993000D01*
X86487000Y-94013000D01*
X87486250Y-94013000D01*
X87645000Y-93854250D01*
X87645000Y-93263691D01*
X87548327Y-93030302D01*
X87369699Y-92851673D01*
X87229791Y-92793721D01*
X87257765Y-92788157D01*
X87467809Y-92647809D01*
X87608157Y-92437765D01*
X87625996Y-92348079D01*
X87931223Y-92474820D01*
X88342971Y-92475179D01*
X88723515Y-92317942D01*
X89014919Y-92027046D01*
X89172820Y-91646777D01*
X89173179Y-91235029D01*
X89015942Y-90854485D01*
X88725046Y-90563081D01*
X88659226Y-90535750D01*
X94752000Y-90535750D01*
X94752000Y-91126309D01*
X94848673Y-91359698D01*
X95027301Y-91538327D01*
X95260690Y-91635000D01*
X95726250Y-91635000D01*
X95885000Y-91476250D01*
X95885000Y-90377000D01*
X96139000Y-90377000D01*
X96139000Y-91476250D01*
X96297750Y-91635000D01*
X96763310Y-91635000D01*
X96996699Y-91538327D01*
X97175327Y-91359698D01*
X97272000Y-91126309D01*
X97272000Y-90535750D01*
X97113250Y-90377000D01*
X96139000Y-90377000D01*
X95885000Y-90377000D01*
X94910750Y-90377000D01*
X94752000Y-90535750D01*
X88659226Y-90535750D01*
X88344777Y-90405180D01*
X87933029Y-90404821D01*
X87625953Y-90531702D01*
X87608157Y-90442235D01*
X87467809Y-90232191D01*
X87257765Y-90091843D01*
X87010000Y-90042560D01*
X85710000Y-90042560D01*
X85462235Y-90091843D01*
X85252191Y-90232191D01*
X85111843Y-90442235D01*
X85062560Y-90690000D01*
X82065395Y-90690000D01*
X81480000Y-90104605D01*
X80724331Y-90860275D01*
X80786169Y-91096042D01*
X81062111Y-91193196D01*
X80724771Y-91332582D01*
X80348902Y-91707796D01*
X80209909Y-92042527D01*
X80072418Y-91709771D01*
X79697204Y-91333902D01*
X79362473Y-91194909D01*
X79695229Y-91057418D01*
X80071098Y-90682204D01*
X80203316Y-90363788D01*
X80308958Y-90618831D01*
X80544725Y-90680669D01*
X81300395Y-89925000D01*
X81659605Y-89925000D01*
X82415275Y-90680669D01*
X82651042Y-90618831D01*
X82827419Y-90117878D01*
X82798664Y-89587560D01*
X82651042Y-89231169D01*
X82415275Y-89169331D01*
X81659605Y-89925000D01*
X81300395Y-89925000D01*
X80544725Y-89169331D01*
X80308958Y-89231169D01*
X80211804Y-89507111D01*
X80072418Y-89169771D01*
X79697204Y-88793902D01*
X79378788Y-88661684D01*
X79633831Y-88556042D01*
X79695669Y-88320275D01*
X78940000Y-87564605D01*
X78184331Y-88320275D01*
X78246169Y-88556042D01*
X78522111Y-88653196D01*
X78184771Y-88792582D01*
X77808902Y-89167796D01*
X77605232Y-89658287D01*
X77604769Y-90189383D01*
X77807582Y-90680229D01*
X78182796Y-91056098D01*
X78517527Y-91195091D01*
X78184771Y-91332582D01*
X77808902Y-91707796D01*
X77605232Y-92198287D01*
X77604769Y-92729383D01*
X77807582Y-93220229D01*
X78182796Y-93596098D01*
X78517527Y-93735091D01*
X78184771Y-93872582D01*
X77808902Y-94247796D01*
X77605232Y-94738287D01*
X77604769Y-95269383D01*
X77807582Y-95760229D01*
X78182796Y-96136098D01*
X78517527Y-96275091D01*
X78184771Y-96412582D01*
X77808902Y-96787796D01*
X77605232Y-97278287D01*
X77604769Y-97809383D01*
X77807582Y-98300229D01*
X78182796Y-98676098D01*
X78517527Y-98815091D01*
X78184771Y-98952582D01*
X77808902Y-99327796D01*
X77605232Y-99818287D01*
X77604769Y-100349383D01*
X77807582Y-100840229D01*
X78182796Y-101216098D01*
X78517527Y-101355091D01*
X78184771Y-101492582D01*
X77808902Y-101867796D01*
X77605232Y-102358287D01*
X77604769Y-102889383D01*
X77807582Y-103380229D01*
X78182796Y-103756098D01*
X78517527Y-103895091D01*
X78184771Y-104032582D01*
X77808902Y-104407796D01*
X77669909Y-104742527D01*
X77532418Y-104409771D01*
X77157204Y-104033902D01*
X76666713Y-103830232D01*
X76135617Y-103829769D01*
X75644771Y-104032582D01*
X75268902Y-104407796D01*
X75129909Y-104742527D01*
X74992418Y-104409771D01*
X74617204Y-104033902D01*
X74126713Y-103830232D01*
X73595617Y-103829769D01*
X73104771Y-104032582D01*
X72728902Y-104407796D01*
X72589909Y-104742527D01*
X72452418Y-104409771D01*
X72077204Y-104033902D01*
X71586713Y-103830232D01*
X71055617Y-103829769D01*
X70564771Y-104032582D01*
X70188902Y-104407796D01*
X70049909Y-104742527D01*
X69912418Y-104409771D01*
X69537204Y-104033902D01*
X69046713Y-103830232D01*
X68515617Y-103829769D01*
X68024771Y-104032582D01*
X67648902Y-104407796D01*
X67509909Y-104742527D01*
X67372418Y-104409771D01*
X66997204Y-104033902D01*
X66506713Y-103830232D01*
X65975617Y-103829769D01*
X65484771Y-104032582D01*
X65108902Y-104407796D01*
X64969909Y-104742527D01*
X64832418Y-104409771D01*
X64457204Y-104033902D01*
X63966713Y-103830232D01*
X63435617Y-103829769D01*
X62944771Y-104032582D01*
X62568902Y-104407796D01*
X62429909Y-104742527D01*
X62292418Y-104409771D01*
X61917204Y-104033902D01*
X61426713Y-103830232D01*
X60895617Y-103829769D01*
X60404771Y-104032582D01*
X60028902Y-104407796D01*
X59889909Y-104742527D01*
X59752418Y-104409771D01*
X59377204Y-104033902D01*
X59042473Y-103894909D01*
X59375229Y-103757418D01*
X59751098Y-103382204D01*
X59954768Y-102891713D01*
X59955231Y-102360617D01*
X59752418Y-101869771D01*
X59377204Y-101493902D01*
X59042473Y-101354909D01*
X59375229Y-101217418D01*
X59751098Y-100842204D01*
X59954768Y-100351713D01*
X59955231Y-99820617D01*
X59831777Y-99521834D01*
X62364543Y-99521834D01*
X62764853Y-100490658D01*
X63505443Y-101232542D01*
X64473567Y-101634542D01*
X65521834Y-101635457D01*
X66490658Y-101235147D01*
X67232542Y-100494557D01*
X67634542Y-99526433D01*
X67634546Y-99521834D01*
X69864543Y-99521834D01*
X70264853Y-100490658D01*
X71005443Y-101232542D01*
X71973567Y-101634542D01*
X73021834Y-101635457D01*
X73990658Y-101235147D01*
X74732542Y-100494557D01*
X75134542Y-99526433D01*
X75135457Y-98478166D01*
X74735147Y-97509342D01*
X73994557Y-96767458D01*
X73026433Y-96365458D01*
X71978166Y-96364543D01*
X71009342Y-96764853D01*
X70267458Y-97505443D01*
X69865458Y-98473567D01*
X69864543Y-99521834D01*
X67634546Y-99521834D01*
X67635457Y-98478166D01*
X67235147Y-97509342D01*
X66494557Y-96767458D01*
X65526433Y-96365458D01*
X64478166Y-96364543D01*
X63509342Y-96764853D01*
X62767458Y-97505443D01*
X62365458Y-98473567D01*
X62364543Y-99521834D01*
X59831777Y-99521834D01*
X59752418Y-99329771D01*
X59377204Y-98953902D01*
X59042473Y-98814909D01*
X59375229Y-98677418D01*
X59751098Y-98302204D01*
X59954768Y-97811713D01*
X59955231Y-97280617D01*
X59752418Y-96789771D01*
X59377204Y-96413902D01*
X59058788Y-96281684D01*
X59313831Y-96176042D01*
X59375669Y-95940275D01*
X58620000Y-95184605D01*
X57864331Y-95940275D01*
X57926169Y-96176042D01*
X58202111Y-96273196D01*
X57864771Y-96412582D01*
X57488902Y-96787796D01*
X57349909Y-97122527D01*
X57212418Y-96789771D01*
X56837204Y-96413902D01*
X56502473Y-96274909D01*
X56835229Y-96137418D01*
X57211098Y-95762204D01*
X57343316Y-95443788D01*
X57448958Y-95698831D01*
X57684725Y-95760669D01*
X58440395Y-95005000D01*
X58799605Y-95005000D01*
X59555275Y-95760669D01*
X59791042Y-95698831D01*
X59967419Y-95197878D01*
X59938664Y-94667560D01*
X59791042Y-94311169D01*
X59555275Y-94249331D01*
X58799605Y-95005000D01*
X58440395Y-95005000D01*
X57684725Y-94249331D01*
X57448958Y-94311169D01*
X57351804Y-94587111D01*
X57212418Y-94249771D01*
X56837204Y-93873902D01*
X56518788Y-93741684D01*
X56773831Y-93636042D01*
X56835669Y-93400275D01*
X56080000Y-92644605D01*
X55324331Y-93400275D01*
X55386169Y-93636042D01*
X55662111Y-93733196D01*
X55324771Y-93872582D01*
X54948902Y-94247796D01*
X54745232Y-94738287D01*
X54744769Y-95269383D01*
X50710000Y-95269383D01*
X50710000Y-92272122D01*
X54732581Y-92272122D01*
X54761336Y-92802440D01*
X54908958Y-93158831D01*
X55144725Y-93220669D01*
X55900395Y-92465000D01*
X55144725Y-91709331D01*
X54908958Y-91771169D01*
X54732581Y-92272122D01*
X50710000Y-92272122D01*
X50710000Y-90209187D01*
X52064752Y-90209187D01*
X52282757Y-90736800D01*
X52686077Y-91140824D01*
X53213309Y-91359750D01*
X53784187Y-91360248D01*
X54311800Y-91142243D01*
X54394187Y-91060000D01*
X55332193Y-91060000D01*
X55641212Y-91188316D01*
X55386169Y-91293958D01*
X55324331Y-91529725D01*
X56080000Y-92285395D01*
X56835669Y-91529725D01*
X56773831Y-91293958D01*
X56497889Y-91196804D01*
X56835229Y-91057418D01*
X57211098Y-90682204D01*
X57350091Y-90347473D01*
X57487582Y-90680229D01*
X57862796Y-91056098D01*
X58197527Y-91195091D01*
X57864771Y-91332582D01*
X57488902Y-91707796D01*
X57356684Y-92026212D01*
X57251042Y-91771169D01*
X57015275Y-91709331D01*
X56259605Y-92465000D01*
X57015275Y-93220669D01*
X57251042Y-93158831D01*
X57348196Y-92882889D01*
X57487582Y-93220229D01*
X57862796Y-93596098D01*
X58181212Y-93728316D01*
X57926169Y-93833958D01*
X57864331Y-94069725D01*
X58620000Y-94825395D01*
X59375669Y-94069725D01*
X59313831Y-93833958D01*
X59037889Y-93736804D01*
X59375229Y-93597418D01*
X59751098Y-93222204D01*
X59954768Y-92731713D01*
X59955231Y-92200617D01*
X59752418Y-91709771D01*
X59564809Y-91521834D01*
X62364543Y-91521834D01*
X62764853Y-92490658D01*
X63505443Y-93232542D01*
X64473567Y-93634542D01*
X65521834Y-93635457D01*
X66490658Y-93235147D01*
X67232542Y-92494557D01*
X67634542Y-91526433D01*
X67634546Y-91521834D01*
X69864543Y-91521834D01*
X70264853Y-92490658D01*
X71005443Y-93232542D01*
X71973567Y-93634542D01*
X73021834Y-93635457D01*
X73990658Y-93235147D01*
X74732542Y-92494557D01*
X75134542Y-91526433D01*
X75135457Y-90478166D01*
X74735147Y-89509342D01*
X73994557Y-88767458D01*
X73026433Y-88365458D01*
X71978166Y-88364543D01*
X71009342Y-88764853D01*
X70267458Y-89505443D01*
X69865458Y-90473567D01*
X69864543Y-91521834D01*
X67634546Y-91521834D01*
X67635457Y-90478166D01*
X67235147Y-89509342D01*
X66494557Y-88767458D01*
X65526433Y-88365458D01*
X64478166Y-88364543D01*
X63509342Y-88764853D01*
X62767458Y-89505443D01*
X62365458Y-90473567D01*
X62364543Y-91521834D01*
X59564809Y-91521834D01*
X59377204Y-91333902D01*
X59042473Y-91194909D01*
X59375229Y-91057418D01*
X59751098Y-90682204D01*
X59954768Y-90191713D01*
X59955231Y-89660617D01*
X59752418Y-89169771D01*
X59377204Y-88793902D01*
X59042473Y-88654909D01*
X59375229Y-88517418D01*
X59751098Y-88142204D01*
X59954768Y-87651713D01*
X59955168Y-87192122D01*
X77592581Y-87192122D01*
X77621336Y-87722440D01*
X77768958Y-88078831D01*
X78004725Y-88140669D01*
X78760395Y-87385000D01*
X78004725Y-86629331D01*
X77768958Y-86691169D01*
X77592581Y-87192122D01*
X59955168Y-87192122D01*
X59955231Y-87120617D01*
X59752418Y-86629771D01*
X59377204Y-86253902D01*
X59042473Y-86114909D01*
X59375229Y-85977418D01*
X59751098Y-85602204D01*
X59890091Y-85267473D01*
X60027582Y-85600229D01*
X60402796Y-85976098D01*
X60893287Y-86179768D01*
X61424383Y-86180231D01*
X61915229Y-85977418D01*
X62291098Y-85602204D01*
X62430091Y-85267473D01*
X62567582Y-85600229D01*
X62942796Y-85976098D01*
X63433287Y-86179768D01*
X63964383Y-86180231D01*
X64455229Y-85977418D01*
X64831098Y-85602204D01*
X64970091Y-85267473D01*
X65107582Y-85600229D01*
X65482796Y-85976098D01*
X65973287Y-86179768D01*
X66504383Y-86180231D01*
X66995229Y-85977418D01*
X67371098Y-85602204D01*
X67510091Y-85267473D01*
X67647582Y-85600229D01*
X68022796Y-85976098D01*
X68513287Y-86179768D01*
X69044383Y-86180231D01*
X69535229Y-85977418D01*
X69911098Y-85602204D01*
X70050091Y-85267473D01*
X70187582Y-85600229D01*
X70562796Y-85976098D01*
X71053287Y-86179768D01*
X71584383Y-86180231D01*
X72075229Y-85977418D01*
X72451098Y-85602204D01*
X72590091Y-85267473D01*
X72727582Y-85600229D01*
X73102796Y-85976098D01*
X73593287Y-86179768D01*
X74124383Y-86180231D01*
X74615229Y-85977418D01*
X74991098Y-85602204D01*
X75130091Y-85267473D01*
X75267582Y-85600229D01*
X75642796Y-85976098D01*
X76133287Y-86179768D01*
X76664383Y-86180231D01*
X77155229Y-85977418D01*
X77531098Y-85602204D01*
X77670091Y-85267473D01*
X77807582Y-85600229D01*
X78182796Y-85976098D01*
X78501212Y-86108316D01*
X78246169Y-86213958D01*
X78184331Y-86449725D01*
X78940000Y-87205395D01*
X79695669Y-86449725D01*
X79633831Y-86213958D01*
X79357889Y-86116804D01*
X79695229Y-85977418D01*
X80071098Y-85602204D01*
X80210091Y-85267473D01*
X80347582Y-85600229D01*
X80722796Y-85976098D01*
X81057527Y-86115091D01*
X80724771Y-86252582D01*
X80348902Y-86627796D01*
X80216684Y-86946212D01*
X80111042Y-86691169D01*
X79875275Y-86629331D01*
X79119605Y-87385000D01*
X79875275Y-88140669D01*
X80111042Y-88078831D01*
X80208196Y-87802889D01*
X80347582Y-88140229D01*
X80722796Y-88516098D01*
X81041212Y-88648316D01*
X80786169Y-88753958D01*
X80724331Y-88989725D01*
X81480000Y-89745395D01*
X82235669Y-88989725D01*
X82173831Y-88753958D01*
X81897889Y-88656804D01*
X82235229Y-88517418D01*
X82611098Y-88142204D01*
X82814768Y-87651713D01*
X82815231Y-87120617D01*
X82643490Y-86704971D01*
X92964821Y-86704971D01*
X93122058Y-87085515D01*
X93412954Y-87376919D01*
X93793223Y-87534820D01*
X94204971Y-87535179D01*
X94447424Y-87435000D01*
X94499710Y-87435000D01*
X94739560Y-87674850D01*
X94739560Y-88500000D01*
X94788843Y-88747765D01*
X94929191Y-88957809D01*
X94990320Y-88998654D01*
X94848673Y-89140302D01*
X94752000Y-89373691D01*
X94752000Y-89964250D01*
X94910750Y-90123000D01*
X95885000Y-90123000D01*
X95885000Y-90103000D01*
X96139000Y-90103000D01*
X96139000Y-90123000D01*
X97113250Y-90123000D01*
X97272000Y-89964250D01*
X97272000Y-89373691D01*
X97175327Y-89140302D01*
X97033680Y-88998654D01*
X97094809Y-88957809D01*
X97235157Y-88747765D01*
X97282053Y-88512000D01*
X97724838Y-88512000D01*
X97751843Y-88647765D01*
X97892191Y-88857809D01*
X98102235Y-88998157D01*
X98111500Y-89000000D01*
X98102235Y-89001843D01*
X97892191Y-89142191D01*
X97751843Y-89352235D01*
X97702560Y-89600000D01*
X97702560Y-91100000D01*
X97751843Y-91347765D01*
X97892191Y-91557809D01*
X98102235Y-91698157D01*
X98238000Y-91725162D01*
X98238000Y-91798235D01*
X98123081Y-91912954D01*
X97965180Y-92293223D01*
X97964821Y-92704971D01*
X98122058Y-93085515D01*
X98412954Y-93376919D01*
X98793223Y-93534820D01*
X99204971Y-93535179D01*
X99585515Y-93377942D01*
X99876919Y-93087046D01*
X100034820Y-92706777D01*
X100035179Y-92295029D01*
X99877942Y-91914485D01*
X99762000Y-91798341D01*
X99762000Y-91725162D01*
X99897765Y-91698157D01*
X100107809Y-91557809D01*
X100248157Y-91347765D01*
X100297440Y-91100000D01*
X100297440Y-89600000D01*
X100248157Y-89352235D01*
X100107809Y-89142191D01*
X99897765Y-89001843D01*
X99888500Y-89000000D01*
X99897765Y-88998157D01*
X100107809Y-88857809D01*
X100248157Y-88647765D01*
X100297440Y-88400000D01*
X100297440Y-87485750D01*
X113915000Y-87485750D01*
X113915000Y-87951310D01*
X114011673Y-88184699D01*
X114190302Y-88363327D01*
X114423691Y-88460000D01*
X115014250Y-88460000D01*
X115173000Y-88301250D01*
X115173000Y-87327000D01*
X114073750Y-87327000D01*
X113915000Y-87485750D01*
X100297440Y-87485750D01*
X100297440Y-86900000D01*
X100248157Y-86652235D01*
X100112152Y-86448690D01*
X113915000Y-86448690D01*
X113915000Y-86914250D01*
X114073750Y-87073000D01*
X115173000Y-87073000D01*
X115173000Y-86098750D01*
X115427000Y-86098750D01*
X115427000Y-87073000D01*
X115447000Y-87073000D01*
X115447000Y-87327000D01*
X115427000Y-87327000D01*
X115427000Y-88301250D01*
X115585750Y-88460000D01*
X116176309Y-88460000D01*
X116409698Y-88363327D01*
X116551346Y-88221680D01*
X116592191Y-88282809D01*
X116802235Y-88423157D01*
X117050000Y-88472440D01*
X118550000Y-88472440D01*
X118797765Y-88423157D01*
X118862354Y-88380000D01*
X119596000Y-88380000D01*
X120030346Y-88293603D01*
X120398566Y-88047566D01*
X120644603Y-87679346D01*
X120731000Y-87245000D01*
X120644603Y-86810654D01*
X120398566Y-86442434D01*
X120030346Y-86196397D01*
X119596000Y-86110000D01*
X118997047Y-86110000D01*
X118797765Y-85976843D01*
X118550000Y-85927560D01*
X117050000Y-85927560D01*
X116802235Y-85976843D01*
X116592191Y-86117191D01*
X116551346Y-86178320D01*
X116409698Y-86036673D01*
X116176309Y-85940000D01*
X115585750Y-85940000D01*
X115427000Y-86098750D01*
X115173000Y-86098750D01*
X115014250Y-85940000D01*
X114423691Y-85940000D01*
X114190302Y-86036673D01*
X114011673Y-86215301D01*
X113915000Y-86448690D01*
X100112152Y-86448690D01*
X100107809Y-86442191D01*
X99897765Y-86301843D01*
X99650000Y-86252560D01*
X98350000Y-86252560D01*
X98102235Y-86301843D01*
X97892191Y-86442191D01*
X97751843Y-86652235D01*
X97702560Y-86900000D01*
X97702560Y-86988000D01*
X97282053Y-86988000D01*
X97235157Y-86752235D01*
X97094809Y-86542191D01*
X96884765Y-86401843D01*
X96637000Y-86352560D01*
X96061850Y-86352560D01*
X95548145Y-85838855D01*
X95244809Y-85636173D01*
X94887000Y-85565000D01*
X94447171Y-85565000D01*
X94206777Y-85465180D01*
X93795029Y-85464821D01*
X93414485Y-85622058D01*
X93123081Y-85912954D01*
X92965180Y-86293223D01*
X92964821Y-86704971D01*
X82643490Y-86704971D01*
X82612418Y-86629771D01*
X82237204Y-86253902D01*
X81902473Y-86114909D01*
X82235229Y-85977418D01*
X82611098Y-85602204D01*
X82814768Y-85111713D01*
X82815231Y-84580617D01*
X82612418Y-84089771D01*
X82237204Y-83713902D01*
X81746713Y-83510232D01*
X81215617Y-83509769D01*
X80724771Y-83712582D01*
X80348902Y-84087796D01*
X80209909Y-84422527D01*
X80072418Y-84089771D01*
X79697204Y-83713902D01*
X79362473Y-83574909D01*
X79695229Y-83437418D01*
X80071098Y-83062204D01*
X80274768Y-82571713D01*
X80275231Y-82040617D01*
X80072418Y-81549771D01*
X79697204Y-81173902D01*
X79352457Y-81030750D01*
X115785000Y-81030750D01*
X115785000Y-81621309D01*
X115881673Y-81854698D01*
X116060301Y-82033327D01*
X116293690Y-82130000D01*
X116759250Y-82130000D01*
X116918000Y-81971250D01*
X116918000Y-80872000D01*
X117172000Y-80872000D01*
X117172000Y-81971250D01*
X117330750Y-82130000D01*
X117796310Y-82130000D01*
X118029699Y-82033327D01*
X118208327Y-81854698D01*
X118305000Y-81621309D01*
X118305000Y-81030750D01*
X118146250Y-80872000D01*
X117172000Y-80872000D01*
X116918000Y-80872000D01*
X115943750Y-80872000D01*
X115785000Y-81030750D01*
X79352457Y-81030750D01*
X79206713Y-80970232D01*
X78675617Y-80969769D01*
X78184771Y-81172582D01*
X77808902Y-81547796D01*
X77669909Y-81882527D01*
X77532418Y-81549771D01*
X77157204Y-81173902D01*
X76666713Y-80970232D01*
X76135617Y-80969769D01*
X75644771Y-81172582D01*
X75268902Y-81547796D01*
X75129909Y-81882527D01*
X74992418Y-81549771D01*
X74617204Y-81173902D01*
X74126713Y-80970232D01*
X73595617Y-80969769D01*
X73104771Y-81172582D01*
X72728902Y-81547796D01*
X72589909Y-81882527D01*
X72452418Y-81549771D01*
X72077204Y-81173902D01*
X71586713Y-80970232D01*
X71055617Y-80969769D01*
X70564771Y-81172582D01*
X70188902Y-81547796D01*
X70049909Y-81882527D01*
X69912418Y-81549771D01*
X69537204Y-81173902D01*
X69046713Y-80970232D01*
X68515617Y-80969769D01*
X68024771Y-81172582D01*
X67648902Y-81547796D01*
X67509909Y-81882527D01*
X67372418Y-81549771D01*
X66997204Y-81173902D01*
X66506713Y-80970232D01*
X65975617Y-80969769D01*
X65484771Y-81172582D01*
X65108902Y-81547796D01*
X64969909Y-81882527D01*
X64832418Y-81549771D01*
X64457204Y-81173902D01*
X63966713Y-80970232D01*
X63435617Y-80969769D01*
X62944771Y-81172582D01*
X62568902Y-81547796D01*
X62429909Y-81882527D01*
X62292418Y-81549771D01*
X61917204Y-81173902D01*
X61426713Y-80970232D01*
X60895617Y-80969769D01*
X60404771Y-81172582D01*
X60028902Y-81547796D01*
X59889909Y-81882527D01*
X59752418Y-81549771D01*
X59377204Y-81173902D01*
X58886713Y-80970232D01*
X58355617Y-80969769D01*
X57864771Y-81172582D01*
X57488902Y-81547796D01*
X57285232Y-82038287D01*
X57284769Y-82569383D01*
X57487582Y-83060229D01*
X57862796Y-83436098D01*
X58197527Y-83575091D01*
X57864771Y-83712582D01*
X57488902Y-84087796D01*
X57349909Y-84422527D01*
X57212418Y-84089771D01*
X56842000Y-83718706D01*
X56842000Y-79787750D01*
X86539000Y-79787750D01*
X86539000Y-80253310D01*
X86635673Y-80486699D01*
X86814302Y-80665327D01*
X87047691Y-80762000D01*
X87638250Y-80762000D01*
X87797000Y-80603250D01*
X87797000Y-79629000D01*
X86697750Y-79629000D01*
X86539000Y-79787750D01*
X56842000Y-79787750D01*
X56842000Y-78750690D01*
X86539000Y-78750690D01*
X86539000Y-79216250D01*
X86697750Y-79375000D01*
X87797000Y-79375000D01*
X87797000Y-78400750D01*
X87638250Y-78242000D01*
X87047691Y-78242000D01*
X86814302Y-78338673D01*
X86635673Y-78517301D01*
X86539000Y-78750690D01*
X56842000Y-78750690D01*
X56842000Y-76204971D01*
X86964821Y-76204971D01*
X87122058Y-76585515D01*
X87412954Y-76876919D01*
X87793223Y-77034820D01*
X88204971Y-77035179D01*
X88585515Y-76877942D01*
X88701659Y-76762000D01*
X89774299Y-76762000D01*
X89623081Y-76912954D01*
X89465180Y-77293223D01*
X89464821Y-77704971D01*
X89622058Y-78085515D01*
X89665000Y-78128532D01*
X89665000Y-78231350D01*
X89426235Y-78278843D01*
X89216191Y-78419191D01*
X89175346Y-78480320D01*
X89033698Y-78338673D01*
X88800309Y-78242000D01*
X88209750Y-78242000D01*
X88051000Y-78400750D01*
X88051000Y-79375000D01*
X88071000Y-79375000D01*
X88071000Y-79629000D01*
X88051000Y-79629000D01*
X88051000Y-80603250D01*
X88209750Y-80762000D01*
X88800309Y-80762000D01*
X89033698Y-80665327D01*
X89175346Y-80523680D01*
X89216191Y-80584809D01*
X89426235Y-80725157D01*
X89674000Y-80774440D01*
X91174000Y-80774440D01*
X91421765Y-80725157D01*
X91631809Y-80584809D01*
X91772157Y-80374765D01*
X91821440Y-80127000D01*
X91821440Y-78877000D01*
X91772157Y-78629235D01*
X91631809Y-78419191D01*
X91421765Y-78278843D01*
X91335000Y-78261585D01*
X91335000Y-78128892D01*
X91376919Y-78087046D01*
X91534820Y-77706777D01*
X91535179Y-77295029D01*
X91395315Y-76956531D01*
X91585515Y-76877942D01*
X91876919Y-76587046D01*
X92034820Y-76206777D01*
X92035179Y-75795029D01*
X91877942Y-75414485D01*
X91587046Y-75123081D01*
X91206777Y-74965180D01*
X90795029Y-74964821D01*
X90414485Y-75122058D01*
X90298341Y-75238000D01*
X88701765Y-75238000D01*
X88587046Y-75123081D01*
X88206777Y-74965180D01*
X87795029Y-74964821D01*
X87414485Y-75122058D01*
X87123081Y-75412954D01*
X86965180Y-75793223D01*
X86964821Y-76204971D01*
X56842000Y-76204971D01*
X56842000Y-71561765D01*
X56956919Y-71447046D01*
X57114820Y-71066777D01*
X57115179Y-70655029D01*
X57110519Y-70643750D01*
X86539000Y-70643750D01*
X86539000Y-71109310D01*
X86635673Y-71342699D01*
X86814302Y-71521327D01*
X87047691Y-71618000D01*
X87638250Y-71618000D01*
X87797000Y-71459250D01*
X87797000Y-70485000D01*
X86697750Y-70485000D01*
X86539000Y-70643750D01*
X57110519Y-70643750D01*
X56957942Y-70274485D01*
X56667046Y-69983081D01*
X56286777Y-69825180D01*
X55875029Y-69824821D01*
X55494485Y-69982058D01*
X55203081Y-70272954D01*
X55045180Y-70653223D01*
X55044821Y-71064971D01*
X55202058Y-71445515D01*
X55318000Y-71561659D01*
X55318000Y-83719341D01*
X54948902Y-84087796D01*
X54745232Y-84578287D01*
X54744769Y-85109383D01*
X54947582Y-85600229D01*
X55322796Y-85976098D01*
X55657527Y-86115091D01*
X55324771Y-86252582D01*
X54948902Y-86627796D01*
X54745232Y-87118287D01*
X54744769Y-87649383D01*
X54947582Y-88140229D01*
X55322796Y-88516098D01*
X55657527Y-88655091D01*
X55331020Y-88790000D01*
X54394606Y-88790000D01*
X54313923Y-88709176D01*
X53786691Y-88490250D01*
X53215813Y-88489752D01*
X52688200Y-88707757D01*
X52284176Y-89111077D01*
X52065250Y-89638309D01*
X52064752Y-90209187D01*
X50710000Y-90209187D01*
X50710000Y-69606690D01*
X86539000Y-69606690D01*
X86539000Y-70072250D01*
X86697750Y-70231000D01*
X87797000Y-70231000D01*
X87797000Y-69256750D01*
X87638250Y-69098000D01*
X87047691Y-69098000D01*
X86814302Y-69194673D01*
X86635673Y-69373301D01*
X86539000Y-69606690D01*
X50710000Y-69606690D01*
X50710000Y-67704971D01*
X86959821Y-67704971D01*
X87117058Y-68085515D01*
X87407954Y-68376919D01*
X87788223Y-68534820D01*
X88199971Y-68535179D01*
X88580515Y-68377942D01*
X88696659Y-68262000D01*
X89478145Y-68262000D01*
X89465180Y-68293223D01*
X89464821Y-68704971D01*
X89622058Y-69085515D01*
X89630701Y-69094173D01*
X89426235Y-69134843D01*
X89216191Y-69275191D01*
X89175346Y-69336320D01*
X89033698Y-69194673D01*
X88800309Y-69098000D01*
X88209750Y-69098000D01*
X88051000Y-69256750D01*
X88051000Y-70231000D01*
X88071000Y-70231000D01*
X88071000Y-70485000D01*
X88051000Y-70485000D01*
X88051000Y-71459250D01*
X88209750Y-71618000D01*
X88800309Y-71618000D01*
X89033698Y-71521327D01*
X89175346Y-71379680D01*
X89216191Y-71440809D01*
X89426235Y-71581157D01*
X89674000Y-71630440D01*
X91174000Y-71630440D01*
X91421765Y-71581157D01*
X91631809Y-71440809D01*
X91772157Y-71230765D01*
X91821440Y-70983000D01*
X91821440Y-69733000D01*
X91772157Y-69485235D01*
X91631809Y-69275191D01*
X91421765Y-69134843D01*
X91344445Y-69119463D01*
X91376919Y-69087046D01*
X91534820Y-68706777D01*
X91535179Y-68295029D01*
X91453005Y-68096152D01*
X91538815Y-68038815D01*
X91542593Y-68035037D01*
X91704971Y-68035179D01*
X92085515Y-67877942D01*
X92376919Y-67587046D01*
X92534820Y-67206777D01*
X92535179Y-66795029D01*
X92447663Y-66583222D01*
X110180052Y-66583222D01*
X110398057Y-67110835D01*
X110480300Y-67193222D01*
X110480300Y-72690300D01*
X110566697Y-73124646D01*
X110799460Y-73473000D01*
X110812734Y-73492866D01*
X115772560Y-78452692D01*
X115772560Y-78995000D01*
X115821843Y-79242765D01*
X115962191Y-79452809D01*
X116023320Y-79493654D01*
X115881673Y-79635302D01*
X115785000Y-79868691D01*
X115785000Y-80459250D01*
X115943750Y-80618000D01*
X116918000Y-80618000D01*
X116918000Y-80598000D01*
X117172000Y-80598000D01*
X117172000Y-80618000D01*
X118146250Y-80618000D01*
X118305000Y-80459250D01*
X118305000Y-79868691D01*
X118208327Y-79635302D01*
X118066680Y-79493654D01*
X118127809Y-79452809D01*
X118176459Y-79380000D01*
X118860999Y-79380000D01*
X118860999Y-80095999D01*
X118947396Y-80530345D01*
X119175683Y-80872000D01*
X119193433Y-80898565D01*
X124170000Y-85875132D01*
X124170000Y-91911132D01*
X124154947Y-91874701D01*
X123864051Y-91583297D01*
X123483782Y-91425396D01*
X123350134Y-91425279D01*
X123236430Y-91150094D01*
X123149263Y-91062775D01*
X123337060Y-90875306D01*
X123494961Y-90495037D01*
X123495320Y-90083289D01*
X123338083Y-89702745D01*
X123047187Y-89411341D01*
X122666918Y-89253440D01*
X122255170Y-89253081D01*
X121874626Y-89410318D01*
X121583222Y-89701214D01*
X121425321Y-90081483D01*
X121425178Y-90245592D01*
X121053150Y-90617621D01*
X120569187Y-90617621D01*
X120454468Y-90502702D01*
X120074199Y-90344801D01*
X119662451Y-90344442D01*
X119281907Y-90501679D01*
X118990503Y-90792575D01*
X118832602Y-91172844D01*
X118832243Y-91584592D01*
X118984078Y-91952063D01*
X118923081Y-92012954D01*
X118765180Y-92393223D01*
X118764821Y-92804971D01*
X118822226Y-92943902D01*
X118707238Y-93058690D01*
X118549337Y-93438959D01*
X118548978Y-93850707D01*
X118706215Y-94231251D01*
X118997111Y-94522655D01*
X119364778Y-94675323D01*
X119002434Y-94917434D01*
X118756397Y-95285654D01*
X118670000Y-95720000D01*
X118756397Y-96154346D01*
X119002434Y-96522566D01*
X119370654Y-96768603D01*
X119805000Y-96855000D01*
X120248446Y-96855000D01*
X120276843Y-96997765D01*
X120417191Y-97207809D01*
X120478320Y-97248654D01*
X120336673Y-97390302D01*
X120240000Y-97623691D01*
X120240000Y-98214250D01*
X120398750Y-98373000D01*
X121373000Y-98373000D01*
X121373000Y-98353000D01*
X121627000Y-98353000D01*
X121627000Y-98373000D01*
X122601250Y-98373000D01*
X122760000Y-98214250D01*
X122760000Y-97623691D01*
X122663327Y-97390302D01*
X122521680Y-97248654D01*
X122582809Y-97207809D01*
X122723157Y-96997765D01*
X122772440Y-96750000D01*
X122772440Y-95250000D01*
X122723157Y-95002235D01*
X122582809Y-94792191D01*
X122372765Y-94651843D01*
X122125000Y-94602560D01*
X121308280Y-94602560D01*
X121220000Y-94585000D01*
X120021261Y-94585000D01*
X120169672Y-94523678D01*
X120285816Y-94407736D01*
X122091485Y-94407736D01*
X122383090Y-94349732D01*
X122630300Y-94184551D01*
X123319598Y-93495253D01*
X123481976Y-93495395D01*
X123862520Y-93338158D01*
X124153924Y-93047262D01*
X124170000Y-93008547D01*
X124170000Y-95974000D01*
X124256397Y-96408346D01*
X124502434Y-96776566D01*
X124870654Y-97022603D01*
X125305000Y-97109000D01*
X125651168Y-97109000D01*
X125717191Y-97207809D01*
X125778320Y-97248654D01*
X125636673Y-97390302D01*
X125540000Y-97623691D01*
X125540000Y-98214250D01*
X125698750Y-98373000D01*
X126673000Y-98373000D01*
X126673000Y-98353000D01*
X126927000Y-98353000D01*
X126927000Y-98373000D01*
X127901250Y-98373000D01*
X128060000Y-98214250D01*
X128060000Y-97623691D01*
X127963327Y-97390302D01*
X127821680Y-97248654D01*
X127882809Y-97207809D01*
X128023157Y-96997765D01*
X128072440Y-96750000D01*
X128072440Y-95974000D01*
X128670000Y-95974000D01*
X128756397Y-96408346D01*
X129002434Y-96776566D01*
X129370654Y-97022603D01*
X129805000Y-97109000D01*
X130084350Y-97109000D01*
X130217191Y-97307809D01*
X130278320Y-97348654D01*
X130136673Y-97490302D01*
X130040000Y-97723691D01*
X130040000Y-98314250D01*
X130198750Y-98473000D01*
X131173000Y-98473000D01*
X131173000Y-98453000D01*
X131427000Y-98453000D01*
X131427000Y-98473000D01*
X132401250Y-98473000D01*
X132560000Y-98314250D01*
X132560000Y-97723691D01*
X132463327Y-97490302D01*
X132321680Y-97348654D01*
X132382809Y-97307809D01*
X132523157Y-97097765D01*
X132572440Y-96850000D01*
X132572440Y-95350000D01*
X132523157Y-95102235D01*
X132382809Y-94892191D01*
X132172765Y-94751843D01*
X131925000Y-94702560D01*
X130675000Y-94702560D01*
X130427235Y-94751843D01*
X130296796Y-94839000D01*
X129805000Y-94839000D01*
X129370654Y-94925397D01*
X129002434Y-95171434D01*
X128756397Y-95539654D01*
X128670000Y-95974000D01*
X128072440Y-95974000D01*
X128072440Y-95250000D01*
X128023157Y-95002235D01*
X127882809Y-94792191D01*
X127672765Y-94651843D01*
X127425000Y-94602560D01*
X126440000Y-94602560D01*
X126440000Y-92104971D01*
X134964821Y-92104971D01*
X135122058Y-92485515D01*
X135412954Y-92776919D01*
X135793223Y-92934820D01*
X136204971Y-92935179D01*
X136210974Y-92932699D01*
X136202560Y-92975000D01*
X136202560Y-94225000D01*
X136251843Y-94472765D01*
X136392191Y-94682809D01*
X136495000Y-94751504D01*
X136495000Y-95745000D01*
X136581397Y-96179346D01*
X136827434Y-96547566D01*
X136939449Y-96622412D01*
X137036366Y-96767458D01*
X137091185Y-96849500D01*
X141110500Y-100868816D01*
X141258692Y-100967834D01*
X141357710Y-101033996D01*
X141649315Y-101092000D01*
X141971688Y-101092000D01*
X142170585Y-101389670D01*
X142480069Y-101596461D01*
X142064268Y-101967964D01*
X141810291Y-102495209D01*
X141807642Y-102510974D01*
X141928783Y-102743000D01*
X143288000Y-102743000D01*
X143288000Y-102723000D01*
X143542000Y-102723000D01*
X143542000Y-102743000D01*
X144901217Y-102743000D01*
X145022358Y-102510974D01*
X145019709Y-102495209D01*
X144765732Y-101967964D01*
X144349931Y-101596461D01*
X144659415Y-101389670D01*
X144984271Y-100903489D01*
X145098345Y-100330000D01*
X144984271Y-99756511D01*
X144659415Y-99270330D01*
X144173234Y-98945474D01*
X143599745Y-98831400D01*
X143230255Y-98831400D01*
X142656766Y-98945474D01*
X142170585Y-99270330D01*
X141971688Y-99568000D01*
X141964946Y-99568000D01*
X138637623Y-96240677D01*
X138678603Y-96179346D01*
X138765000Y-95745000D01*
X138765000Y-94711413D01*
X138807809Y-94682809D01*
X138848654Y-94621680D01*
X138990302Y-94763327D01*
X139223691Y-94860000D01*
X139814250Y-94860000D01*
X139973000Y-94701250D01*
X139973000Y-93727000D01*
X140227000Y-93727000D01*
X140227000Y-94701250D01*
X140385750Y-94860000D01*
X140976309Y-94860000D01*
X141209698Y-94763327D01*
X141388327Y-94584699D01*
X141485000Y-94351310D01*
X141485000Y-93885750D01*
X141326250Y-93727000D01*
X140227000Y-93727000D01*
X139973000Y-93727000D01*
X139953000Y-93727000D01*
X139953000Y-93473000D01*
X139973000Y-93473000D01*
X139973000Y-93453000D01*
X140227000Y-93453000D01*
X140227000Y-93473000D01*
X141326250Y-93473000D01*
X141485000Y-93314250D01*
X141485000Y-92848690D01*
X141407670Y-92662000D01*
X141707084Y-92662000D01*
X141707034Y-92718798D01*
X141864271Y-93099342D01*
X142155167Y-93390746D01*
X142535436Y-93548647D01*
X142947184Y-93549006D01*
X143327728Y-93391769D01*
X143619132Y-93100873D01*
X143769747Y-92738150D01*
X143903556Y-92738267D01*
X143858655Y-92964000D01*
X143972729Y-93537489D01*
X144297585Y-94023670D01*
X144612366Y-94234000D01*
X144297585Y-94444330D01*
X143972729Y-94930511D01*
X143858655Y-95504000D01*
X143972729Y-96077489D01*
X144297585Y-96563670D01*
X144783766Y-96888526D01*
X145357255Y-97002600D01*
X145726745Y-97002600D01*
X146300234Y-96888526D01*
X146786415Y-96563670D01*
X147111271Y-96077489D01*
X147225345Y-95504000D01*
X147111271Y-94930511D01*
X146786415Y-94444330D01*
X146471634Y-94234000D01*
X146786415Y-94023670D01*
X147111271Y-93537489D01*
X147225345Y-92964000D01*
X147111271Y-92390511D01*
X146786415Y-91904330D01*
X146471634Y-91694000D01*
X146786415Y-91483670D01*
X147111271Y-90997489D01*
X147225345Y-90424000D01*
X147111271Y-89850511D01*
X146786415Y-89364330D01*
X146471634Y-89154000D01*
X146786415Y-88943670D01*
X147111271Y-88457489D01*
X147225345Y-87884000D01*
X147111271Y-87310511D01*
X146786415Y-86824330D01*
X146471634Y-86614000D01*
X146786415Y-86403670D01*
X147111271Y-85917489D01*
X147225345Y-85344000D01*
X147111271Y-84770511D01*
X146786415Y-84284330D01*
X146471634Y-84074000D01*
X146786415Y-83863670D01*
X147111271Y-83377489D01*
X147225345Y-82804000D01*
X147111271Y-82230511D01*
X146786415Y-81744330D01*
X146300234Y-81419474D01*
X145726745Y-81305400D01*
X145357255Y-81305400D01*
X144783766Y-81419474D01*
X144297585Y-81744330D01*
X143972729Y-82230511D01*
X143858655Y-82804000D01*
X143972729Y-83377489D01*
X144297585Y-83863670D01*
X144612366Y-84074000D01*
X144297585Y-84284330D01*
X143972729Y-84770511D01*
X143858655Y-85344000D01*
X143972729Y-85917489D01*
X144297585Y-86403670D01*
X144612366Y-86614000D01*
X144297585Y-86824330D01*
X143972729Y-87310511D01*
X143858655Y-87884000D01*
X143972729Y-88457489D01*
X144297585Y-88943670D01*
X144612366Y-89154000D01*
X144297585Y-89364330D01*
X143972729Y-89850511D01*
X143858655Y-90424000D01*
X143907243Y-90668270D01*
X143804279Y-90668180D01*
X143597283Y-90461185D01*
X143541632Y-90424000D01*
X143350073Y-90296004D01*
X143058468Y-90238000D01*
X142062555Y-90238000D01*
X142062769Y-89992397D01*
X141905532Y-89611853D01*
X141614636Y-89320449D01*
X141234367Y-89162548D01*
X141070257Y-89162405D01*
X141069037Y-89161185D01*
X141048466Y-89147440D01*
X140821827Y-88996004D01*
X140530222Y-88938000D01*
X137801765Y-88938000D01*
X137687046Y-88823081D01*
X137306777Y-88665180D01*
X136895029Y-88664821D01*
X136514485Y-88822058D01*
X136223081Y-89112954D01*
X136065180Y-89493223D01*
X136064821Y-89904971D01*
X136222058Y-90285515D01*
X136401399Y-90465169D01*
X136265180Y-90793223D01*
X136265096Y-90889396D01*
X136206777Y-90865180D01*
X135795029Y-90864821D01*
X135414485Y-91022058D01*
X135123081Y-91312954D01*
X134965180Y-91693223D01*
X134964821Y-92104971D01*
X126440000Y-92104971D01*
X126440000Y-86745000D01*
X136495000Y-86745000D01*
X136581397Y-87179346D01*
X136827434Y-87547566D01*
X137195654Y-87793603D01*
X137630000Y-87880000D01*
X138337646Y-87880000D01*
X138402235Y-87923157D01*
X138650000Y-87972440D01*
X140150000Y-87972440D01*
X140397765Y-87923157D01*
X140607809Y-87782809D01*
X140648654Y-87721680D01*
X140790302Y-87863327D01*
X141023691Y-87960000D01*
X141614250Y-87960000D01*
X141773000Y-87801250D01*
X141773000Y-86827000D01*
X142027000Y-86827000D01*
X142027000Y-87801250D01*
X142185750Y-87960000D01*
X142776309Y-87960000D01*
X143009698Y-87863327D01*
X143188327Y-87684699D01*
X143285000Y-87451310D01*
X143285000Y-86985750D01*
X143126250Y-86827000D01*
X142027000Y-86827000D01*
X141773000Y-86827000D01*
X141753000Y-86827000D01*
X141753000Y-86573000D01*
X141773000Y-86573000D01*
X141773000Y-85598750D01*
X142027000Y-85598750D01*
X142027000Y-86573000D01*
X143126250Y-86573000D01*
X143285000Y-86414250D01*
X143285000Y-85948690D01*
X143188327Y-85715301D01*
X143009698Y-85536673D01*
X142776309Y-85440000D01*
X142185750Y-85440000D01*
X142027000Y-85598750D01*
X141773000Y-85598750D01*
X141614250Y-85440000D01*
X141023691Y-85440000D01*
X140790302Y-85536673D01*
X140648654Y-85678320D01*
X140607809Y-85617191D01*
X140397765Y-85476843D01*
X140150000Y-85427560D01*
X138650000Y-85427560D01*
X138402235Y-85476843D01*
X138202953Y-85610000D01*
X137630000Y-85610000D01*
X137195654Y-85696397D01*
X136827434Y-85942434D01*
X136581397Y-86310654D01*
X136495000Y-86745000D01*
X126440000Y-86745000D01*
X126440000Y-86540000D01*
X129840000Y-86540000D01*
X130274346Y-86453603D01*
X130642566Y-86207566D01*
X136617201Y-80232931D01*
X136827434Y-80547566D01*
X137195654Y-80793603D01*
X137630000Y-80880000D01*
X138190314Y-80880000D01*
X138192191Y-80882809D01*
X138402235Y-81023157D01*
X138650000Y-81072440D01*
X140150000Y-81072440D01*
X140397765Y-81023157D01*
X140607809Y-80882809D01*
X140648654Y-80821680D01*
X140790302Y-80963327D01*
X141023691Y-81060000D01*
X141614250Y-81060000D01*
X141773000Y-80901250D01*
X141773000Y-79927000D01*
X142027000Y-79927000D01*
X142027000Y-80901250D01*
X142185750Y-81060000D01*
X142776309Y-81060000D01*
X143009698Y-80963327D01*
X143188327Y-80784699D01*
X143285000Y-80551310D01*
X143285000Y-80085750D01*
X143126250Y-79927000D01*
X142027000Y-79927000D01*
X141773000Y-79927000D01*
X141753000Y-79927000D01*
X141753000Y-79673000D01*
X141773000Y-79673000D01*
X141773000Y-78698750D01*
X142027000Y-78698750D01*
X142027000Y-79673000D01*
X143126250Y-79673000D01*
X143285000Y-79514250D01*
X143285000Y-79048690D01*
X143188327Y-78815301D01*
X143009698Y-78636673D01*
X142776309Y-78540000D01*
X142185750Y-78540000D01*
X142027000Y-78698750D01*
X141773000Y-78698750D01*
X141614250Y-78540000D01*
X141023691Y-78540000D01*
X140790302Y-78636673D01*
X140648654Y-78778320D01*
X140607809Y-78717191D01*
X140397765Y-78576843D01*
X140150000Y-78527560D01*
X138650000Y-78527560D01*
X138402235Y-78576843D01*
X138352612Y-78610000D01*
X138196144Y-78610000D01*
X138353603Y-78374346D01*
X138440000Y-77940000D01*
X138440000Y-77222217D01*
X138523157Y-77097765D01*
X138572440Y-76850000D01*
X138572440Y-75350000D01*
X138523157Y-75102235D01*
X138382809Y-74892191D01*
X138321680Y-74851346D01*
X138463327Y-74709698D01*
X138560000Y-74476309D01*
X138560000Y-73885750D01*
X138401250Y-73727000D01*
X137427000Y-73727000D01*
X137427000Y-73747000D01*
X137173000Y-73747000D01*
X137173000Y-73727000D01*
X136198750Y-73727000D01*
X136040000Y-73885750D01*
X136040000Y-74476309D01*
X136136673Y-74709698D01*
X136278320Y-74851346D01*
X136217191Y-74892191D01*
X136076843Y-75102235D01*
X136027560Y-75350000D01*
X136027560Y-76850000D01*
X136076843Y-77097765D01*
X136170000Y-77237183D01*
X136170000Y-77469868D01*
X129369868Y-84270000D01*
X125775132Y-84270000D01*
X121840254Y-80335122D01*
X121984187Y-80335248D01*
X122511800Y-80117243D01*
X122915824Y-79713923D01*
X123134750Y-79186691D01*
X123135248Y-78615813D01*
X122917243Y-78088200D01*
X122835000Y-78005813D01*
X122835000Y-77940000D01*
X123170000Y-77940000D01*
X123256397Y-78374345D01*
X123502434Y-78742566D01*
X123870655Y-78988603D01*
X124305000Y-79075000D01*
X124739345Y-78988603D01*
X125107566Y-78742566D01*
X126152692Y-77697440D01*
X126425000Y-77697440D01*
X126672765Y-77648157D01*
X126882809Y-77507809D01*
X127023157Y-77297765D01*
X127072440Y-77050000D01*
X127072440Y-75550000D01*
X127032658Y-75350000D01*
X132527560Y-75350000D01*
X132527560Y-76850000D01*
X132576843Y-77097765D01*
X132670000Y-77237183D01*
X132670000Y-77940000D01*
X132756397Y-78374346D01*
X133002434Y-78742566D01*
X133370654Y-78988603D01*
X133805000Y-79075000D01*
X134239346Y-78988603D01*
X134607566Y-78742566D01*
X134853603Y-78374346D01*
X134940000Y-77940000D01*
X134940000Y-77222217D01*
X135023157Y-77097765D01*
X135072440Y-76850000D01*
X135072440Y-75350000D01*
X135023157Y-75102235D01*
X134882809Y-74892191D01*
X134821680Y-74851346D01*
X134963327Y-74709698D01*
X135060000Y-74476309D01*
X135060000Y-73885750D01*
X134901250Y-73727000D01*
X133927000Y-73727000D01*
X133927000Y-73747000D01*
X133673000Y-73747000D01*
X133673000Y-73727000D01*
X132698750Y-73727000D01*
X132540000Y-73885750D01*
X132540000Y-74476309D01*
X132636673Y-74709698D01*
X132778320Y-74851346D01*
X132717191Y-74892191D01*
X132576843Y-75102235D01*
X132527560Y-75350000D01*
X127032658Y-75350000D01*
X127023157Y-75302235D01*
X126882809Y-75092191D01*
X126821680Y-75051346D01*
X126963327Y-74909698D01*
X127060000Y-74676309D01*
X127060000Y-74085750D01*
X126901250Y-73927000D01*
X125927000Y-73927000D01*
X125927000Y-73947000D01*
X125673000Y-73947000D01*
X125673000Y-73927000D01*
X124698750Y-73927000D01*
X124540000Y-74085750D01*
X124540000Y-74676309D01*
X124636673Y-74909698D01*
X124778320Y-75051346D01*
X124717191Y-75092191D01*
X124576843Y-75302235D01*
X124527560Y-75550000D01*
X124527560Y-76112308D01*
X123502434Y-77137434D01*
X123256397Y-77505655D01*
X123170000Y-77940000D01*
X122835000Y-77940000D01*
X122835000Y-77768630D01*
X122748603Y-77334284D01*
X122502566Y-76966064D01*
X121233936Y-75697434D01*
X121151623Y-75642434D01*
X120865716Y-75451397D01*
X120431370Y-75365000D01*
X118692245Y-75365000D01*
X116250936Y-72923691D01*
X124540000Y-72923691D01*
X124540000Y-73514250D01*
X124698750Y-73673000D01*
X125673000Y-73673000D01*
X125673000Y-72573750D01*
X125927000Y-72573750D01*
X125927000Y-73673000D01*
X126901250Y-73673000D01*
X127060000Y-73514250D01*
X127060000Y-72923691D01*
X126977158Y-72723691D01*
X132540000Y-72723691D01*
X132540000Y-73314250D01*
X132698750Y-73473000D01*
X133673000Y-73473000D01*
X133673000Y-72373750D01*
X133927000Y-72373750D01*
X133927000Y-73473000D01*
X134901250Y-73473000D01*
X135060000Y-73314250D01*
X135060000Y-72723691D01*
X136040000Y-72723691D01*
X136040000Y-73314250D01*
X136198750Y-73473000D01*
X137173000Y-73473000D01*
X137173000Y-72373750D01*
X137427000Y-72373750D01*
X137427000Y-73473000D01*
X138401250Y-73473000D01*
X138560000Y-73314250D01*
X138560000Y-72723691D01*
X138463327Y-72490302D01*
X138284699Y-72311673D01*
X138051310Y-72215000D01*
X137585750Y-72215000D01*
X137427000Y-72373750D01*
X137173000Y-72373750D01*
X137014250Y-72215000D01*
X136548690Y-72215000D01*
X136315301Y-72311673D01*
X136136673Y-72490302D01*
X136040000Y-72723691D01*
X135060000Y-72723691D01*
X134963327Y-72490302D01*
X134784699Y-72311673D01*
X134551310Y-72215000D01*
X134085750Y-72215000D01*
X133927000Y-72373750D01*
X133673000Y-72373750D01*
X133514250Y-72215000D01*
X133048690Y-72215000D01*
X132815301Y-72311673D01*
X132636673Y-72490302D01*
X132540000Y-72723691D01*
X126977158Y-72723691D01*
X126963327Y-72690302D01*
X126784699Y-72511673D01*
X126551310Y-72415000D01*
X126085750Y-72415000D01*
X125927000Y-72573750D01*
X125673000Y-72573750D01*
X125514250Y-72415000D01*
X125048690Y-72415000D01*
X124815301Y-72511673D01*
X124636673Y-72690302D01*
X124540000Y-72923691D01*
X116250936Y-72923691D01*
X114735000Y-71407755D01*
X114735000Y-69511003D01*
X114815824Y-69430320D01*
X115034750Y-68903088D01*
X115035248Y-68332210D01*
X114817243Y-67804597D01*
X114588795Y-67575750D01*
X128295000Y-67575750D01*
X128295000Y-68166309D01*
X128391673Y-68399698D01*
X128570301Y-68578327D01*
X128803690Y-68675000D01*
X129269250Y-68675000D01*
X129428000Y-68516250D01*
X129428000Y-67417000D01*
X129682000Y-67417000D01*
X129682000Y-68516250D01*
X129840750Y-68675000D01*
X130306310Y-68675000D01*
X130539699Y-68578327D01*
X130718327Y-68399698D01*
X130815000Y-68166309D01*
X130815000Y-67809750D01*
X133095000Y-67809750D01*
X133095000Y-68400309D01*
X133191673Y-68633698D01*
X133370301Y-68812327D01*
X133603690Y-68909000D01*
X134069250Y-68909000D01*
X134228000Y-68750250D01*
X134228000Y-67651000D01*
X134482000Y-67651000D01*
X134482000Y-68750250D01*
X134640750Y-68909000D01*
X135106310Y-68909000D01*
X135339699Y-68812327D01*
X135518327Y-68633698D01*
X135615000Y-68400309D01*
X135615000Y-67809750D01*
X135456250Y-67651000D01*
X134482000Y-67651000D01*
X134228000Y-67651000D01*
X133253750Y-67651000D01*
X133095000Y-67809750D01*
X130815000Y-67809750D01*
X130815000Y-67575750D01*
X130656250Y-67417000D01*
X129682000Y-67417000D01*
X129428000Y-67417000D01*
X128453750Y-67417000D01*
X128295000Y-67575750D01*
X114588795Y-67575750D01*
X114413923Y-67400573D01*
X113886691Y-67181647D01*
X113315813Y-67181149D01*
X112788200Y-67399154D01*
X112750300Y-67436988D01*
X112750300Y-67193641D01*
X112831124Y-67112958D01*
X113050050Y-66585726D01*
X113050548Y-66014848D01*
X112832543Y-65487235D01*
X112429223Y-65083211D01*
X111901991Y-64864285D01*
X111331113Y-64863787D01*
X110803500Y-65081792D01*
X110399476Y-65485112D01*
X110180550Y-66012344D01*
X110180052Y-66583222D01*
X92447663Y-66583222D01*
X92377942Y-66414485D01*
X92087046Y-66123081D01*
X91706777Y-65965180D01*
X91295029Y-65964821D01*
X90914485Y-66122058D01*
X90623081Y-66412954D01*
X90488111Y-66738000D01*
X88696765Y-66738000D01*
X88582046Y-66623081D01*
X88201777Y-66465180D01*
X87790029Y-66464821D01*
X87409485Y-66622058D01*
X87118081Y-66912954D01*
X86960180Y-67293223D01*
X86959821Y-67704971D01*
X50710000Y-67704971D01*
X50710000Y-63035750D01*
X94740000Y-63035750D01*
X94740000Y-63626309D01*
X94836673Y-63859698D01*
X95015301Y-64038327D01*
X95248690Y-64135000D01*
X95714250Y-64135000D01*
X95873000Y-63976250D01*
X95873000Y-62877000D01*
X96127000Y-62877000D01*
X96127000Y-63976250D01*
X96285750Y-64135000D01*
X96751310Y-64135000D01*
X96984699Y-64038327D01*
X97163327Y-63859698D01*
X97260000Y-63626309D01*
X97260000Y-63035750D01*
X97101250Y-62877000D01*
X96127000Y-62877000D01*
X95873000Y-62877000D01*
X94898750Y-62877000D01*
X94740000Y-63035750D01*
X50710000Y-63035750D01*
X50710000Y-60174827D01*
X83465546Y-60174827D01*
X83622783Y-60555371D01*
X83913679Y-60846775D01*
X84293948Y-61004676D01*
X84705696Y-61005035D01*
X85086240Y-60847798D01*
X85377644Y-60556902D01*
X85535545Y-60176633D01*
X85535688Y-60012523D01*
X86080886Y-59467325D01*
X91792445Y-59467325D01*
X91907164Y-59582244D01*
X92287433Y-59740145D01*
X92699181Y-59740504D01*
X93079725Y-59583267D01*
X93193915Y-59469276D01*
X93193725Y-59687043D01*
X93350962Y-60067587D01*
X93641858Y-60358991D01*
X93884135Y-60459593D01*
X94335687Y-60911145D01*
X94639023Y-61113827D01*
X94754781Y-61136853D01*
X94776843Y-61247765D01*
X94917191Y-61457809D01*
X94978320Y-61498654D01*
X94836673Y-61640302D01*
X94740000Y-61873691D01*
X94740000Y-62464250D01*
X94898750Y-62623000D01*
X95873000Y-62623000D01*
X95873000Y-62603000D01*
X96127000Y-62603000D01*
X96127000Y-62623000D01*
X97101250Y-62623000D01*
X97260000Y-62464250D01*
X97260000Y-61873691D01*
X97163327Y-61640302D01*
X97021680Y-61498654D01*
X97082809Y-61457809D01*
X97223157Y-61247765D01*
X97272440Y-61000000D01*
X97272440Y-60912000D01*
X97704947Y-60912000D01*
X97751843Y-61147765D01*
X97892191Y-61357809D01*
X98102235Y-61498157D01*
X98111500Y-61500000D01*
X98102235Y-61501843D01*
X97892191Y-61642191D01*
X97751843Y-61852235D01*
X97702560Y-62100000D01*
X97702560Y-63600000D01*
X97751843Y-63847765D01*
X97892191Y-64057809D01*
X98102235Y-64198157D01*
X98350000Y-64247440D01*
X99650000Y-64247440D01*
X99897765Y-64198157D01*
X100107809Y-64057809D01*
X100248157Y-63847765D01*
X100297440Y-63600000D01*
X100297440Y-63582672D01*
X100441605Y-63553996D01*
X100688815Y-63388815D01*
X101542593Y-62535037D01*
X101704971Y-62535179D01*
X102085515Y-62377942D01*
X102376919Y-62087046D01*
X102534820Y-61706777D01*
X102534908Y-61604971D01*
X110764821Y-61604971D01*
X110922058Y-61985515D01*
X111212954Y-62276919D01*
X111593223Y-62434820D01*
X112004971Y-62435179D01*
X112385515Y-62277942D01*
X112501659Y-62162000D01*
X117698235Y-62162000D01*
X117812954Y-62276919D01*
X118193223Y-62434820D01*
X118604971Y-62435179D01*
X118985515Y-62277942D01*
X119276919Y-61987046D01*
X119434820Y-61606777D01*
X119435179Y-61195029D01*
X119277942Y-60814485D01*
X118987046Y-60523081D01*
X118606777Y-60365180D01*
X118195029Y-60364821D01*
X117814485Y-60522058D01*
X117698341Y-60638000D01*
X112501765Y-60638000D01*
X112387046Y-60523081D01*
X112006777Y-60365180D01*
X111595029Y-60364821D01*
X111214485Y-60522058D01*
X110923081Y-60812954D01*
X110765180Y-61193223D01*
X110764821Y-61604971D01*
X102534908Y-61604971D01*
X102535179Y-61295029D01*
X102377942Y-60914485D01*
X102087046Y-60623081D01*
X101706777Y-60465180D01*
X101295029Y-60464821D01*
X100914485Y-60622058D01*
X100623081Y-60912954D01*
X100465180Y-61293223D01*
X100465037Y-61457332D01*
X100176851Y-61745519D01*
X100107809Y-61642191D01*
X99897765Y-61501843D01*
X99888500Y-61500000D01*
X99897765Y-61498157D01*
X100107809Y-61357809D01*
X100248157Y-61147765D01*
X100297440Y-60900000D01*
X100297440Y-59400000D01*
X100248157Y-59152235D01*
X100107809Y-58942191D01*
X99897765Y-58801843D01*
X99650000Y-58752560D01*
X98350000Y-58752560D01*
X98102235Y-58801843D01*
X97892191Y-58942191D01*
X97751843Y-59152235D01*
X97704947Y-59388000D01*
X97250162Y-59388000D01*
X97223157Y-59252235D01*
X97082809Y-59042191D01*
X96872765Y-58901843D01*
X96625000Y-58852560D01*
X95375000Y-58852560D01*
X95127235Y-58901843D01*
X95112969Y-58911375D01*
X95106846Y-58896557D01*
X94944760Y-58734187D01*
X112164752Y-58734187D01*
X112382757Y-59261800D01*
X112786077Y-59665824D01*
X113313309Y-59884750D01*
X113884187Y-59885248D01*
X114411800Y-59667243D01*
X114494187Y-59585000D01*
X120293679Y-59585000D01*
X120337040Y-59802989D01*
X120392004Y-59885248D01*
X120583077Y-60171209D01*
X123952434Y-63540566D01*
X124320654Y-63786603D01*
X124755000Y-63873000D01*
X128315778Y-63873000D01*
X128282560Y-64040000D01*
X128282560Y-65540000D01*
X128331843Y-65787765D01*
X128472191Y-65997809D01*
X128533320Y-66038654D01*
X128391673Y-66180302D01*
X128295000Y-66413691D01*
X128295000Y-67004250D01*
X128453750Y-67163000D01*
X129428000Y-67163000D01*
X129428000Y-67143000D01*
X129682000Y-67143000D01*
X129682000Y-67163000D01*
X130656250Y-67163000D01*
X130815000Y-67004250D01*
X130815000Y-66413691D01*
X130718327Y-66180302D01*
X130576680Y-66038654D01*
X130637809Y-65997809D01*
X130778157Y-65787765D01*
X130827440Y-65540000D01*
X130827440Y-64274000D01*
X133082560Y-64274000D01*
X133082560Y-65774000D01*
X133131843Y-66021765D01*
X133272191Y-66231809D01*
X133333320Y-66272654D01*
X133191673Y-66414302D01*
X133095000Y-66647691D01*
X133095000Y-67238250D01*
X133253750Y-67397000D01*
X134228000Y-67397000D01*
X134228000Y-67377000D01*
X134482000Y-67377000D01*
X134482000Y-67397000D01*
X135456250Y-67397000D01*
X135615000Y-67238250D01*
X135615000Y-66647691D01*
X135518327Y-66414302D01*
X135376680Y-66272654D01*
X135437809Y-66231809D01*
X135578157Y-66021765D01*
X135627440Y-65774000D01*
X135627440Y-64274000D01*
X135578157Y-64026235D01*
X135490000Y-63894300D01*
X135490000Y-62738000D01*
X135403603Y-62303654D01*
X135157566Y-61935434D01*
X134789346Y-61689397D01*
X134355000Y-61603000D01*
X133920654Y-61689397D01*
X133552434Y-61935434D01*
X133306397Y-62303654D01*
X133220000Y-62738000D01*
X133220000Y-63894300D01*
X133131843Y-64026235D01*
X133082560Y-64274000D01*
X130827440Y-64274000D01*
X130827440Y-64040000D01*
X130778157Y-63792235D01*
X130690000Y-63660300D01*
X130690000Y-62738000D01*
X130603603Y-62303654D01*
X130357566Y-61935434D01*
X129989346Y-61689397D01*
X129555000Y-61603000D01*
X125225132Y-61603000D01*
X122795882Y-59173750D01*
X126695000Y-59173750D01*
X126695000Y-59764309D01*
X126791673Y-59997698D01*
X126970301Y-60176327D01*
X127203690Y-60273000D01*
X127669250Y-60273000D01*
X127828000Y-60114250D01*
X127828000Y-59015000D01*
X128082000Y-59015000D01*
X128082000Y-60114250D01*
X128240750Y-60273000D01*
X128706310Y-60273000D01*
X128939699Y-60176327D01*
X129118327Y-59997698D01*
X129215000Y-59764309D01*
X129215000Y-59173750D01*
X135495000Y-59173750D01*
X135495000Y-59764309D01*
X135591673Y-59997698D01*
X135770301Y-60176327D01*
X136003690Y-60273000D01*
X136469250Y-60273000D01*
X136628000Y-60114250D01*
X136628000Y-59015000D01*
X136882000Y-59015000D01*
X136882000Y-60114250D01*
X137040750Y-60273000D01*
X137506310Y-60273000D01*
X137739699Y-60176327D01*
X137918327Y-59997698D01*
X138015000Y-59764309D01*
X138015000Y-59173750D01*
X138440000Y-59173750D01*
X138440000Y-59764309D01*
X138536673Y-59997698D01*
X138715301Y-60176327D01*
X138948690Y-60273000D01*
X139414250Y-60273000D01*
X139573000Y-60114250D01*
X139573000Y-59015000D01*
X139827000Y-59015000D01*
X139827000Y-60114250D01*
X139985750Y-60273000D01*
X140451310Y-60273000D01*
X140684699Y-60176327D01*
X140863327Y-59997698D01*
X140960000Y-59764309D01*
X140960000Y-59173750D01*
X140801250Y-59015000D01*
X139827000Y-59015000D01*
X139573000Y-59015000D01*
X138598750Y-59015000D01*
X138440000Y-59173750D01*
X138015000Y-59173750D01*
X137856250Y-59015000D01*
X136882000Y-59015000D01*
X136628000Y-59015000D01*
X135653750Y-59015000D01*
X135495000Y-59173750D01*
X129215000Y-59173750D01*
X129056250Y-59015000D01*
X128082000Y-59015000D01*
X127828000Y-59015000D01*
X126853750Y-59015000D01*
X126695000Y-59173750D01*
X122795882Y-59173750D01*
X122529632Y-58907500D01*
X123914132Y-57523000D01*
X126823541Y-57523000D01*
X126872191Y-57595809D01*
X126933320Y-57636654D01*
X126791673Y-57778302D01*
X126695000Y-58011691D01*
X126695000Y-58602250D01*
X126853750Y-58761000D01*
X127828000Y-58761000D01*
X127828000Y-58741000D01*
X128082000Y-58741000D01*
X128082000Y-58761000D01*
X129056250Y-58761000D01*
X129215000Y-58602250D01*
X129215000Y-58011691D01*
X129118327Y-57778302D01*
X128976680Y-57636654D01*
X129037809Y-57595809D01*
X129086459Y-57523000D01*
X135623541Y-57523000D01*
X135672191Y-57595809D01*
X135733320Y-57636654D01*
X135591673Y-57778302D01*
X135495000Y-58011691D01*
X135495000Y-58602250D01*
X135653750Y-58761000D01*
X136628000Y-58761000D01*
X136628000Y-58741000D01*
X136882000Y-58741000D01*
X136882000Y-58761000D01*
X137856250Y-58761000D01*
X138015000Y-58602250D01*
X138015000Y-58011691D01*
X137918327Y-57778302D01*
X137776680Y-57636654D01*
X137837809Y-57595809D01*
X137886459Y-57523000D01*
X138568541Y-57523000D01*
X138617191Y-57595809D01*
X138678320Y-57636654D01*
X138536673Y-57778302D01*
X138440000Y-58011691D01*
X138440000Y-58602250D01*
X138598750Y-58761000D01*
X139573000Y-58761000D01*
X139573000Y-58741000D01*
X139827000Y-58741000D01*
X139827000Y-58761000D01*
X140801250Y-58761000D01*
X140960000Y-58602250D01*
X140960000Y-58011691D01*
X140863327Y-57778302D01*
X140721680Y-57636654D01*
X140782809Y-57595809D01*
X140923157Y-57385765D01*
X140972440Y-57138000D01*
X140972440Y-55638000D01*
X140923157Y-55390235D01*
X140835000Y-55258300D01*
X140835000Y-55085595D01*
X145500010Y-55085595D01*
X145613068Y-55364654D01*
X146265394Y-55610815D01*
X146962267Y-55588604D01*
X147502932Y-55364654D01*
X147615990Y-55085595D01*
X146558000Y-54027605D01*
X145500010Y-55085595D01*
X140835000Y-55085595D01*
X140835000Y-53555394D01*
X144795185Y-53555394D01*
X144817396Y-54252267D01*
X145041346Y-54792932D01*
X145320405Y-54905990D01*
X146378395Y-53848000D01*
X146737605Y-53848000D01*
X147795595Y-54905990D01*
X148074654Y-54792932D01*
X148320815Y-54140606D01*
X148298604Y-53443733D01*
X148074654Y-52903068D01*
X147795595Y-52790010D01*
X146737605Y-53848000D01*
X146378395Y-53848000D01*
X145320405Y-52790010D01*
X145041346Y-52903068D01*
X144795185Y-53555394D01*
X140835000Y-53555394D01*
X140835000Y-52620000D01*
X140833092Y-52610405D01*
X145500010Y-52610405D01*
X146558000Y-53668395D01*
X147615990Y-52610405D01*
X147502932Y-52331346D01*
X146850606Y-52085185D01*
X146153733Y-52107396D01*
X145613068Y-52331346D01*
X145500010Y-52610405D01*
X140833092Y-52610405D01*
X140748603Y-52185654D01*
X140502566Y-51817434D01*
X140134346Y-51571397D01*
X139700000Y-51485000D01*
X139265654Y-51571397D01*
X138897434Y-51817434D01*
X138651397Y-52185654D01*
X138565000Y-52620000D01*
X138565000Y-55253000D01*
X137890000Y-55253000D01*
X137890000Y-54102000D01*
X137803603Y-53667654D01*
X137557566Y-53299434D01*
X137189346Y-53053397D01*
X136755000Y-52967000D01*
X136320654Y-53053397D01*
X135952434Y-53299434D01*
X135706397Y-53667654D01*
X135620000Y-54102000D01*
X135620000Y-55253000D01*
X133090000Y-55253000D01*
X133090000Y-53538982D01*
X133287809Y-53406809D01*
X133328654Y-53345680D01*
X133470302Y-53487327D01*
X133703691Y-53584000D01*
X134294250Y-53584000D01*
X134453000Y-53425250D01*
X134453000Y-52451000D01*
X134707000Y-52451000D01*
X134707000Y-53425250D01*
X134865750Y-53584000D01*
X135456309Y-53584000D01*
X135689698Y-53487327D01*
X135868327Y-53308699D01*
X135965000Y-53075310D01*
X135965000Y-52609750D01*
X135806250Y-52451000D01*
X134707000Y-52451000D01*
X134453000Y-52451000D01*
X134433000Y-52451000D01*
X134433000Y-52197000D01*
X134453000Y-52197000D01*
X134453000Y-51222750D01*
X134707000Y-51222750D01*
X134707000Y-52197000D01*
X135806250Y-52197000D01*
X135965000Y-52038250D01*
X135965000Y-51572690D01*
X135868327Y-51339301D01*
X135689698Y-51160673D01*
X135456309Y-51064000D01*
X134865750Y-51064000D01*
X134707000Y-51222750D01*
X134453000Y-51222750D01*
X134294250Y-51064000D01*
X133703691Y-51064000D01*
X133470302Y-51160673D01*
X133328654Y-51302320D01*
X133287809Y-51241191D01*
X133077765Y-51100843D01*
X132830000Y-51051560D01*
X131330000Y-51051560D01*
X131082235Y-51100843D01*
X130872191Y-51241191D01*
X130731843Y-51451235D01*
X130682560Y-51699000D01*
X130682560Y-52949000D01*
X130731843Y-53196765D01*
X130820000Y-53328700D01*
X130820000Y-55253000D01*
X129090000Y-55253000D01*
X129090000Y-54102000D01*
X129003603Y-53667654D01*
X128757566Y-53299434D01*
X128389346Y-53053397D01*
X127955000Y-52967000D01*
X127520654Y-53053397D01*
X127152434Y-53299434D01*
X126906397Y-53667654D01*
X126820000Y-54102000D01*
X126820000Y-55253000D01*
X123444000Y-55253000D01*
X123009654Y-55339397D01*
X122641434Y-55585434D01*
X120911868Y-57315000D01*
X114494606Y-57315000D01*
X114413923Y-57234176D01*
X113886691Y-57015250D01*
X113315813Y-57014752D01*
X112788200Y-57232757D01*
X112384176Y-57636077D01*
X112165250Y-58163309D01*
X112164752Y-58734187D01*
X94944760Y-58734187D01*
X94815950Y-58605153D01*
X94435681Y-58447252D01*
X94023933Y-58446893D01*
X93643389Y-58604130D01*
X93529199Y-58718121D01*
X93529389Y-58500354D01*
X93372152Y-58119810D01*
X93081256Y-57828406D01*
X92700987Y-57670505D01*
X92289239Y-57670146D01*
X91908695Y-57827383D01*
X91792551Y-57943325D01*
X85765256Y-57943325D01*
X85473651Y-58001329D01*
X85231232Y-58163309D01*
X85226441Y-58166510D01*
X84458132Y-58934819D01*
X84295754Y-58934677D01*
X83915210Y-59091914D01*
X83623806Y-59382810D01*
X83465905Y-59763079D01*
X83465546Y-60174827D01*
X50710000Y-60174827D01*
X50710000Y-52863750D01*
X111685000Y-52863750D01*
X111685000Y-53329310D01*
X111781673Y-53562699D01*
X111960302Y-53741327D01*
X112193691Y-53838000D01*
X112784250Y-53838000D01*
X112943000Y-53679250D01*
X112943000Y-52705000D01*
X111843750Y-52705000D01*
X111685000Y-52863750D01*
X50710000Y-52863750D01*
X50710000Y-51826690D01*
X111685000Y-51826690D01*
X111685000Y-52292250D01*
X111843750Y-52451000D01*
X112943000Y-52451000D01*
X112943000Y-51476750D01*
X113197000Y-51476750D01*
X113197000Y-52451000D01*
X113217000Y-52451000D01*
X113217000Y-52705000D01*
X113197000Y-52705000D01*
X113197000Y-53679250D01*
X113355750Y-53838000D01*
X113946309Y-53838000D01*
X114179698Y-53741327D01*
X114321346Y-53599680D01*
X114362191Y-53660809D01*
X114572235Y-53801157D01*
X114729997Y-53832537D01*
X114767434Y-53888566D01*
X116291433Y-55412566D01*
X116659654Y-55658603D01*
X117094000Y-55744999D01*
X117528345Y-55658603D01*
X117896566Y-55412566D01*
X118142603Y-55044345D01*
X118228999Y-54610000D01*
X118142603Y-54175654D01*
X117896566Y-53807433D01*
X116967440Y-52878308D01*
X116967440Y-51953000D01*
X116918157Y-51705235D01*
X116777809Y-51495191D01*
X116567765Y-51354843D01*
X116320000Y-51305560D01*
X114820000Y-51305560D01*
X114572235Y-51354843D01*
X114362191Y-51495191D01*
X114321346Y-51556320D01*
X114179698Y-51414673D01*
X113946309Y-51318000D01*
X113355750Y-51318000D01*
X113197000Y-51476750D01*
X112943000Y-51476750D01*
X112784250Y-51318000D01*
X112193691Y-51318000D01*
X111960302Y-51414673D01*
X111781673Y-51593301D01*
X111685000Y-51826690D01*
X50710000Y-51826690D01*
X50710000Y-50710000D01*
X149290000Y-50710000D01*
X149290000Y-115290000D01*
X149290000Y-115290000D01*
G37*
X149290000Y-115290000D02*
X50710000Y-115290000D01*
X50710000Y-109251750D01*
X86539000Y-109251750D01*
X86539000Y-109717310D01*
X86635673Y-109950699D01*
X86814302Y-110129327D01*
X87047691Y-110226000D01*
X87638250Y-110226000D01*
X87797000Y-110067250D01*
X87797000Y-109093000D01*
X86697750Y-109093000D01*
X86539000Y-109251750D01*
X50710000Y-109251750D01*
X50710000Y-97892084D01*
X50747097Y-97892084D01*
X51013352Y-98536471D01*
X51505936Y-99029915D01*
X52149857Y-99297295D01*
X52847084Y-99297903D01*
X53491471Y-99031648D01*
X53984915Y-98539064D01*
X54252295Y-97895143D01*
X54252903Y-97197916D01*
X53986648Y-96553529D01*
X53494064Y-96060085D01*
X52850143Y-95792705D01*
X52152916Y-95792097D01*
X51508529Y-96058352D01*
X51015085Y-96550936D01*
X50747705Y-97194857D01*
X50747097Y-97892084D01*
X50710000Y-97892084D01*
X50710000Y-95269383D01*
X54744769Y-95269383D01*
X54947582Y-95760229D01*
X55322796Y-96136098D01*
X55657527Y-96275091D01*
X55324771Y-96412582D01*
X54948902Y-96787796D01*
X54745232Y-97278287D01*
X54744769Y-97809383D01*
X54947582Y-98300229D01*
X55322796Y-98676098D01*
X55657527Y-98815091D01*
X55324771Y-98952582D01*
X54948902Y-99327796D01*
X54745232Y-99818287D01*
X54744769Y-100349383D01*
X54947582Y-100840229D01*
X55322796Y-101216098D01*
X55657527Y-101355091D01*
X55324771Y-101492582D01*
X54948902Y-101867796D01*
X54745232Y-102358287D01*
X54744769Y-102889383D01*
X54947582Y-103380229D01*
X55322796Y-103756098D01*
X55657527Y-103895091D01*
X55324771Y-104032582D01*
X54948902Y-104407796D01*
X54745232Y-104898287D01*
X54744769Y-105429383D01*
X54947582Y-105920229D01*
X55322796Y-106296098D01*
X55813287Y-106499768D01*
X56344383Y-106500231D01*
X56835229Y-106297418D01*
X57211098Y-105922204D01*
X57350091Y-105587473D01*
X57487582Y-105920229D01*
X57862796Y-106296098D01*
X58197527Y-106435091D01*
X57864771Y-106572582D01*
X57488902Y-106947796D01*
X57285232Y-107438287D01*
X57284769Y-107969383D01*
X57487582Y-108460229D01*
X57862796Y-108836098D01*
X58353287Y-109039768D01*
X58884383Y-109040231D01*
X59375229Y-108837418D01*
X59751098Y-108462204D01*
X59890091Y-108127473D01*
X60027582Y-108460229D01*
X60402796Y-108836098D01*
X60893287Y-109039768D01*
X61424383Y-109040231D01*
X61915229Y-108837418D01*
X62291098Y-108462204D01*
X62430091Y-108127473D01*
X62567582Y-108460229D01*
X62942796Y-108836098D01*
X63433287Y-109039768D01*
X63964383Y-109040231D01*
X64455229Y-108837418D01*
X64831098Y-108462204D01*
X64970091Y-108127473D01*
X65107582Y-108460229D01*
X65482796Y-108836098D01*
X65973287Y-109039768D01*
X66504383Y-109040231D01*
X66995229Y-108837418D01*
X67371098Y-108462204D01*
X67510091Y-108127473D01*
X67647582Y-108460229D01*
X68022796Y-108836098D01*
X68513287Y-109039768D01*
X69044383Y-109040231D01*
X69535229Y-108837418D01*
X69911098Y-108462204D01*
X70050091Y-108127473D01*
X70187582Y-108460229D01*
X70562796Y-108836098D01*
X71053287Y-109039768D01*
X71584383Y-109040231D01*
X72075229Y-108837418D01*
X72451098Y-108462204D01*
X72590091Y-108127473D01*
X72727582Y-108460229D01*
X73102796Y-108836098D01*
X73593287Y-109039768D01*
X74124383Y-109040231D01*
X74615229Y-108837418D01*
X74991098Y-108462204D01*
X75130091Y-108127473D01*
X75267582Y-108460229D01*
X75642796Y-108836098D01*
X76133287Y-109039768D01*
X76664383Y-109040231D01*
X77155229Y-108837418D01*
X77531098Y-108462204D01*
X77670091Y-108127473D01*
X77807582Y-108460229D01*
X78182796Y-108836098D01*
X78673287Y-109039768D01*
X79204383Y-109040231D01*
X79695229Y-108837418D01*
X80071098Y-108462204D01*
X80173874Y-108214690D01*
X86539000Y-108214690D01*
X86539000Y-108680250D01*
X86697750Y-108839000D01*
X87797000Y-108839000D01*
X87797000Y-107864750D01*
X88051000Y-107864750D01*
X88051000Y-108839000D01*
X88071000Y-108839000D01*
X88071000Y-109093000D01*
X88051000Y-109093000D01*
X88051000Y-110067250D01*
X88209750Y-110226000D01*
X88800309Y-110226000D01*
X89033698Y-110129327D01*
X89175346Y-109987680D01*
X89216191Y-110048809D01*
X89426235Y-110189157D01*
X89674000Y-110238440D01*
X91174000Y-110238440D01*
X91421765Y-110189157D01*
X91631809Y-110048809D01*
X91772157Y-109838765D01*
X91821440Y-109591000D01*
X91821440Y-108341000D01*
X91772157Y-108093235D01*
X91635000Y-107887967D01*
X91635000Y-107135000D01*
X91625482Y-107087148D01*
X92415190Y-106297440D01*
X93400000Y-106297440D01*
X93647765Y-106248157D01*
X93857809Y-106107809D01*
X93998157Y-105897765D01*
X94000000Y-105888500D01*
X94001843Y-105897765D01*
X94142191Y-106107809D01*
X94238000Y-106171827D01*
X94238000Y-106298235D01*
X94123081Y-106412954D01*
X93965180Y-106793223D01*
X93964821Y-107204971D01*
X94122058Y-107585515D01*
X94412954Y-107876919D01*
X94793223Y-108034820D01*
X95204971Y-108035179D01*
X95585515Y-107877942D01*
X95876919Y-107587046D01*
X96034820Y-107206777D01*
X96035179Y-106795029D01*
X95877942Y-106414485D01*
X95762000Y-106298341D01*
X95762000Y-106297440D01*
X96100000Y-106297440D01*
X96347765Y-106248157D01*
X96557809Y-106107809D01*
X96698157Y-105897765D01*
X96747440Y-105650000D01*
X96747440Y-105410000D01*
X141731655Y-105410000D01*
X141845729Y-105983489D01*
X142170585Y-106469670D01*
X142485366Y-106680000D01*
X142170585Y-106890330D01*
X141845729Y-107376511D01*
X141731655Y-107950000D01*
X141845729Y-108523489D01*
X142170585Y-109009670D01*
X142485366Y-109220000D01*
X142170585Y-109430330D01*
X141845729Y-109916511D01*
X141731655Y-110490000D01*
X141845729Y-111063489D01*
X142170585Y-111549670D01*
X142485366Y-111760000D01*
X142170585Y-111970330D01*
X141845729Y-112456511D01*
X141731655Y-113030000D01*
X141845729Y-113603489D01*
X142170585Y-114089670D01*
X142656766Y-114414526D01*
X143230255Y-114528600D01*
X143599745Y-114528600D01*
X144173234Y-114414526D01*
X144659415Y-114089670D01*
X144984271Y-113603489D01*
X145098345Y-113030000D01*
X144984271Y-112456511D01*
X144659415Y-111970330D01*
X144344634Y-111760000D01*
X144659415Y-111549670D01*
X144984271Y-111063489D01*
X145098345Y-110490000D01*
X144984271Y-109916511D01*
X144659415Y-109430330D01*
X144344634Y-109220000D01*
X144659415Y-109009670D01*
X144984271Y-108523489D01*
X145098345Y-107950000D01*
X144984271Y-107376511D01*
X144659415Y-106890330D01*
X144344634Y-106680000D01*
X144659415Y-106469670D01*
X144984271Y-105983489D01*
X145098345Y-105410000D01*
X144984271Y-104836511D01*
X144659415Y-104350330D01*
X144349931Y-104143539D01*
X144765732Y-103772036D01*
X145019709Y-103244791D01*
X145022358Y-103229026D01*
X144901217Y-102997000D01*
X143542000Y-102997000D01*
X143542000Y-103017000D01*
X143288000Y-103017000D01*
X143288000Y-102997000D01*
X141928783Y-102997000D01*
X141807642Y-103229026D01*
X141810291Y-103244791D01*
X142064268Y-103772036D01*
X142480069Y-104143539D01*
X142170585Y-104350330D01*
X141845729Y-104836511D01*
X141731655Y-105410000D01*
X96747440Y-105410000D01*
X96747440Y-104350000D01*
X96698157Y-104102235D01*
X96557809Y-103892191D01*
X96347765Y-103751843D01*
X96100000Y-103702560D01*
X94600000Y-103702560D01*
X94352235Y-103751843D01*
X94142191Y-103892191D01*
X94001843Y-104102235D01*
X94000000Y-104111500D01*
X93998157Y-104102235D01*
X93857809Y-103892191D01*
X93647765Y-103751843D01*
X93400000Y-103702560D01*
X91900000Y-103702560D01*
X91652235Y-103751843D01*
X91442191Y-103892191D01*
X91301843Y-104102235D01*
X91252560Y-104350000D01*
X91252560Y-105304810D01*
X90547852Y-106009518D01*
X90500000Y-106000000D01*
X90065654Y-106086397D01*
X89697434Y-106332434D01*
X89451397Y-106700654D01*
X89365000Y-107135000D01*
X89365000Y-107783759D01*
X89216191Y-107883191D01*
X89175346Y-107944320D01*
X89033698Y-107802673D01*
X88800309Y-107706000D01*
X88209750Y-107706000D01*
X88051000Y-107864750D01*
X87797000Y-107864750D01*
X87638250Y-107706000D01*
X87047691Y-107706000D01*
X86814302Y-107802673D01*
X86635673Y-107981301D01*
X86539000Y-108214690D01*
X80173874Y-108214690D01*
X80274768Y-107971713D01*
X80275231Y-107440617D01*
X80072418Y-106949771D01*
X79697204Y-106573902D01*
X79362473Y-106434909D01*
X79695229Y-106297418D01*
X80071098Y-105922204D01*
X80210091Y-105587473D01*
X80347582Y-105920229D01*
X80722796Y-106296098D01*
X81213287Y-106499768D01*
X81744383Y-106500231D01*
X82235229Y-106297418D01*
X82611098Y-105922204D01*
X82814768Y-105431713D01*
X82815231Y-104900617D01*
X82612418Y-104409771D01*
X82237204Y-104033902D01*
X81902473Y-103894909D01*
X82235229Y-103757418D01*
X82611098Y-103382204D01*
X82814768Y-102891713D01*
X82815231Y-102360617D01*
X82612418Y-101869771D01*
X82237204Y-101493902D01*
X81902473Y-101354909D01*
X82235229Y-101217418D01*
X82611098Y-100842204D01*
X82814768Y-100351713D01*
X82815231Y-99820617D01*
X82800825Y-99785750D01*
X86365000Y-99785750D01*
X86365000Y-100251310D01*
X86461673Y-100484699D01*
X86640302Y-100663327D01*
X86873691Y-100760000D01*
X87464250Y-100760000D01*
X87623000Y-100601250D01*
X87623000Y-99627000D01*
X86523750Y-99627000D01*
X86365000Y-99785750D01*
X82800825Y-99785750D01*
X82612418Y-99329771D01*
X82237204Y-98953902D01*
X81902473Y-98814909D01*
X82062736Y-98748690D01*
X86365000Y-98748690D01*
X86365000Y-99214250D01*
X86523750Y-99373000D01*
X87623000Y-99373000D01*
X87623000Y-98398750D01*
X87877000Y-98398750D01*
X87877000Y-99373000D01*
X87897000Y-99373000D01*
X87897000Y-99627000D01*
X87877000Y-99627000D01*
X87877000Y-100601250D01*
X88035750Y-100760000D01*
X88626309Y-100760000D01*
X88859698Y-100663327D01*
X89001346Y-100521680D01*
X89042191Y-100582809D01*
X89252235Y-100723157D01*
X89500000Y-100772440D01*
X91000000Y-100772440D01*
X91247765Y-100723157D01*
X91457809Y-100582809D01*
X91598157Y-100372765D01*
X91647440Y-100125000D01*
X91647440Y-98875000D01*
X91629688Y-98785750D01*
X120240000Y-98785750D01*
X120240000Y-99376309D01*
X120336673Y-99609698D01*
X120515301Y-99788327D01*
X120748690Y-99885000D01*
X121214250Y-99885000D01*
X121373000Y-99726250D01*
X121373000Y-98627000D01*
X121627000Y-98627000D01*
X121627000Y-99726250D01*
X121785750Y-99885000D01*
X122251310Y-99885000D01*
X122484699Y-99788327D01*
X122663327Y-99609698D01*
X122760000Y-99376309D01*
X122760000Y-98785750D01*
X125540000Y-98785750D01*
X125540000Y-99376309D01*
X125636673Y-99609698D01*
X125815301Y-99788327D01*
X126048690Y-99885000D01*
X126514250Y-99885000D01*
X126673000Y-99726250D01*
X126673000Y-98627000D01*
X126927000Y-98627000D01*
X126927000Y-99726250D01*
X127085750Y-99885000D01*
X127551310Y-99885000D01*
X127784699Y-99788327D01*
X127963327Y-99609698D01*
X128060000Y-99376309D01*
X128060000Y-98885750D01*
X130040000Y-98885750D01*
X130040000Y-99476309D01*
X130136673Y-99709698D01*
X130315301Y-99888327D01*
X130548690Y-99985000D01*
X131014250Y-99985000D01*
X131173000Y-99826250D01*
X131173000Y-98727000D01*
X131427000Y-98727000D01*
X131427000Y-99826250D01*
X131585750Y-99985000D01*
X132051310Y-99985000D01*
X132284699Y-99888327D01*
X132463327Y-99709698D01*
X132560000Y-99476309D01*
X132560000Y-98885750D01*
X132401250Y-98727000D01*
X131427000Y-98727000D01*
X131173000Y-98727000D01*
X130198750Y-98727000D01*
X130040000Y-98885750D01*
X128060000Y-98885750D01*
X128060000Y-98785750D01*
X127901250Y-98627000D01*
X126927000Y-98627000D01*
X126673000Y-98627000D01*
X125698750Y-98627000D01*
X125540000Y-98785750D01*
X122760000Y-98785750D01*
X122601250Y-98627000D01*
X121627000Y-98627000D01*
X121373000Y-98627000D01*
X120398750Y-98627000D01*
X120240000Y-98785750D01*
X91629688Y-98785750D01*
X91598157Y-98627235D01*
X91457809Y-98417191D01*
X91435000Y-98401950D01*
X91435000Y-97822171D01*
X91534820Y-97581777D01*
X91534963Y-97417668D01*
X91538816Y-97413815D01*
X91676464Y-97207809D01*
X91703996Y-97166605D01*
X91762000Y-96875000D01*
X91762000Y-96295053D01*
X91997765Y-96248157D01*
X92207809Y-96107809D01*
X92348157Y-95897765D01*
X92350000Y-95888500D01*
X92351843Y-95897765D01*
X92492191Y-96107809D01*
X92702235Y-96248157D01*
X92950000Y-96297440D01*
X93238000Y-96297440D01*
X93238000Y-96798235D01*
X93123081Y-96912954D01*
X92965180Y-97293223D01*
X92964821Y-97704971D01*
X93122058Y-98085515D01*
X93412954Y-98376919D01*
X93793223Y-98534820D01*
X94204971Y-98535179D01*
X94585515Y-98377942D01*
X94876919Y-98087046D01*
X95034820Y-97706777D01*
X95035179Y-97295029D01*
X94877942Y-96914485D01*
X94762000Y-96798341D01*
X94762000Y-96205236D01*
X94907809Y-96107809D01*
X95048157Y-95897765D01*
X95097440Y-95650000D01*
X95097440Y-94350000D01*
X95048157Y-94102235D01*
X94907809Y-93892191D01*
X94697765Y-93751843D01*
X94450000Y-93702560D01*
X92950000Y-93702560D01*
X92702235Y-93751843D01*
X92492191Y-93892191D01*
X92351843Y-94102235D01*
X92350000Y-94111500D01*
X92348157Y-94102235D01*
X92207809Y-93892191D01*
X91997765Y-93751843D01*
X91750000Y-93702560D01*
X90250000Y-93702560D01*
X90002235Y-93751843D01*
X89792191Y-93892191D01*
X89651843Y-94102235D01*
X89602560Y-94350000D01*
X89602560Y-95650000D01*
X89651843Y-95897765D01*
X89792191Y-96107809D01*
X90002235Y-96248157D01*
X90238000Y-96295053D01*
X90238000Y-96363385D01*
X89914485Y-96497058D01*
X89623081Y-96787954D01*
X89465180Y-97168223D01*
X89464821Y-97579971D01*
X89565000Y-97822424D01*
X89565000Y-98227560D01*
X89500000Y-98227560D01*
X89252235Y-98276843D01*
X89042191Y-98417191D01*
X89001346Y-98478320D01*
X88859698Y-98336673D01*
X88626309Y-98240000D01*
X88035750Y-98240000D01*
X87877000Y-98398750D01*
X87623000Y-98398750D01*
X87464250Y-98240000D01*
X86873691Y-98240000D01*
X86640302Y-98336673D01*
X86461673Y-98515301D01*
X86365000Y-98748690D01*
X82062736Y-98748690D01*
X82235229Y-98677418D01*
X82611098Y-98302204D01*
X82814768Y-97811713D01*
X82815231Y-97280617D01*
X82612418Y-96789771D01*
X82237204Y-96413902D01*
X81902473Y-96274909D01*
X82235229Y-96137418D01*
X82611098Y-95762204D01*
X82814768Y-95271713D01*
X82815231Y-94740617D01*
X82685131Y-94425750D01*
X85075000Y-94425750D01*
X85075000Y-95016309D01*
X85171673Y-95249698D01*
X85350301Y-95428327D01*
X85583690Y-95525000D01*
X86074250Y-95525000D01*
X86233000Y-95366250D01*
X86233000Y-94267000D01*
X86487000Y-94267000D01*
X86487000Y-95366250D01*
X86645750Y-95525000D01*
X87136310Y-95525000D01*
X87369699Y-95428327D01*
X87548327Y-95249698D01*
X87645000Y-95016309D01*
X87645000Y-94425750D01*
X87486250Y-94267000D01*
X86487000Y-94267000D01*
X86233000Y-94267000D01*
X85233750Y-94267000D01*
X85075000Y-94425750D01*
X82685131Y-94425750D01*
X82612418Y-94249771D01*
X82237204Y-93873902D01*
X81902473Y-93734909D01*
X82235229Y-93597418D01*
X82611098Y-93222204D01*
X82814768Y-92731713D01*
X82815231Y-92200617D01*
X82612418Y-91709771D01*
X82237204Y-91333902D01*
X81918788Y-91201684D01*
X82173831Y-91096042D01*
X82235669Y-90860275D01*
X82065395Y-90690000D01*
X85062560Y-90690000D01*
X85062560Y-92190000D01*
X85111843Y-92437765D01*
X85252191Y-92647809D01*
X85462235Y-92788157D01*
X85490209Y-92793721D01*
X85350301Y-92851673D01*
X85171673Y-93030302D01*
X85075000Y-93263691D01*
X85075000Y-93854250D01*
X85233750Y-94013000D01*
X86233000Y-94013000D01*
X86233000Y-93993000D01*
X86487000Y-93993000D01*
X86487000Y-94013000D01*
X87486250Y-94013000D01*
X87645000Y-93854250D01*
X87645000Y-93263691D01*
X87548327Y-93030302D01*
X87369699Y-92851673D01*
X87229791Y-92793721D01*
X87257765Y-92788157D01*
X87467809Y-92647809D01*
X87608157Y-92437765D01*
X87625996Y-92348079D01*
X87931223Y-92474820D01*
X88342971Y-92475179D01*
X88723515Y-92317942D01*
X89014919Y-92027046D01*
X89172820Y-91646777D01*
X89173179Y-91235029D01*
X89015942Y-90854485D01*
X88725046Y-90563081D01*
X88659226Y-90535750D01*
X94752000Y-90535750D01*
X94752000Y-91126309D01*
X94848673Y-91359698D01*
X95027301Y-91538327D01*
X95260690Y-91635000D01*
X95726250Y-91635000D01*
X95885000Y-91476250D01*
X95885000Y-90377000D01*
X96139000Y-90377000D01*
X96139000Y-91476250D01*
X96297750Y-91635000D01*
X96763310Y-91635000D01*
X96996699Y-91538327D01*
X97175327Y-91359698D01*
X97272000Y-91126309D01*
X97272000Y-90535750D01*
X97113250Y-90377000D01*
X96139000Y-90377000D01*
X95885000Y-90377000D01*
X94910750Y-90377000D01*
X94752000Y-90535750D01*
X88659226Y-90535750D01*
X88344777Y-90405180D01*
X87933029Y-90404821D01*
X87625953Y-90531702D01*
X87608157Y-90442235D01*
X87467809Y-90232191D01*
X87257765Y-90091843D01*
X87010000Y-90042560D01*
X85710000Y-90042560D01*
X85462235Y-90091843D01*
X85252191Y-90232191D01*
X85111843Y-90442235D01*
X85062560Y-90690000D01*
X82065395Y-90690000D01*
X81480000Y-90104605D01*
X80724331Y-90860275D01*
X80786169Y-91096042D01*
X81062111Y-91193196D01*
X80724771Y-91332582D01*
X80348902Y-91707796D01*
X80209909Y-92042527D01*
X80072418Y-91709771D01*
X79697204Y-91333902D01*
X79362473Y-91194909D01*
X79695229Y-91057418D01*
X80071098Y-90682204D01*
X80203316Y-90363788D01*
X80308958Y-90618831D01*
X80544725Y-90680669D01*
X81300395Y-89925000D01*
X81659605Y-89925000D01*
X82415275Y-90680669D01*
X82651042Y-90618831D01*
X82827419Y-90117878D01*
X82798664Y-89587560D01*
X82651042Y-89231169D01*
X82415275Y-89169331D01*
X81659605Y-89925000D01*
X81300395Y-89925000D01*
X80544725Y-89169331D01*
X80308958Y-89231169D01*
X80211804Y-89507111D01*
X80072418Y-89169771D01*
X79697204Y-88793902D01*
X79378788Y-88661684D01*
X79633831Y-88556042D01*
X79695669Y-88320275D01*
X78940000Y-87564605D01*
X78184331Y-88320275D01*
X78246169Y-88556042D01*
X78522111Y-88653196D01*
X78184771Y-88792582D01*
X77808902Y-89167796D01*
X77605232Y-89658287D01*
X77604769Y-90189383D01*
X77807582Y-90680229D01*
X78182796Y-91056098D01*
X78517527Y-91195091D01*
X78184771Y-91332582D01*
X77808902Y-91707796D01*
X77605232Y-92198287D01*
X77604769Y-92729383D01*
X77807582Y-93220229D01*
X78182796Y-93596098D01*
X78517527Y-93735091D01*
X78184771Y-93872582D01*
X77808902Y-94247796D01*
X77605232Y-94738287D01*
X77604769Y-95269383D01*
X77807582Y-95760229D01*
X78182796Y-96136098D01*
X78517527Y-96275091D01*
X78184771Y-96412582D01*
X77808902Y-96787796D01*
X77605232Y-97278287D01*
X77604769Y-97809383D01*
X77807582Y-98300229D01*
X78182796Y-98676098D01*
X78517527Y-98815091D01*
X78184771Y-98952582D01*
X77808902Y-99327796D01*
X77605232Y-99818287D01*
X77604769Y-100349383D01*
X77807582Y-100840229D01*
X78182796Y-101216098D01*
X78517527Y-101355091D01*
X78184771Y-101492582D01*
X77808902Y-101867796D01*
X77605232Y-102358287D01*
X77604769Y-102889383D01*
X77807582Y-103380229D01*
X78182796Y-103756098D01*
X78517527Y-103895091D01*
X78184771Y-104032582D01*
X77808902Y-104407796D01*
X77669909Y-104742527D01*
X77532418Y-104409771D01*
X77157204Y-104033902D01*
X76666713Y-103830232D01*
X76135617Y-103829769D01*
X75644771Y-104032582D01*
X75268902Y-104407796D01*
X75129909Y-104742527D01*
X74992418Y-104409771D01*
X74617204Y-104033902D01*
X74126713Y-103830232D01*
X73595617Y-103829769D01*
X73104771Y-104032582D01*
X72728902Y-104407796D01*
X72589909Y-104742527D01*
X72452418Y-104409771D01*
X72077204Y-104033902D01*
X71586713Y-103830232D01*
X71055617Y-103829769D01*
X70564771Y-104032582D01*
X70188902Y-104407796D01*
X70049909Y-104742527D01*
X69912418Y-104409771D01*
X69537204Y-104033902D01*
X69046713Y-103830232D01*
X68515617Y-103829769D01*
X68024771Y-104032582D01*
X67648902Y-104407796D01*
X67509909Y-104742527D01*
X67372418Y-104409771D01*
X66997204Y-104033902D01*
X66506713Y-103830232D01*
X65975617Y-103829769D01*
X65484771Y-104032582D01*
X65108902Y-104407796D01*
X64969909Y-104742527D01*
X64832418Y-104409771D01*
X64457204Y-104033902D01*
X63966713Y-103830232D01*
X63435617Y-103829769D01*
X62944771Y-104032582D01*
X62568902Y-104407796D01*
X62429909Y-104742527D01*
X62292418Y-104409771D01*
X61917204Y-104033902D01*
X61426713Y-103830232D01*
X60895617Y-103829769D01*
X60404771Y-104032582D01*
X60028902Y-104407796D01*
X59889909Y-104742527D01*
X59752418Y-104409771D01*
X59377204Y-104033902D01*
X59042473Y-103894909D01*
X59375229Y-103757418D01*
X59751098Y-103382204D01*
X59954768Y-102891713D01*
X59955231Y-102360617D01*
X59752418Y-101869771D01*
X59377204Y-101493902D01*
X59042473Y-101354909D01*
X59375229Y-101217418D01*
X59751098Y-100842204D01*
X59954768Y-100351713D01*
X59955231Y-99820617D01*
X59831777Y-99521834D01*
X62364543Y-99521834D01*
X62764853Y-100490658D01*
X63505443Y-101232542D01*
X64473567Y-101634542D01*
X65521834Y-101635457D01*
X66490658Y-101235147D01*
X67232542Y-100494557D01*
X67634542Y-99526433D01*
X67634546Y-99521834D01*
X69864543Y-99521834D01*
X70264853Y-100490658D01*
X71005443Y-101232542D01*
X71973567Y-101634542D01*
X73021834Y-101635457D01*
X73990658Y-101235147D01*
X74732542Y-100494557D01*
X75134542Y-99526433D01*
X75135457Y-98478166D01*
X74735147Y-97509342D01*
X73994557Y-96767458D01*
X73026433Y-96365458D01*
X71978166Y-96364543D01*
X71009342Y-96764853D01*
X70267458Y-97505443D01*
X69865458Y-98473567D01*
X69864543Y-99521834D01*
X67634546Y-99521834D01*
X67635457Y-98478166D01*
X67235147Y-97509342D01*
X66494557Y-96767458D01*
X65526433Y-96365458D01*
X64478166Y-96364543D01*
X63509342Y-96764853D01*
X62767458Y-97505443D01*
X62365458Y-98473567D01*
X62364543Y-99521834D01*
X59831777Y-99521834D01*
X59752418Y-99329771D01*
X59377204Y-98953902D01*
X59042473Y-98814909D01*
X59375229Y-98677418D01*
X59751098Y-98302204D01*
X59954768Y-97811713D01*
X59955231Y-97280617D01*
X59752418Y-96789771D01*
X59377204Y-96413902D01*
X59058788Y-96281684D01*
X59313831Y-96176042D01*
X59375669Y-95940275D01*
X58620000Y-95184605D01*
X57864331Y-95940275D01*
X57926169Y-96176042D01*
X58202111Y-96273196D01*
X57864771Y-96412582D01*
X57488902Y-96787796D01*
X57349909Y-97122527D01*
X57212418Y-96789771D01*
X56837204Y-96413902D01*
X56502473Y-96274909D01*
X56835229Y-96137418D01*
X57211098Y-95762204D01*
X57343316Y-95443788D01*
X57448958Y-95698831D01*
X57684725Y-95760669D01*
X58440395Y-95005000D01*
X58799605Y-95005000D01*
X59555275Y-95760669D01*
X59791042Y-95698831D01*
X59967419Y-95197878D01*
X59938664Y-94667560D01*
X59791042Y-94311169D01*
X59555275Y-94249331D01*
X58799605Y-95005000D01*
X58440395Y-95005000D01*
X57684725Y-94249331D01*
X57448958Y-94311169D01*
X57351804Y-94587111D01*
X57212418Y-94249771D01*
X56837204Y-93873902D01*
X56518788Y-93741684D01*
X56773831Y-93636042D01*
X56835669Y-93400275D01*
X56080000Y-92644605D01*
X55324331Y-93400275D01*
X55386169Y-93636042D01*
X55662111Y-93733196D01*
X55324771Y-93872582D01*
X54948902Y-94247796D01*
X54745232Y-94738287D01*
X54744769Y-95269383D01*
X50710000Y-95269383D01*
X50710000Y-92272122D01*
X54732581Y-92272122D01*
X54761336Y-92802440D01*
X54908958Y-93158831D01*
X55144725Y-93220669D01*
X55900395Y-92465000D01*
X55144725Y-91709331D01*
X54908958Y-91771169D01*
X54732581Y-92272122D01*
X50710000Y-92272122D01*
X50710000Y-90209187D01*
X52064752Y-90209187D01*
X52282757Y-90736800D01*
X52686077Y-91140824D01*
X53213309Y-91359750D01*
X53784187Y-91360248D01*
X54311800Y-91142243D01*
X54394187Y-91060000D01*
X55332193Y-91060000D01*
X55641212Y-91188316D01*
X55386169Y-91293958D01*
X55324331Y-91529725D01*
X56080000Y-92285395D01*
X56835669Y-91529725D01*
X56773831Y-91293958D01*
X56497889Y-91196804D01*
X56835229Y-91057418D01*
X57211098Y-90682204D01*
X57350091Y-90347473D01*
X57487582Y-90680229D01*
X57862796Y-91056098D01*
X58197527Y-91195091D01*
X57864771Y-91332582D01*
X57488902Y-91707796D01*
X57356684Y-92026212D01*
X57251042Y-91771169D01*
X57015275Y-91709331D01*
X56259605Y-92465000D01*
X57015275Y-93220669D01*
X57251042Y-93158831D01*
X57348196Y-92882889D01*
X57487582Y-93220229D01*
X57862796Y-93596098D01*
X58181212Y-93728316D01*
X57926169Y-93833958D01*
X57864331Y-94069725D01*
X58620000Y-94825395D01*
X59375669Y-94069725D01*
X59313831Y-93833958D01*
X59037889Y-93736804D01*
X59375229Y-93597418D01*
X59751098Y-93222204D01*
X59954768Y-92731713D01*
X59955231Y-92200617D01*
X59752418Y-91709771D01*
X59564809Y-91521834D01*
X62364543Y-91521834D01*
X62764853Y-92490658D01*
X63505443Y-93232542D01*
X64473567Y-93634542D01*
X65521834Y-93635457D01*
X66490658Y-93235147D01*
X67232542Y-92494557D01*
X67634542Y-91526433D01*
X67634546Y-91521834D01*
X69864543Y-91521834D01*
X70264853Y-92490658D01*
X71005443Y-93232542D01*
X71973567Y-93634542D01*
X73021834Y-93635457D01*
X73990658Y-93235147D01*
X74732542Y-92494557D01*
X75134542Y-91526433D01*
X75135457Y-90478166D01*
X74735147Y-89509342D01*
X73994557Y-88767458D01*
X73026433Y-88365458D01*
X71978166Y-88364543D01*
X71009342Y-88764853D01*
X70267458Y-89505443D01*
X69865458Y-90473567D01*
X69864543Y-91521834D01*
X67634546Y-91521834D01*
X67635457Y-90478166D01*
X67235147Y-89509342D01*
X66494557Y-88767458D01*
X65526433Y-88365458D01*
X64478166Y-88364543D01*
X63509342Y-88764853D01*
X62767458Y-89505443D01*
X62365458Y-90473567D01*
X62364543Y-91521834D01*
X59564809Y-91521834D01*
X59377204Y-91333902D01*
X59042473Y-91194909D01*
X59375229Y-91057418D01*
X59751098Y-90682204D01*
X59954768Y-90191713D01*
X59955231Y-89660617D01*
X59752418Y-89169771D01*
X59377204Y-88793902D01*
X59042473Y-88654909D01*
X59375229Y-88517418D01*
X59751098Y-88142204D01*
X59954768Y-87651713D01*
X59955168Y-87192122D01*
X77592581Y-87192122D01*
X77621336Y-87722440D01*
X77768958Y-88078831D01*
X78004725Y-88140669D01*
X78760395Y-87385000D01*
X78004725Y-86629331D01*
X77768958Y-86691169D01*
X77592581Y-87192122D01*
X59955168Y-87192122D01*
X59955231Y-87120617D01*
X59752418Y-86629771D01*
X59377204Y-86253902D01*
X59042473Y-86114909D01*
X59375229Y-85977418D01*
X59751098Y-85602204D01*
X59890091Y-85267473D01*
X60027582Y-85600229D01*
X60402796Y-85976098D01*
X60893287Y-86179768D01*
X61424383Y-86180231D01*
X61915229Y-85977418D01*
X62291098Y-85602204D01*
X62430091Y-85267473D01*
X62567582Y-85600229D01*
X62942796Y-85976098D01*
X63433287Y-86179768D01*
X63964383Y-86180231D01*
X64455229Y-85977418D01*
X64831098Y-85602204D01*
X64970091Y-85267473D01*
X65107582Y-85600229D01*
X65482796Y-85976098D01*
X65973287Y-86179768D01*
X66504383Y-86180231D01*
X66995229Y-85977418D01*
X67371098Y-85602204D01*
X67510091Y-85267473D01*
X67647582Y-85600229D01*
X68022796Y-85976098D01*
X68513287Y-86179768D01*
X69044383Y-86180231D01*
X69535229Y-85977418D01*
X69911098Y-85602204D01*
X70050091Y-85267473D01*
X70187582Y-85600229D01*
X70562796Y-85976098D01*
X71053287Y-86179768D01*
X71584383Y-86180231D01*
X72075229Y-85977418D01*
X72451098Y-85602204D01*
X72590091Y-85267473D01*
X72727582Y-85600229D01*
X73102796Y-85976098D01*
X73593287Y-86179768D01*
X74124383Y-86180231D01*
X74615229Y-85977418D01*
X74991098Y-85602204D01*
X75130091Y-85267473D01*
X75267582Y-85600229D01*
X75642796Y-85976098D01*
X76133287Y-86179768D01*
X76664383Y-86180231D01*
X77155229Y-85977418D01*
X77531098Y-85602204D01*
X77670091Y-85267473D01*
X77807582Y-85600229D01*
X78182796Y-85976098D01*
X78501212Y-86108316D01*
X78246169Y-86213958D01*
X78184331Y-86449725D01*
X78940000Y-87205395D01*
X79695669Y-86449725D01*
X79633831Y-86213958D01*
X79357889Y-86116804D01*
X79695229Y-85977418D01*
X80071098Y-85602204D01*
X80210091Y-85267473D01*
X80347582Y-85600229D01*
X80722796Y-85976098D01*
X81057527Y-86115091D01*
X80724771Y-86252582D01*
X80348902Y-86627796D01*
X80216684Y-86946212D01*
X80111042Y-86691169D01*
X79875275Y-86629331D01*
X79119605Y-87385000D01*
X79875275Y-88140669D01*
X80111042Y-88078831D01*
X80208196Y-87802889D01*
X80347582Y-88140229D01*
X80722796Y-88516098D01*
X81041212Y-88648316D01*
X80786169Y-88753958D01*
X80724331Y-88989725D01*
X81480000Y-89745395D01*
X82235669Y-88989725D01*
X82173831Y-88753958D01*
X81897889Y-88656804D01*
X82235229Y-88517418D01*
X82611098Y-88142204D01*
X82814768Y-87651713D01*
X82815231Y-87120617D01*
X82643490Y-86704971D01*
X92964821Y-86704971D01*
X93122058Y-87085515D01*
X93412954Y-87376919D01*
X93793223Y-87534820D01*
X94204971Y-87535179D01*
X94447424Y-87435000D01*
X94499710Y-87435000D01*
X94739560Y-87674850D01*
X94739560Y-88500000D01*
X94788843Y-88747765D01*
X94929191Y-88957809D01*
X94990320Y-88998654D01*
X94848673Y-89140302D01*
X94752000Y-89373691D01*
X94752000Y-89964250D01*
X94910750Y-90123000D01*
X95885000Y-90123000D01*
X95885000Y-90103000D01*
X96139000Y-90103000D01*
X96139000Y-90123000D01*
X97113250Y-90123000D01*
X97272000Y-89964250D01*
X97272000Y-89373691D01*
X97175327Y-89140302D01*
X97033680Y-88998654D01*
X97094809Y-88957809D01*
X97235157Y-88747765D01*
X97282053Y-88512000D01*
X97724838Y-88512000D01*
X97751843Y-88647765D01*
X97892191Y-88857809D01*
X98102235Y-88998157D01*
X98111500Y-89000000D01*
X98102235Y-89001843D01*
X97892191Y-89142191D01*
X97751843Y-89352235D01*
X97702560Y-89600000D01*
X97702560Y-91100000D01*
X97751843Y-91347765D01*
X97892191Y-91557809D01*
X98102235Y-91698157D01*
X98238000Y-91725162D01*
X98238000Y-91798235D01*
X98123081Y-91912954D01*
X97965180Y-92293223D01*
X97964821Y-92704971D01*
X98122058Y-93085515D01*
X98412954Y-93376919D01*
X98793223Y-93534820D01*
X99204971Y-93535179D01*
X99585515Y-93377942D01*
X99876919Y-93087046D01*
X100034820Y-92706777D01*
X100035179Y-92295029D01*
X99877942Y-91914485D01*
X99762000Y-91798341D01*
X99762000Y-91725162D01*
X99897765Y-91698157D01*
X100107809Y-91557809D01*
X100248157Y-91347765D01*
X100297440Y-91100000D01*
X100297440Y-89600000D01*
X100248157Y-89352235D01*
X100107809Y-89142191D01*
X99897765Y-89001843D01*
X99888500Y-89000000D01*
X99897765Y-88998157D01*
X100107809Y-88857809D01*
X100248157Y-88647765D01*
X100297440Y-88400000D01*
X100297440Y-87485750D01*
X113915000Y-87485750D01*
X113915000Y-87951310D01*
X114011673Y-88184699D01*
X114190302Y-88363327D01*
X114423691Y-88460000D01*
X115014250Y-88460000D01*
X115173000Y-88301250D01*
X115173000Y-87327000D01*
X114073750Y-87327000D01*
X113915000Y-87485750D01*
X100297440Y-87485750D01*
X100297440Y-86900000D01*
X100248157Y-86652235D01*
X100112152Y-86448690D01*
X113915000Y-86448690D01*
X113915000Y-86914250D01*
X114073750Y-87073000D01*
X115173000Y-87073000D01*
X115173000Y-86098750D01*
X115427000Y-86098750D01*
X115427000Y-87073000D01*
X115447000Y-87073000D01*
X115447000Y-87327000D01*
X115427000Y-87327000D01*
X115427000Y-88301250D01*
X115585750Y-88460000D01*
X116176309Y-88460000D01*
X116409698Y-88363327D01*
X116551346Y-88221680D01*
X116592191Y-88282809D01*
X116802235Y-88423157D01*
X117050000Y-88472440D01*
X118550000Y-88472440D01*
X118797765Y-88423157D01*
X118862354Y-88380000D01*
X119596000Y-88380000D01*
X120030346Y-88293603D01*
X120398566Y-88047566D01*
X120644603Y-87679346D01*
X120731000Y-87245000D01*
X120644603Y-86810654D01*
X120398566Y-86442434D01*
X120030346Y-86196397D01*
X119596000Y-86110000D01*
X118997047Y-86110000D01*
X118797765Y-85976843D01*
X118550000Y-85927560D01*
X117050000Y-85927560D01*
X116802235Y-85976843D01*
X116592191Y-86117191D01*
X116551346Y-86178320D01*
X116409698Y-86036673D01*
X116176309Y-85940000D01*
X115585750Y-85940000D01*
X115427000Y-86098750D01*
X115173000Y-86098750D01*
X115014250Y-85940000D01*
X114423691Y-85940000D01*
X114190302Y-86036673D01*
X114011673Y-86215301D01*
X113915000Y-86448690D01*
X100112152Y-86448690D01*
X100107809Y-86442191D01*
X99897765Y-86301843D01*
X99650000Y-86252560D01*
X98350000Y-86252560D01*
X98102235Y-86301843D01*
X97892191Y-86442191D01*
X97751843Y-86652235D01*
X97702560Y-86900000D01*
X97702560Y-86988000D01*
X97282053Y-86988000D01*
X97235157Y-86752235D01*
X97094809Y-86542191D01*
X96884765Y-86401843D01*
X96637000Y-86352560D01*
X96061850Y-86352560D01*
X95548145Y-85838855D01*
X95244809Y-85636173D01*
X94887000Y-85565000D01*
X94447171Y-85565000D01*
X94206777Y-85465180D01*
X93795029Y-85464821D01*
X93414485Y-85622058D01*
X93123081Y-85912954D01*
X92965180Y-86293223D01*
X92964821Y-86704971D01*
X82643490Y-86704971D01*
X82612418Y-86629771D01*
X82237204Y-86253902D01*
X81902473Y-86114909D01*
X82235229Y-85977418D01*
X82611098Y-85602204D01*
X82814768Y-85111713D01*
X82815231Y-84580617D01*
X82612418Y-84089771D01*
X82237204Y-83713902D01*
X81746713Y-83510232D01*
X81215617Y-83509769D01*
X80724771Y-83712582D01*
X80348902Y-84087796D01*
X80209909Y-84422527D01*
X80072418Y-84089771D01*
X79697204Y-83713902D01*
X79362473Y-83574909D01*
X79695229Y-83437418D01*
X80071098Y-83062204D01*
X80274768Y-82571713D01*
X80275231Y-82040617D01*
X80072418Y-81549771D01*
X79697204Y-81173902D01*
X79352457Y-81030750D01*
X115785000Y-81030750D01*
X115785000Y-81621309D01*
X115881673Y-81854698D01*
X116060301Y-82033327D01*
X116293690Y-82130000D01*
X116759250Y-82130000D01*
X116918000Y-81971250D01*
X116918000Y-80872000D01*
X117172000Y-80872000D01*
X117172000Y-81971250D01*
X117330750Y-82130000D01*
X117796310Y-82130000D01*
X118029699Y-82033327D01*
X118208327Y-81854698D01*
X118305000Y-81621309D01*
X118305000Y-81030750D01*
X118146250Y-80872000D01*
X117172000Y-80872000D01*
X116918000Y-80872000D01*
X115943750Y-80872000D01*
X115785000Y-81030750D01*
X79352457Y-81030750D01*
X79206713Y-80970232D01*
X78675617Y-80969769D01*
X78184771Y-81172582D01*
X77808902Y-81547796D01*
X77669909Y-81882527D01*
X77532418Y-81549771D01*
X77157204Y-81173902D01*
X76666713Y-80970232D01*
X76135617Y-80969769D01*
X75644771Y-81172582D01*
X75268902Y-81547796D01*
X75129909Y-81882527D01*
X74992418Y-81549771D01*
X74617204Y-81173902D01*
X74126713Y-80970232D01*
X73595617Y-80969769D01*
X73104771Y-81172582D01*
X72728902Y-81547796D01*
X72589909Y-81882527D01*
X72452418Y-81549771D01*
X72077204Y-81173902D01*
X71586713Y-80970232D01*
X71055617Y-80969769D01*
X70564771Y-81172582D01*
X70188902Y-81547796D01*
X70049909Y-81882527D01*
X69912418Y-81549771D01*
X69537204Y-81173902D01*
X69046713Y-80970232D01*
X68515617Y-80969769D01*
X68024771Y-81172582D01*
X67648902Y-81547796D01*
X67509909Y-81882527D01*
X67372418Y-81549771D01*
X66997204Y-81173902D01*
X66506713Y-80970232D01*
X65975617Y-80969769D01*
X65484771Y-81172582D01*
X65108902Y-81547796D01*
X64969909Y-81882527D01*
X64832418Y-81549771D01*
X64457204Y-81173902D01*
X63966713Y-80970232D01*
X63435617Y-80969769D01*
X62944771Y-81172582D01*
X62568902Y-81547796D01*
X62429909Y-81882527D01*
X62292418Y-81549771D01*
X61917204Y-81173902D01*
X61426713Y-80970232D01*
X60895617Y-80969769D01*
X60404771Y-81172582D01*
X60028902Y-81547796D01*
X59889909Y-81882527D01*
X59752418Y-81549771D01*
X59377204Y-81173902D01*
X58886713Y-80970232D01*
X58355617Y-80969769D01*
X57864771Y-81172582D01*
X57488902Y-81547796D01*
X57285232Y-82038287D01*
X57284769Y-82569383D01*
X57487582Y-83060229D01*
X57862796Y-83436098D01*
X58197527Y-83575091D01*
X57864771Y-83712582D01*
X57488902Y-84087796D01*
X57349909Y-84422527D01*
X57212418Y-84089771D01*
X56842000Y-83718706D01*
X56842000Y-79787750D01*
X86539000Y-79787750D01*
X86539000Y-80253310D01*
X86635673Y-80486699D01*
X86814302Y-80665327D01*
X87047691Y-80762000D01*
X87638250Y-80762000D01*
X87797000Y-80603250D01*
X87797000Y-79629000D01*
X86697750Y-79629000D01*
X86539000Y-79787750D01*
X56842000Y-79787750D01*
X56842000Y-78750690D01*
X86539000Y-78750690D01*
X86539000Y-79216250D01*
X86697750Y-79375000D01*
X87797000Y-79375000D01*
X87797000Y-78400750D01*
X87638250Y-78242000D01*
X87047691Y-78242000D01*
X86814302Y-78338673D01*
X86635673Y-78517301D01*
X86539000Y-78750690D01*
X56842000Y-78750690D01*
X56842000Y-76204971D01*
X86964821Y-76204971D01*
X87122058Y-76585515D01*
X87412954Y-76876919D01*
X87793223Y-77034820D01*
X88204971Y-77035179D01*
X88585515Y-76877942D01*
X88701659Y-76762000D01*
X89774299Y-76762000D01*
X89623081Y-76912954D01*
X89465180Y-77293223D01*
X89464821Y-77704971D01*
X89622058Y-78085515D01*
X89665000Y-78128532D01*
X89665000Y-78231350D01*
X89426235Y-78278843D01*
X89216191Y-78419191D01*
X89175346Y-78480320D01*
X89033698Y-78338673D01*
X88800309Y-78242000D01*
X88209750Y-78242000D01*
X88051000Y-78400750D01*
X88051000Y-79375000D01*
X88071000Y-79375000D01*
X88071000Y-79629000D01*
X88051000Y-79629000D01*
X88051000Y-80603250D01*
X88209750Y-80762000D01*
X88800309Y-80762000D01*
X89033698Y-80665327D01*
X89175346Y-80523680D01*
X89216191Y-80584809D01*
X89426235Y-80725157D01*
X89674000Y-80774440D01*
X91174000Y-80774440D01*
X91421765Y-80725157D01*
X91631809Y-80584809D01*
X91772157Y-80374765D01*
X91821440Y-80127000D01*
X91821440Y-78877000D01*
X91772157Y-78629235D01*
X91631809Y-78419191D01*
X91421765Y-78278843D01*
X91335000Y-78261585D01*
X91335000Y-78128892D01*
X91376919Y-78087046D01*
X91534820Y-77706777D01*
X91535179Y-77295029D01*
X91395315Y-76956531D01*
X91585515Y-76877942D01*
X91876919Y-76587046D01*
X92034820Y-76206777D01*
X92035179Y-75795029D01*
X91877942Y-75414485D01*
X91587046Y-75123081D01*
X91206777Y-74965180D01*
X90795029Y-74964821D01*
X90414485Y-75122058D01*
X90298341Y-75238000D01*
X88701765Y-75238000D01*
X88587046Y-75123081D01*
X88206777Y-74965180D01*
X87795029Y-74964821D01*
X87414485Y-75122058D01*
X87123081Y-75412954D01*
X86965180Y-75793223D01*
X86964821Y-76204971D01*
X56842000Y-76204971D01*
X56842000Y-71561765D01*
X56956919Y-71447046D01*
X57114820Y-71066777D01*
X57115179Y-70655029D01*
X57110519Y-70643750D01*
X86539000Y-70643750D01*
X86539000Y-71109310D01*
X86635673Y-71342699D01*
X86814302Y-71521327D01*
X87047691Y-71618000D01*
X87638250Y-71618000D01*
X87797000Y-71459250D01*
X87797000Y-70485000D01*
X86697750Y-70485000D01*
X86539000Y-70643750D01*
X57110519Y-70643750D01*
X56957942Y-70274485D01*
X56667046Y-69983081D01*
X56286777Y-69825180D01*
X55875029Y-69824821D01*
X55494485Y-69982058D01*
X55203081Y-70272954D01*
X55045180Y-70653223D01*
X55044821Y-71064971D01*
X55202058Y-71445515D01*
X55318000Y-71561659D01*
X55318000Y-83719341D01*
X54948902Y-84087796D01*
X54745232Y-84578287D01*
X54744769Y-85109383D01*
X54947582Y-85600229D01*
X55322796Y-85976098D01*
X55657527Y-86115091D01*
X55324771Y-86252582D01*
X54948902Y-86627796D01*
X54745232Y-87118287D01*
X54744769Y-87649383D01*
X54947582Y-88140229D01*
X55322796Y-88516098D01*
X55657527Y-88655091D01*
X55331020Y-88790000D01*
X54394606Y-88790000D01*
X54313923Y-88709176D01*
X53786691Y-88490250D01*
X53215813Y-88489752D01*
X52688200Y-88707757D01*
X52284176Y-89111077D01*
X52065250Y-89638309D01*
X52064752Y-90209187D01*
X50710000Y-90209187D01*
X50710000Y-69606690D01*
X86539000Y-69606690D01*
X86539000Y-70072250D01*
X86697750Y-70231000D01*
X87797000Y-70231000D01*
X87797000Y-69256750D01*
X87638250Y-69098000D01*
X87047691Y-69098000D01*
X86814302Y-69194673D01*
X86635673Y-69373301D01*
X86539000Y-69606690D01*
X50710000Y-69606690D01*
X50710000Y-67704971D01*
X86959821Y-67704971D01*
X87117058Y-68085515D01*
X87407954Y-68376919D01*
X87788223Y-68534820D01*
X88199971Y-68535179D01*
X88580515Y-68377942D01*
X88696659Y-68262000D01*
X89478145Y-68262000D01*
X89465180Y-68293223D01*
X89464821Y-68704971D01*
X89622058Y-69085515D01*
X89630701Y-69094173D01*
X89426235Y-69134843D01*
X89216191Y-69275191D01*
X89175346Y-69336320D01*
X89033698Y-69194673D01*
X88800309Y-69098000D01*
X88209750Y-69098000D01*
X88051000Y-69256750D01*
X88051000Y-70231000D01*
X88071000Y-70231000D01*
X88071000Y-70485000D01*
X88051000Y-70485000D01*
X88051000Y-71459250D01*
X88209750Y-71618000D01*
X88800309Y-71618000D01*
X89033698Y-71521327D01*
X89175346Y-71379680D01*
X89216191Y-71440809D01*
X89426235Y-71581157D01*
X89674000Y-71630440D01*
X91174000Y-71630440D01*
X91421765Y-71581157D01*
X91631809Y-71440809D01*
X91772157Y-71230765D01*
X91821440Y-70983000D01*
X91821440Y-69733000D01*
X91772157Y-69485235D01*
X91631809Y-69275191D01*
X91421765Y-69134843D01*
X91344445Y-69119463D01*
X91376919Y-69087046D01*
X91534820Y-68706777D01*
X91535179Y-68295029D01*
X91453005Y-68096152D01*
X91538815Y-68038815D01*
X91542593Y-68035037D01*
X91704971Y-68035179D01*
X92085515Y-67877942D01*
X92376919Y-67587046D01*
X92534820Y-67206777D01*
X92535179Y-66795029D01*
X92447663Y-66583222D01*
X110180052Y-66583222D01*
X110398057Y-67110835D01*
X110480300Y-67193222D01*
X110480300Y-72690300D01*
X110566697Y-73124646D01*
X110799460Y-73473000D01*
X110812734Y-73492866D01*
X115772560Y-78452692D01*
X115772560Y-78995000D01*
X115821843Y-79242765D01*
X115962191Y-79452809D01*
X116023320Y-79493654D01*
X115881673Y-79635302D01*
X115785000Y-79868691D01*
X115785000Y-80459250D01*
X115943750Y-80618000D01*
X116918000Y-80618000D01*
X116918000Y-80598000D01*
X117172000Y-80598000D01*
X117172000Y-80618000D01*
X118146250Y-80618000D01*
X118305000Y-80459250D01*
X118305000Y-79868691D01*
X118208327Y-79635302D01*
X118066680Y-79493654D01*
X118127809Y-79452809D01*
X118176459Y-79380000D01*
X118860999Y-79380000D01*
X118860999Y-80095999D01*
X118947396Y-80530345D01*
X119175683Y-80872000D01*
X119193433Y-80898565D01*
X124170000Y-85875132D01*
X124170000Y-91911132D01*
X124154947Y-91874701D01*
X123864051Y-91583297D01*
X123483782Y-91425396D01*
X123350134Y-91425279D01*
X123236430Y-91150094D01*
X123149263Y-91062775D01*
X123337060Y-90875306D01*
X123494961Y-90495037D01*
X123495320Y-90083289D01*
X123338083Y-89702745D01*
X123047187Y-89411341D01*
X122666918Y-89253440D01*
X122255170Y-89253081D01*
X121874626Y-89410318D01*
X121583222Y-89701214D01*
X121425321Y-90081483D01*
X121425178Y-90245592D01*
X121053150Y-90617621D01*
X120569187Y-90617621D01*
X120454468Y-90502702D01*
X120074199Y-90344801D01*
X119662451Y-90344442D01*
X119281907Y-90501679D01*
X118990503Y-90792575D01*
X118832602Y-91172844D01*
X118832243Y-91584592D01*
X118984078Y-91952063D01*
X118923081Y-92012954D01*
X118765180Y-92393223D01*
X118764821Y-92804971D01*
X118822226Y-92943902D01*
X118707238Y-93058690D01*
X118549337Y-93438959D01*
X118548978Y-93850707D01*
X118706215Y-94231251D01*
X118997111Y-94522655D01*
X119364778Y-94675323D01*
X119002434Y-94917434D01*
X118756397Y-95285654D01*
X118670000Y-95720000D01*
X118756397Y-96154346D01*
X119002434Y-96522566D01*
X119370654Y-96768603D01*
X119805000Y-96855000D01*
X120248446Y-96855000D01*
X120276843Y-96997765D01*
X120417191Y-97207809D01*
X120478320Y-97248654D01*
X120336673Y-97390302D01*
X120240000Y-97623691D01*
X120240000Y-98214250D01*
X120398750Y-98373000D01*
X121373000Y-98373000D01*
X121373000Y-98353000D01*
X121627000Y-98353000D01*
X121627000Y-98373000D01*
X122601250Y-98373000D01*
X122760000Y-98214250D01*
X122760000Y-97623691D01*
X122663327Y-97390302D01*
X122521680Y-97248654D01*
X122582809Y-97207809D01*
X122723157Y-96997765D01*
X122772440Y-96750000D01*
X122772440Y-95250000D01*
X122723157Y-95002235D01*
X122582809Y-94792191D01*
X122372765Y-94651843D01*
X122125000Y-94602560D01*
X121308280Y-94602560D01*
X121220000Y-94585000D01*
X120021261Y-94585000D01*
X120169672Y-94523678D01*
X120285816Y-94407736D01*
X122091485Y-94407736D01*
X122383090Y-94349732D01*
X122630300Y-94184551D01*
X123319598Y-93495253D01*
X123481976Y-93495395D01*
X123862520Y-93338158D01*
X124153924Y-93047262D01*
X124170000Y-93008547D01*
X124170000Y-95974000D01*
X124256397Y-96408346D01*
X124502434Y-96776566D01*
X124870654Y-97022603D01*
X125305000Y-97109000D01*
X125651168Y-97109000D01*
X125717191Y-97207809D01*
X125778320Y-97248654D01*
X125636673Y-97390302D01*
X125540000Y-97623691D01*
X125540000Y-98214250D01*
X125698750Y-98373000D01*
X126673000Y-98373000D01*
X126673000Y-98353000D01*
X126927000Y-98353000D01*
X126927000Y-98373000D01*
X127901250Y-98373000D01*
X128060000Y-98214250D01*
X128060000Y-97623691D01*
X127963327Y-97390302D01*
X127821680Y-97248654D01*
X127882809Y-97207809D01*
X128023157Y-96997765D01*
X128072440Y-96750000D01*
X128072440Y-95974000D01*
X128670000Y-95974000D01*
X128756397Y-96408346D01*
X129002434Y-96776566D01*
X129370654Y-97022603D01*
X129805000Y-97109000D01*
X130084350Y-97109000D01*
X130217191Y-97307809D01*
X130278320Y-97348654D01*
X130136673Y-97490302D01*
X130040000Y-97723691D01*
X130040000Y-98314250D01*
X130198750Y-98473000D01*
X131173000Y-98473000D01*
X131173000Y-98453000D01*
X131427000Y-98453000D01*
X131427000Y-98473000D01*
X132401250Y-98473000D01*
X132560000Y-98314250D01*
X132560000Y-97723691D01*
X132463327Y-97490302D01*
X132321680Y-97348654D01*
X132382809Y-97307809D01*
X132523157Y-97097765D01*
X132572440Y-96850000D01*
X132572440Y-95350000D01*
X132523157Y-95102235D01*
X132382809Y-94892191D01*
X132172765Y-94751843D01*
X131925000Y-94702560D01*
X130675000Y-94702560D01*
X130427235Y-94751843D01*
X130296796Y-94839000D01*
X129805000Y-94839000D01*
X129370654Y-94925397D01*
X129002434Y-95171434D01*
X128756397Y-95539654D01*
X128670000Y-95974000D01*
X128072440Y-95974000D01*
X128072440Y-95250000D01*
X128023157Y-95002235D01*
X127882809Y-94792191D01*
X127672765Y-94651843D01*
X127425000Y-94602560D01*
X126440000Y-94602560D01*
X126440000Y-92104971D01*
X134964821Y-92104971D01*
X135122058Y-92485515D01*
X135412954Y-92776919D01*
X135793223Y-92934820D01*
X136204971Y-92935179D01*
X136210974Y-92932699D01*
X136202560Y-92975000D01*
X136202560Y-94225000D01*
X136251843Y-94472765D01*
X136392191Y-94682809D01*
X136495000Y-94751504D01*
X136495000Y-95745000D01*
X136581397Y-96179346D01*
X136827434Y-96547566D01*
X136939449Y-96622412D01*
X137036366Y-96767458D01*
X137091185Y-96849500D01*
X141110500Y-100868816D01*
X141258692Y-100967834D01*
X141357710Y-101033996D01*
X141649315Y-101092000D01*
X141971688Y-101092000D01*
X142170585Y-101389670D01*
X142480069Y-101596461D01*
X142064268Y-101967964D01*
X141810291Y-102495209D01*
X141807642Y-102510974D01*
X141928783Y-102743000D01*
X143288000Y-102743000D01*
X143288000Y-102723000D01*
X143542000Y-102723000D01*
X143542000Y-102743000D01*
X144901217Y-102743000D01*
X145022358Y-102510974D01*
X145019709Y-102495209D01*
X144765732Y-101967964D01*
X144349931Y-101596461D01*
X144659415Y-101389670D01*
X144984271Y-100903489D01*
X145098345Y-100330000D01*
X144984271Y-99756511D01*
X144659415Y-99270330D01*
X144173234Y-98945474D01*
X143599745Y-98831400D01*
X143230255Y-98831400D01*
X142656766Y-98945474D01*
X142170585Y-99270330D01*
X141971688Y-99568000D01*
X141964946Y-99568000D01*
X138637623Y-96240677D01*
X138678603Y-96179346D01*
X138765000Y-95745000D01*
X138765000Y-94711413D01*
X138807809Y-94682809D01*
X138848654Y-94621680D01*
X138990302Y-94763327D01*
X139223691Y-94860000D01*
X139814250Y-94860000D01*
X139973000Y-94701250D01*
X139973000Y-93727000D01*
X140227000Y-93727000D01*
X140227000Y-94701250D01*
X140385750Y-94860000D01*
X140976309Y-94860000D01*
X141209698Y-94763327D01*
X141388327Y-94584699D01*
X141485000Y-94351310D01*
X141485000Y-93885750D01*
X141326250Y-93727000D01*
X140227000Y-93727000D01*
X139973000Y-93727000D01*
X139953000Y-93727000D01*
X139953000Y-93473000D01*
X139973000Y-93473000D01*
X139973000Y-93453000D01*
X140227000Y-93453000D01*
X140227000Y-93473000D01*
X141326250Y-93473000D01*
X141485000Y-93314250D01*
X141485000Y-92848690D01*
X141407670Y-92662000D01*
X141707084Y-92662000D01*
X141707034Y-92718798D01*
X141864271Y-93099342D01*
X142155167Y-93390746D01*
X142535436Y-93548647D01*
X142947184Y-93549006D01*
X143327728Y-93391769D01*
X143619132Y-93100873D01*
X143769747Y-92738150D01*
X143903556Y-92738267D01*
X143858655Y-92964000D01*
X143972729Y-93537489D01*
X144297585Y-94023670D01*
X144612366Y-94234000D01*
X144297585Y-94444330D01*
X143972729Y-94930511D01*
X143858655Y-95504000D01*
X143972729Y-96077489D01*
X144297585Y-96563670D01*
X144783766Y-96888526D01*
X145357255Y-97002600D01*
X145726745Y-97002600D01*
X146300234Y-96888526D01*
X146786415Y-96563670D01*
X147111271Y-96077489D01*
X147225345Y-95504000D01*
X147111271Y-94930511D01*
X146786415Y-94444330D01*
X146471634Y-94234000D01*
X146786415Y-94023670D01*
X147111271Y-93537489D01*
X147225345Y-92964000D01*
X147111271Y-92390511D01*
X146786415Y-91904330D01*
X146471634Y-91694000D01*
X146786415Y-91483670D01*
X147111271Y-90997489D01*
X147225345Y-90424000D01*
X147111271Y-89850511D01*
X146786415Y-89364330D01*
X146471634Y-89154000D01*
X146786415Y-88943670D01*
X147111271Y-88457489D01*
X147225345Y-87884000D01*
X147111271Y-87310511D01*
X146786415Y-86824330D01*
X146471634Y-86614000D01*
X146786415Y-86403670D01*
X147111271Y-85917489D01*
X147225345Y-85344000D01*
X147111271Y-84770511D01*
X146786415Y-84284330D01*
X146471634Y-84074000D01*
X146786415Y-83863670D01*
X147111271Y-83377489D01*
X147225345Y-82804000D01*
X147111271Y-82230511D01*
X146786415Y-81744330D01*
X146300234Y-81419474D01*
X145726745Y-81305400D01*
X145357255Y-81305400D01*
X144783766Y-81419474D01*
X144297585Y-81744330D01*
X143972729Y-82230511D01*
X143858655Y-82804000D01*
X143972729Y-83377489D01*
X144297585Y-83863670D01*
X144612366Y-84074000D01*
X144297585Y-84284330D01*
X143972729Y-84770511D01*
X143858655Y-85344000D01*
X143972729Y-85917489D01*
X144297585Y-86403670D01*
X144612366Y-86614000D01*
X144297585Y-86824330D01*
X143972729Y-87310511D01*
X143858655Y-87884000D01*
X143972729Y-88457489D01*
X144297585Y-88943670D01*
X144612366Y-89154000D01*
X144297585Y-89364330D01*
X143972729Y-89850511D01*
X143858655Y-90424000D01*
X143907243Y-90668270D01*
X143804279Y-90668180D01*
X143597283Y-90461185D01*
X143541632Y-90424000D01*
X143350073Y-90296004D01*
X143058468Y-90238000D01*
X142062555Y-90238000D01*
X142062769Y-89992397D01*
X141905532Y-89611853D01*
X141614636Y-89320449D01*
X141234367Y-89162548D01*
X141070257Y-89162405D01*
X141069037Y-89161185D01*
X141048466Y-89147440D01*
X140821827Y-88996004D01*
X140530222Y-88938000D01*
X137801765Y-88938000D01*
X137687046Y-88823081D01*
X137306777Y-88665180D01*
X136895029Y-88664821D01*
X136514485Y-88822058D01*
X136223081Y-89112954D01*
X136065180Y-89493223D01*
X136064821Y-89904971D01*
X136222058Y-90285515D01*
X136401399Y-90465169D01*
X136265180Y-90793223D01*
X136265096Y-90889396D01*
X136206777Y-90865180D01*
X135795029Y-90864821D01*
X135414485Y-91022058D01*
X135123081Y-91312954D01*
X134965180Y-91693223D01*
X134964821Y-92104971D01*
X126440000Y-92104971D01*
X126440000Y-86745000D01*
X136495000Y-86745000D01*
X136581397Y-87179346D01*
X136827434Y-87547566D01*
X137195654Y-87793603D01*
X137630000Y-87880000D01*
X138337646Y-87880000D01*
X138402235Y-87923157D01*
X138650000Y-87972440D01*
X140150000Y-87972440D01*
X140397765Y-87923157D01*
X140607809Y-87782809D01*
X140648654Y-87721680D01*
X140790302Y-87863327D01*
X141023691Y-87960000D01*
X141614250Y-87960000D01*
X141773000Y-87801250D01*
X141773000Y-86827000D01*
X142027000Y-86827000D01*
X142027000Y-87801250D01*
X142185750Y-87960000D01*
X142776309Y-87960000D01*
X143009698Y-87863327D01*
X143188327Y-87684699D01*
X143285000Y-87451310D01*
X143285000Y-86985750D01*
X143126250Y-86827000D01*
X142027000Y-86827000D01*
X141773000Y-86827000D01*
X141753000Y-86827000D01*
X141753000Y-86573000D01*
X141773000Y-86573000D01*
X141773000Y-85598750D01*
X142027000Y-85598750D01*
X142027000Y-86573000D01*
X143126250Y-86573000D01*
X143285000Y-86414250D01*
X143285000Y-85948690D01*
X143188327Y-85715301D01*
X143009698Y-85536673D01*
X142776309Y-85440000D01*
X142185750Y-85440000D01*
X142027000Y-85598750D01*
X141773000Y-85598750D01*
X141614250Y-85440000D01*
X141023691Y-85440000D01*
X140790302Y-85536673D01*
X140648654Y-85678320D01*
X140607809Y-85617191D01*
X140397765Y-85476843D01*
X140150000Y-85427560D01*
X138650000Y-85427560D01*
X138402235Y-85476843D01*
X138202953Y-85610000D01*
X137630000Y-85610000D01*
X137195654Y-85696397D01*
X136827434Y-85942434D01*
X136581397Y-86310654D01*
X136495000Y-86745000D01*
X126440000Y-86745000D01*
X126440000Y-86540000D01*
X129840000Y-86540000D01*
X130274346Y-86453603D01*
X130642566Y-86207566D01*
X136617201Y-80232931D01*
X136827434Y-80547566D01*
X137195654Y-80793603D01*
X137630000Y-80880000D01*
X138190314Y-80880000D01*
X138192191Y-80882809D01*
X138402235Y-81023157D01*
X138650000Y-81072440D01*
X140150000Y-81072440D01*
X140397765Y-81023157D01*
X140607809Y-80882809D01*
X140648654Y-80821680D01*
X140790302Y-80963327D01*
X141023691Y-81060000D01*
X141614250Y-81060000D01*
X141773000Y-80901250D01*
X141773000Y-79927000D01*
X142027000Y-79927000D01*
X142027000Y-80901250D01*
X142185750Y-81060000D01*
X142776309Y-81060000D01*
X143009698Y-80963327D01*
X143188327Y-80784699D01*
X143285000Y-80551310D01*
X143285000Y-80085750D01*
X143126250Y-79927000D01*
X142027000Y-79927000D01*
X141773000Y-79927000D01*
X141753000Y-79927000D01*
X141753000Y-79673000D01*
X141773000Y-79673000D01*
X141773000Y-78698750D01*
X142027000Y-78698750D01*
X142027000Y-79673000D01*
X143126250Y-79673000D01*
X143285000Y-79514250D01*
X143285000Y-79048690D01*
X143188327Y-78815301D01*
X143009698Y-78636673D01*
X142776309Y-78540000D01*
X142185750Y-78540000D01*
X142027000Y-78698750D01*
X141773000Y-78698750D01*
X141614250Y-78540000D01*
X141023691Y-78540000D01*
X140790302Y-78636673D01*
X140648654Y-78778320D01*
X140607809Y-78717191D01*
X140397765Y-78576843D01*
X140150000Y-78527560D01*
X138650000Y-78527560D01*
X138402235Y-78576843D01*
X138352612Y-78610000D01*
X138196144Y-78610000D01*
X138353603Y-78374346D01*
X138440000Y-77940000D01*
X138440000Y-77222217D01*
X138523157Y-77097765D01*
X138572440Y-76850000D01*
X138572440Y-75350000D01*
X138523157Y-75102235D01*
X138382809Y-74892191D01*
X138321680Y-74851346D01*
X138463327Y-74709698D01*
X138560000Y-74476309D01*
X138560000Y-73885750D01*
X138401250Y-73727000D01*
X137427000Y-73727000D01*
X137427000Y-73747000D01*
X137173000Y-73747000D01*
X137173000Y-73727000D01*
X136198750Y-73727000D01*
X136040000Y-73885750D01*
X136040000Y-74476309D01*
X136136673Y-74709698D01*
X136278320Y-74851346D01*
X136217191Y-74892191D01*
X136076843Y-75102235D01*
X136027560Y-75350000D01*
X136027560Y-76850000D01*
X136076843Y-77097765D01*
X136170000Y-77237183D01*
X136170000Y-77469868D01*
X129369868Y-84270000D01*
X125775132Y-84270000D01*
X121840254Y-80335122D01*
X121984187Y-80335248D01*
X122511800Y-80117243D01*
X122915824Y-79713923D01*
X123134750Y-79186691D01*
X123135248Y-78615813D01*
X122917243Y-78088200D01*
X122835000Y-78005813D01*
X122835000Y-77940000D01*
X123170000Y-77940000D01*
X123256397Y-78374345D01*
X123502434Y-78742566D01*
X123870655Y-78988603D01*
X124305000Y-79075000D01*
X124739345Y-78988603D01*
X125107566Y-78742566D01*
X126152692Y-77697440D01*
X126425000Y-77697440D01*
X126672765Y-77648157D01*
X126882809Y-77507809D01*
X127023157Y-77297765D01*
X127072440Y-77050000D01*
X127072440Y-75550000D01*
X127032658Y-75350000D01*
X132527560Y-75350000D01*
X132527560Y-76850000D01*
X132576843Y-77097765D01*
X132670000Y-77237183D01*
X132670000Y-77940000D01*
X132756397Y-78374346D01*
X133002434Y-78742566D01*
X133370654Y-78988603D01*
X133805000Y-79075000D01*
X134239346Y-78988603D01*
X134607566Y-78742566D01*
X134853603Y-78374346D01*
X134940000Y-77940000D01*
X134940000Y-77222217D01*
X135023157Y-77097765D01*
X135072440Y-76850000D01*
X135072440Y-75350000D01*
X135023157Y-75102235D01*
X134882809Y-74892191D01*
X134821680Y-74851346D01*
X134963327Y-74709698D01*
X135060000Y-74476309D01*
X135060000Y-73885750D01*
X134901250Y-73727000D01*
X133927000Y-73727000D01*
X133927000Y-73747000D01*
X133673000Y-73747000D01*
X133673000Y-73727000D01*
X132698750Y-73727000D01*
X132540000Y-73885750D01*
X132540000Y-74476309D01*
X132636673Y-74709698D01*
X132778320Y-74851346D01*
X132717191Y-74892191D01*
X132576843Y-75102235D01*
X132527560Y-75350000D01*
X127032658Y-75350000D01*
X127023157Y-75302235D01*
X126882809Y-75092191D01*
X126821680Y-75051346D01*
X126963327Y-74909698D01*
X127060000Y-74676309D01*
X127060000Y-74085750D01*
X126901250Y-73927000D01*
X125927000Y-73927000D01*
X125927000Y-73947000D01*
X125673000Y-73947000D01*
X125673000Y-73927000D01*
X124698750Y-73927000D01*
X124540000Y-74085750D01*
X124540000Y-74676309D01*
X124636673Y-74909698D01*
X124778320Y-75051346D01*
X124717191Y-75092191D01*
X124576843Y-75302235D01*
X124527560Y-75550000D01*
X124527560Y-76112308D01*
X123502434Y-77137434D01*
X123256397Y-77505655D01*
X123170000Y-77940000D01*
X122835000Y-77940000D01*
X122835000Y-77768630D01*
X122748603Y-77334284D01*
X122502566Y-76966064D01*
X121233936Y-75697434D01*
X121151623Y-75642434D01*
X120865716Y-75451397D01*
X120431370Y-75365000D01*
X118692245Y-75365000D01*
X116250936Y-72923691D01*
X124540000Y-72923691D01*
X124540000Y-73514250D01*
X124698750Y-73673000D01*
X125673000Y-73673000D01*
X125673000Y-72573750D01*
X125927000Y-72573750D01*
X125927000Y-73673000D01*
X126901250Y-73673000D01*
X127060000Y-73514250D01*
X127060000Y-72923691D01*
X126977158Y-72723691D01*
X132540000Y-72723691D01*
X132540000Y-73314250D01*
X132698750Y-73473000D01*
X133673000Y-73473000D01*
X133673000Y-72373750D01*
X133927000Y-72373750D01*
X133927000Y-73473000D01*
X134901250Y-73473000D01*
X135060000Y-73314250D01*
X135060000Y-72723691D01*
X136040000Y-72723691D01*
X136040000Y-73314250D01*
X136198750Y-73473000D01*
X137173000Y-73473000D01*
X137173000Y-72373750D01*
X137427000Y-72373750D01*
X137427000Y-73473000D01*
X138401250Y-73473000D01*
X138560000Y-73314250D01*
X138560000Y-72723691D01*
X138463327Y-72490302D01*
X138284699Y-72311673D01*
X138051310Y-72215000D01*
X137585750Y-72215000D01*
X137427000Y-72373750D01*
X137173000Y-72373750D01*
X137014250Y-72215000D01*
X136548690Y-72215000D01*
X136315301Y-72311673D01*
X136136673Y-72490302D01*
X136040000Y-72723691D01*
X135060000Y-72723691D01*
X134963327Y-72490302D01*
X134784699Y-72311673D01*
X134551310Y-72215000D01*
X134085750Y-72215000D01*
X133927000Y-72373750D01*
X133673000Y-72373750D01*
X133514250Y-72215000D01*
X133048690Y-72215000D01*
X132815301Y-72311673D01*
X132636673Y-72490302D01*
X132540000Y-72723691D01*
X126977158Y-72723691D01*
X126963327Y-72690302D01*
X126784699Y-72511673D01*
X126551310Y-72415000D01*
X126085750Y-72415000D01*
X125927000Y-72573750D01*
X125673000Y-72573750D01*
X125514250Y-72415000D01*
X125048690Y-72415000D01*
X124815301Y-72511673D01*
X124636673Y-72690302D01*
X124540000Y-72923691D01*
X116250936Y-72923691D01*
X114735000Y-71407755D01*
X114735000Y-69511003D01*
X114815824Y-69430320D01*
X115034750Y-68903088D01*
X115035248Y-68332210D01*
X114817243Y-67804597D01*
X114588795Y-67575750D01*
X128295000Y-67575750D01*
X128295000Y-68166309D01*
X128391673Y-68399698D01*
X128570301Y-68578327D01*
X128803690Y-68675000D01*
X129269250Y-68675000D01*
X129428000Y-68516250D01*
X129428000Y-67417000D01*
X129682000Y-67417000D01*
X129682000Y-68516250D01*
X129840750Y-68675000D01*
X130306310Y-68675000D01*
X130539699Y-68578327D01*
X130718327Y-68399698D01*
X130815000Y-68166309D01*
X130815000Y-67809750D01*
X133095000Y-67809750D01*
X133095000Y-68400309D01*
X133191673Y-68633698D01*
X133370301Y-68812327D01*
X133603690Y-68909000D01*
X134069250Y-68909000D01*
X134228000Y-68750250D01*
X134228000Y-67651000D01*
X134482000Y-67651000D01*
X134482000Y-68750250D01*
X134640750Y-68909000D01*
X135106310Y-68909000D01*
X135339699Y-68812327D01*
X135518327Y-68633698D01*
X135615000Y-68400309D01*
X135615000Y-67809750D01*
X135456250Y-67651000D01*
X134482000Y-67651000D01*
X134228000Y-67651000D01*
X133253750Y-67651000D01*
X133095000Y-67809750D01*
X130815000Y-67809750D01*
X130815000Y-67575750D01*
X130656250Y-67417000D01*
X129682000Y-67417000D01*
X129428000Y-67417000D01*
X128453750Y-67417000D01*
X128295000Y-67575750D01*
X114588795Y-67575750D01*
X114413923Y-67400573D01*
X113886691Y-67181647D01*
X113315813Y-67181149D01*
X112788200Y-67399154D01*
X112750300Y-67436988D01*
X112750300Y-67193641D01*
X112831124Y-67112958D01*
X113050050Y-66585726D01*
X113050548Y-66014848D01*
X112832543Y-65487235D01*
X112429223Y-65083211D01*
X111901991Y-64864285D01*
X111331113Y-64863787D01*
X110803500Y-65081792D01*
X110399476Y-65485112D01*
X110180550Y-66012344D01*
X110180052Y-66583222D01*
X92447663Y-66583222D01*
X92377942Y-66414485D01*
X92087046Y-66123081D01*
X91706777Y-65965180D01*
X91295029Y-65964821D01*
X90914485Y-66122058D01*
X90623081Y-66412954D01*
X90488111Y-66738000D01*
X88696765Y-66738000D01*
X88582046Y-66623081D01*
X88201777Y-66465180D01*
X87790029Y-66464821D01*
X87409485Y-66622058D01*
X87118081Y-66912954D01*
X86960180Y-67293223D01*
X86959821Y-67704971D01*
X50710000Y-67704971D01*
X50710000Y-63035750D01*
X94740000Y-63035750D01*
X94740000Y-63626309D01*
X94836673Y-63859698D01*
X95015301Y-64038327D01*
X95248690Y-64135000D01*
X95714250Y-64135000D01*
X95873000Y-63976250D01*
X95873000Y-62877000D01*
X96127000Y-62877000D01*
X96127000Y-63976250D01*
X96285750Y-64135000D01*
X96751310Y-64135000D01*
X96984699Y-64038327D01*
X97163327Y-63859698D01*
X97260000Y-63626309D01*
X97260000Y-63035750D01*
X97101250Y-62877000D01*
X96127000Y-62877000D01*
X95873000Y-62877000D01*
X94898750Y-62877000D01*
X94740000Y-63035750D01*
X50710000Y-63035750D01*
X50710000Y-60174827D01*
X83465546Y-60174827D01*
X83622783Y-60555371D01*
X83913679Y-60846775D01*
X84293948Y-61004676D01*
X84705696Y-61005035D01*
X85086240Y-60847798D01*
X85377644Y-60556902D01*
X85535545Y-60176633D01*
X85535688Y-60012523D01*
X86080886Y-59467325D01*
X91792445Y-59467325D01*
X91907164Y-59582244D01*
X92287433Y-59740145D01*
X92699181Y-59740504D01*
X93079725Y-59583267D01*
X93193915Y-59469276D01*
X93193725Y-59687043D01*
X93350962Y-60067587D01*
X93641858Y-60358991D01*
X93884135Y-60459593D01*
X94335687Y-60911145D01*
X94639023Y-61113827D01*
X94754781Y-61136853D01*
X94776843Y-61247765D01*
X94917191Y-61457809D01*
X94978320Y-61498654D01*
X94836673Y-61640302D01*
X94740000Y-61873691D01*
X94740000Y-62464250D01*
X94898750Y-62623000D01*
X95873000Y-62623000D01*
X95873000Y-62603000D01*
X96127000Y-62603000D01*
X96127000Y-62623000D01*
X97101250Y-62623000D01*
X97260000Y-62464250D01*
X97260000Y-61873691D01*
X97163327Y-61640302D01*
X97021680Y-61498654D01*
X97082809Y-61457809D01*
X97223157Y-61247765D01*
X97272440Y-61000000D01*
X97272440Y-60912000D01*
X97704947Y-60912000D01*
X97751843Y-61147765D01*
X97892191Y-61357809D01*
X98102235Y-61498157D01*
X98111500Y-61500000D01*
X98102235Y-61501843D01*
X97892191Y-61642191D01*
X97751843Y-61852235D01*
X97702560Y-62100000D01*
X97702560Y-63600000D01*
X97751843Y-63847765D01*
X97892191Y-64057809D01*
X98102235Y-64198157D01*
X98350000Y-64247440D01*
X99650000Y-64247440D01*
X99897765Y-64198157D01*
X100107809Y-64057809D01*
X100248157Y-63847765D01*
X100297440Y-63600000D01*
X100297440Y-63582672D01*
X100441605Y-63553996D01*
X100688815Y-63388815D01*
X101542593Y-62535037D01*
X101704971Y-62535179D01*
X102085515Y-62377942D01*
X102376919Y-62087046D01*
X102534820Y-61706777D01*
X102534908Y-61604971D01*
X110764821Y-61604971D01*
X110922058Y-61985515D01*
X111212954Y-62276919D01*
X111593223Y-62434820D01*
X112004971Y-62435179D01*
X112385515Y-62277942D01*
X112501659Y-62162000D01*
X117698235Y-62162000D01*
X117812954Y-62276919D01*
X118193223Y-62434820D01*
X118604971Y-62435179D01*
X118985515Y-62277942D01*
X119276919Y-61987046D01*
X119434820Y-61606777D01*
X119435179Y-61195029D01*
X119277942Y-60814485D01*
X118987046Y-60523081D01*
X118606777Y-60365180D01*
X118195029Y-60364821D01*
X117814485Y-60522058D01*
X117698341Y-60638000D01*
X112501765Y-60638000D01*
X112387046Y-60523081D01*
X112006777Y-60365180D01*
X111595029Y-60364821D01*
X111214485Y-60522058D01*
X110923081Y-60812954D01*
X110765180Y-61193223D01*
X110764821Y-61604971D01*
X102534908Y-61604971D01*
X102535179Y-61295029D01*
X102377942Y-60914485D01*
X102087046Y-60623081D01*
X101706777Y-60465180D01*
X101295029Y-60464821D01*
X100914485Y-60622058D01*
X100623081Y-60912954D01*
X100465180Y-61293223D01*
X100465037Y-61457332D01*
X100176851Y-61745519D01*
X100107809Y-61642191D01*
X99897765Y-61501843D01*
X99888500Y-61500000D01*
X99897765Y-61498157D01*
X100107809Y-61357809D01*
X100248157Y-61147765D01*
X100297440Y-60900000D01*
X100297440Y-59400000D01*
X100248157Y-59152235D01*
X100107809Y-58942191D01*
X99897765Y-58801843D01*
X99650000Y-58752560D01*
X98350000Y-58752560D01*
X98102235Y-58801843D01*
X97892191Y-58942191D01*
X97751843Y-59152235D01*
X97704947Y-59388000D01*
X97250162Y-59388000D01*
X97223157Y-59252235D01*
X97082809Y-59042191D01*
X96872765Y-58901843D01*
X96625000Y-58852560D01*
X95375000Y-58852560D01*
X95127235Y-58901843D01*
X95112969Y-58911375D01*
X95106846Y-58896557D01*
X94944760Y-58734187D01*
X112164752Y-58734187D01*
X112382757Y-59261800D01*
X112786077Y-59665824D01*
X113313309Y-59884750D01*
X113884187Y-59885248D01*
X114411800Y-59667243D01*
X114494187Y-59585000D01*
X120293679Y-59585000D01*
X120337040Y-59802989D01*
X120392004Y-59885248D01*
X120583077Y-60171209D01*
X123952434Y-63540566D01*
X124320654Y-63786603D01*
X124755000Y-63873000D01*
X128315778Y-63873000D01*
X128282560Y-64040000D01*
X128282560Y-65540000D01*
X128331843Y-65787765D01*
X128472191Y-65997809D01*
X128533320Y-66038654D01*
X128391673Y-66180302D01*
X128295000Y-66413691D01*
X128295000Y-67004250D01*
X128453750Y-67163000D01*
X129428000Y-67163000D01*
X129428000Y-67143000D01*
X129682000Y-67143000D01*
X129682000Y-67163000D01*
X130656250Y-67163000D01*
X130815000Y-67004250D01*
X130815000Y-66413691D01*
X130718327Y-66180302D01*
X130576680Y-66038654D01*
X130637809Y-65997809D01*
X130778157Y-65787765D01*
X130827440Y-65540000D01*
X130827440Y-64274000D01*
X133082560Y-64274000D01*
X133082560Y-65774000D01*
X133131843Y-66021765D01*
X133272191Y-66231809D01*
X133333320Y-66272654D01*
X133191673Y-66414302D01*
X133095000Y-66647691D01*
X133095000Y-67238250D01*
X133253750Y-67397000D01*
X134228000Y-67397000D01*
X134228000Y-67377000D01*
X134482000Y-67377000D01*
X134482000Y-67397000D01*
X135456250Y-67397000D01*
X135615000Y-67238250D01*
X135615000Y-66647691D01*
X135518327Y-66414302D01*
X135376680Y-66272654D01*
X135437809Y-66231809D01*
X135578157Y-66021765D01*
X135627440Y-65774000D01*
X135627440Y-64274000D01*
X135578157Y-64026235D01*
X135490000Y-63894300D01*
X135490000Y-62738000D01*
X135403603Y-62303654D01*
X135157566Y-61935434D01*
X134789346Y-61689397D01*
X134355000Y-61603000D01*
X133920654Y-61689397D01*
X133552434Y-61935434D01*
X133306397Y-62303654D01*
X133220000Y-62738000D01*
X133220000Y-63894300D01*
X133131843Y-64026235D01*
X133082560Y-64274000D01*
X130827440Y-64274000D01*
X130827440Y-64040000D01*
X130778157Y-63792235D01*
X130690000Y-63660300D01*
X130690000Y-62738000D01*
X130603603Y-62303654D01*
X130357566Y-61935434D01*
X129989346Y-61689397D01*
X129555000Y-61603000D01*
X125225132Y-61603000D01*
X122795882Y-59173750D01*
X126695000Y-59173750D01*
X126695000Y-59764309D01*
X126791673Y-59997698D01*
X126970301Y-60176327D01*
X127203690Y-60273000D01*
X127669250Y-60273000D01*
X127828000Y-60114250D01*
X127828000Y-59015000D01*
X128082000Y-59015000D01*
X128082000Y-60114250D01*
X128240750Y-60273000D01*
X128706310Y-60273000D01*
X128939699Y-60176327D01*
X129118327Y-59997698D01*
X129215000Y-59764309D01*
X129215000Y-59173750D01*
X135495000Y-59173750D01*
X135495000Y-59764309D01*
X135591673Y-59997698D01*
X135770301Y-60176327D01*
X136003690Y-60273000D01*
X136469250Y-60273000D01*
X136628000Y-60114250D01*
X136628000Y-59015000D01*
X136882000Y-59015000D01*
X136882000Y-60114250D01*
X137040750Y-60273000D01*
X137506310Y-60273000D01*
X137739699Y-60176327D01*
X137918327Y-59997698D01*
X138015000Y-59764309D01*
X138015000Y-59173750D01*
X138440000Y-59173750D01*
X138440000Y-59764309D01*
X138536673Y-59997698D01*
X138715301Y-60176327D01*
X138948690Y-60273000D01*
X139414250Y-60273000D01*
X139573000Y-60114250D01*
X139573000Y-59015000D01*
X139827000Y-59015000D01*
X139827000Y-60114250D01*
X139985750Y-60273000D01*
X140451310Y-60273000D01*
X140684699Y-60176327D01*
X140863327Y-59997698D01*
X140960000Y-59764309D01*
X140960000Y-59173750D01*
X140801250Y-59015000D01*
X139827000Y-59015000D01*
X139573000Y-59015000D01*
X138598750Y-59015000D01*
X138440000Y-59173750D01*
X138015000Y-59173750D01*
X137856250Y-59015000D01*
X136882000Y-59015000D01*
X136628000Y-59015000D01*
X135653750Y-59015000D01*
X135495000Y-59173750D01*
X129215000Y-59173750D01*
X129056250Y-59015000D01*
X128082000Y-59015000D01*
X127828000Y-59015000D01*
X126853750Y-59015000D01*
X126695000Y-59173750D01*
X122795882Y-59173750D01*
X122529632Y-58907500D01*
X123914132Y-57523000D01*
X126823541Y-57523000D01*
X126872191Y-57595809D01*
X126933320Y-57636654D01*
X126791673Y-57778302D01*
X126695000Y-58011691D01*
X126695000Y-58602250D01*
X126853750Y-58761000D01*
X127828000Y-58761000D01*
X127828000Y-58741000D01*
X128082000Y-58741000D01*
X128082000Y-58761000D01*
X129056250Y-58761000D01*
X129215000Y-58602250D01*
X129215000Y-58011691D01*
X129118327Y-57778302D01*
X128976680Y-57636654D01*
X129037809Y-57595809D01*
X129086459Y-57523000D01*
X135623541Y-57523000D01*
X135672191Y-57595809D01*
X135733320Y-57636654D01*
X135591673Y-57778302D01*
X135495000Y-58011691D01*
X135495000Y-58602250D01*
X135653750Y-58761000D01*
X136628000Y-58761000D01*
X136628000Y-58741000D01*
X136882000Y-58741000D01*
X136882000Y-58761000D01*
X137856250Y-58761000D01*
X138015000Y-58602250D01*
X138015000Y-58011691D01*
X137918327Y-57778302D01*
X137776680Y-57636654D01*
X137837809Y-57595809D01*
X137886459Y-57523000D01*
X138568541Y-57523000D01*
X138617191Y-57595809D01*
X138678320Y-57636654D01*
X138536673Y-57778302D01*
X138440000Y-58011691D01*
X138440000Y-58602250D01*
X138598750Y-58761000D01*
X139573000Y-58761000D01*
X139573000Y-58741000D01*
X139827000Y-58741000D01*
X139827000Y-58761000D01*
X140801250Y-58761000D01*
X140960000Y-58602250D01*
X140960000Y-58011691D01*
X140863327Y-57778302D01*
X140721680Y-57636654D01*
X140782809Y-57595809D01*
X140923157Y-57385765D01*
X140972440Y-57138000D01*
X140972440Y-55638000D01*
X140923157Y-55390235D01*
X140835000Y-55258300D01*
X140835000Y-55085595D01*
X145500010Y-55085595D01*
X145613068Y-55364654D01*
X146265394Y-55610815D01*
X146962267Y-55588604D01*
X147502932Y-55364654D01*
X147615990Y-55085595D01*
X146558000Y-54027605D01*
X145500010Y-55085595D01*
X140835000Y-55085595D01*
X140835000Y-53555394D01*
X144795185Y-53555394D01*
X144817396Y-54252267D01*
X145041346Y-54792932D01*
X145320405Y-54905990D01*
X146378395Y-53848000D01*
X146737605Y-53848000D01*
X147795595Y-54905990D01*
X148074654Y-54792932D01*
X148320815Y-54140606D01*
X148298604Y-53443733D01*
X148074654Y-52903068D01*
X147795595Y-52790010D01*
X146737605Y-53848000D01*
X146378395Y-53848000D01*
X145320405Y-52790010D01*
X145041346Y-52903068D01*
X144795185Y-53555394D01*
X140835000Y-53555394D01*
X140835000Y-52620000D01*
X140833092Y-52610405D01*
X145500010Y-52610405D01*
X146558000Y-53668395D01*
X147615990Y-52610405D01*
X147502932Y-52331346D01*
X146850606Y-52085185D01*
X146153733Y-52107396D01*
X145613068Y-52331346D01*
X145500010Y-52610405D01*
X140833092Y-52610405D01*
X140748603Y-52185654D01*
X140502566Y-51817434D01*
X140134346Y-51571397D01*
X139700000Y-51485000D01*
X139265654Y-51571397D01*
X138897434Y-51817434D01*
X138651397Y-52185654D01*
X138565000Y-52620000D01*
X138565000Y-55253000D01*
X137890000Y-55253000D01*
X137890000Y-54102000D01*
X137803603Y-53667654D01*
X137557566Y-53299434D01*
X137189346Y-53053397D01*
X136755000Y-52967000D01*
X136320654Y-53053397D01*
X135952434Y-53299434D01*
X135706397Y-53667654D01*
X135620000Y-54102000D01*
X135620000Y-55253000D01*
X133090000Y-55253000D01*
X133090000Y-53538982D01*
X133287809Y-53406809D01*
X133328654Y-53345680D01*
X133470302Y-53487327D01*
X133703691Y-53584000D01*
X134294250Y-53584000D01*
X134453000Y-53425250D01*
X134453000Y-52451000D01*
X134707000Y-52451000D01*
X134707000Y-53425250D01*
X134865750Y-53584000D01*
X135456309Y-53584000D01*
X135689698Y-53487327D01*
X135868327Y-53308699D01*
X135965000Y-53075310D01*
X135965000Y-52609750D01*
X135806250Y-52451000D01*
X134707000Y-52451000D01*
X134453000Y-52451000D01*
X134433000Y-52451000D01*
X134433000Y-52197000D01*
X134453000Y-52197000D01*
X134453000Y-51222750D01*
X134707000Y-51222750D01*
X134707000Y-52197000D01*
X135806250Y-52197000D01*
X135965000Y-52038250D01*
X135965000Y-51572690D01*
X135868327Y-51339301D01*
X135689698Y-51160673D01*
X135456309Y-51064000D01*
X134865750Y-51064000D01*
X134707000Y-51222750D01*
X134453000Y-51222750D01*
X134294250Y-51064000D01*
X133703691Y-51064000D01*
X133470302Y-51160673D01*
X133328654Y-51302320D01*
X133287809Y-51241191D01*
X133077765Y-51100843D01*
X132830000Y-51051560D01*
X131330000Y-51051560D01*
X131082235Y-51100843D01*
X130872191Y-51241191D01*
X130731843Y-51451235D01*
X130682560Y-51699000D01*
X130682560Y-52949000D01*
X130731843Y-53196765D01*
X130820000Y-53328700D01*
X130820000Y-55253000D01*
X129090000Y-55253000D01*
X129090000Y-54102000D01*
X129003603Y-53667654D01*
X128757566Y-53299434D01*
X128389346Y-53053397D01*
X127955000Y-52967000D01*
X127520654Y-53053397D01*
X127152434Y-53299434D01*
X126906397Y-53667654D01*
X126820000Y-54102000D01*
X126820000Y-55253000D01*
X123444000Y-55253000D01*
X123009654Y-55339397D01*
X122641434Y-55585434D01*
X120911868Y-57315000D01*
X114494606Y-57315000D01*
X114413923Y-57234176D01*
X113886691Y-57015250D01*
X113315813Y-57014752D01*
X112788200Y-57232757D01*
X112384176Y-57636077D01*
X112165250Y-58163309D01*
X112164752Y-58734187D01*
X94944760Y-58734187D01*
X94815950Y-58605153D01*
X94435681Y-58447252D01*
X94023933Y-58446893D01*
X93643389Y-58604130D01*
X93529199Y-58718121D01*
X93529389Y-58500354D01*
X93372152Y-58119810D01*
X93081256Y-57828406D01*
X92700987Y-57670505D01*
X92289239Y-57670146D01*
X91908695Y-57827383D01*
X91792551Y-57943325D01*
X85765256Y-57943325D01*
X85473651Y-58001329D01*
X85231232Y-58163309D01*
X85226441Y-58166510D01*
X84458132Y-58934819D01*
X84295754Y-58934677D01*
X83915210Y-59091914D01*
X83623806Y-59382810D01*
X83465905Y-59763079D01*
X83465546Y-60174827D01*
X50710000Y-60174827D01*
X50710000Y-52863750D01*
X111685000Y-52863750D01*
X111685000Y-53329310D01*
X111781673Y-53562699D01*
X111960302Y-53741327D01*
X112193691Y-53838000D01*
X112784250Y-53838000D01*
X112943000Y-53679250D01*
X112943000Y-52705000D01*
X111843750Y-52705000D01*
X111685000Y-52863750D01*
X50710000Y-52863750D01*
X50710000Y-51826690D01*
X111685000Y-51826690D01*
X111685000Y-52292250D01*
X111843750Y-52451000D01*
X112943000Y-52451000D01*
X112943000Y-51476750D01*
X113197000Y-51476750D01*
X113197000Y-52451000D01*
X113217000Y-52451000D01*
X113217000Y-52705000D01*
X113197000Y-52705000D01*
X113197000Y-53679250D01*
X113355750Y-53838000D01*
X113946309Y-53838000D01*
X114179698Y-53741327D01*
X114321346Y-53599680D01*
X114362191Y-53660809D01*
X114572235Y-53801157D01*
X114729997Y-53832537D01*
X114767434Y-53888566D01*
X116291433Y-55412566D01*
X116659654Y-55658603D01*
X117094000Y-55744999D01*
X117528345Y-55658603D01*
X117896566Y-55412566D01*
X118142603Y-55044345D01*
X118228999Y-54610000D01*
X118142603Y-54175654D01*
X117896566Y-53807433D01*
X116967440Y-52878308D01*
X116967440Y-51953000D01*
X116918157Y-51705235D01*
X116777809Y-51495191D01*
X116567765Y-51354843D01*
X116320000Y-51305560D01*
X114820000Y-51305560D01*
X114572235Y-51354843D01*
X114362191Y-51495191D01*
X114321346Y-51556320D01*
X114179698Y-51414673D01*
X113946309Y-51318000D01*
X113355750Y-51318000D01*
X113197000Y-51476750D01*
X112943000Y-51476750D01*
X112784250Y-51318000D01*
X112193691Y-51318000D01*
X111960302Y-51414673D01*
X111781673Y-51593301D01*
X111685000Y-51826690D01*
X50710000Y-51826690D01*
X50710000Y-50710000D01*
X149290000Y-50710000D01*
X149290000Y-115290000D01*
M02*
