G04 #@! TF.GenerationSoftware,KiCad,Pcbnew,(2017-11-24 revision a01d81e4b)-master*
G04 #@! TF.CreationDate,2018-01-27T17:30:05+01:00*
G04 #@! TF.ProjectId,phram_1,706872616D5F312E6B696361645F7063,rev?*
G04 #@! TF.SameCoordinates,Original*
G04 #@! TF.FileFunction,Soldermask,Top*
G04 #@! TF.FilePolarity,Negative*
%FSLAX46Y46*%
G04 Gerber Fmt 4.6, Leading zero omitted, Abs format (unit mm)*
G04 Created by KiCad (PCBNEW (2017-11-24 revision a01d81e4b)-master) date Sat Jan 27 17:30:05 2018*
%MOMM*%
%LPD*%
G01*
G04 APERTURE LIST*
%ADD10C,1.800000*%
%ADD11R,0.948000X1.920000*%
%ADD12R,1.850000X0.850000*%
%ADD13R,0.650000X1.850000*%
%ADD14R,1.850000X0.650000*%
%ADD15R,2.000000X2.400000*%
%ADD16R,1.901140X1.400760*%
%ADD17R,3.399740X2.398980*%
%ADD18C,1.149300*%
%ADD19C,0.100000*%
%ADD20R,1.900000X1.650000*%
%ADD21O,2.432000X2.127200*%
%ADD22R,1.200100X1.200100*%
%ADD23R,2.000000X1.750000*%
%ADD24C,2.635200*%
%ADD25R,1.900000X1.700000*%
%ADD26R,1.700000X1.900000*%
%ADD27R,2.100000X2.400000*%
%ADD28C,4.400000*%
%ADD29C,0.254000*%
G04 APERTURE END LIST*
D10*
X68780000Y-82305000D03*
X66240000Y-84845000D03*
X66240000Y-82305000D03*
X63700000Y-84845000D03*
X63700000Y-82305000D03*
X61160000Y-84845000D03*
X61160000Y-82305000D03*
X58620000Y-84845000D03*
X58620000Y-82305000D03*
X56080000Y-84845000D03*
X58620000Y-87385000D03*
X56080000Y-87385000D03*
X58620000Y-89925000D03*
X56080000Y-89925000D03*
X58620000Y-92465000D03*
X56080000Y-92465000D03*
X58620000Y-95005000D03*
X56080000Y-95005000D03*
X58620000Y-97545000D03*
X56080000Y-97545000D03*
X58620000Y-100085000D03*
X56080000Y-100085000D03*
X58620000Y-102625000D03*
X56080000Y-102625000D03*
X58620000Y-105165000D03*
X56080000Y-105165000D03*
X58620000Y-107705000D03*
X61160000Y-105165000D03*
X61160000Y-107705000D03*
X63700000Y-105165000D03*
X63700000Y-107705000D03*
X66240000Y-105165000D03*
X66240000Y-107705000D03*
X68780000Y-105165000D03*
X68780000Y-107705000D03*
X71320000Y-105165000D03*
X71320000Y-107705000D03*
X73860000Y-105165000D03*
X73860000Y-107705000D03*
X76400000Y-105165000D03*
X76400000Y-107705000D03*
X78940000Y-105165000D03*
X78940000Y-107705000D03*
X81480000Y-105165000D03*
X78940000Y-102625000D03*
X81480000Y-102625000D03*
X78940000Y-100085000D03*
X81480000Y-100085000D03*
X78940000Y-97545000D03*
X81480000Y-97545000D03*
X78940000Y-95005000D03*
X81480000Y-95005000D03*
X78940000Y-92465000D03*
X81480000Y-92465000D03*
X78940000Y-89925000D03*
X81480000Y-89925000D03*
X78940000Y-87385000D03*
X81480000Y-87385000D03*
X78940000Y-84845000D03*
X81480000Y-84845000D03*
X78940000Y-82305000D03*
X76400000Y-84845000D03*
X76400000Y-82305000D03*
X73860000Y-84845000D03*
X73860000Y-82305000D03*
X71320000Y-84845000D03*
X71320000Y-82305000D03*
X68780000Y-84845000D03*
D11*
X138355000Y-52620000D03*
X137555000Y-52620000D03*
X136755000Y-52620000D03*
X135955000Y-52620000D03*
X135155000Y-52620000D03*
X134355000Y-52620000D03*
X133555000Y-52620000D03*
X132755000Y-52620000D03*
X131955000Y-52620000D03*
X131155000Y-52620000D03*
X130355000Y-52620000D03*
X129555000Y-52620000D03*
X128755000Y-52620000D03*
X127955000Y-52620000D03*
X127155000Y-52620000D03*
X126355000Y-52620000D03*
X125555000Y-52620000D03*
X124755000Y-52620000D03*
X123955000Y-52620000D03*
X123155000Y-52620000D03*
X122355000Y-52620000D03*
X121555000Y-52620000D03*
X120755000Y-52620000D03*
X119955000Y-52620000D03*
X119155000Y-52620000D03*
X118355000Y-52620000D03*
X117555000Y-52620000D03*
X117555000Y-64300000D03*
X118355000Y-64300000D03*
X119155000Y-64300000D03*
X119955000Y-64300000D03*
X120755000Y-64300000D03*
X121555000Y-64300000D03*
X122355000Y-64300000D03*
X123155000Y-64300000D03*
X123955000Y-64300000D03*
X124755000Y-64300000D03*
X125555000Y-64300000D03*
X126355000Y-64300000D03*
X127155000Y-64300000D03*
X127955000Y-64300000D03*
X128755000Y-64300000D03*
X129555000Y-64300000D03*
X130355000Y-64300000D03*
X131155000Y-64300000D03*
X131955000Y-64300000D03*
X132755000Y-64300000D03*
X133555000Y-64300000D03*
X134355000Y-64300000D03*
X135155000Y-64300000D03*
X135955000Y-64300000D03*
X136755000Y-64300000D03*
X137555000Y-64300000D03*
X138355000Y-64300000D03*
D12*
X86420000Y-107135000D03*
X86420000Y-107785000D03*
X86420000Y-108435000D03*
X86420000Y-109085000D03*
X86420000Y-109735000D03*
X86420000Y-110385000D03*
X86420000Y-111035000D03*
X86420000Y-111685000D03*
X86420000Y-112335000D03*
X86420000Y-112985000D03*
X92320000Y-112985000D03*
X92320000Y-112335000D03*
X92320000Y-111685000D03*
X92320000Y-111035000D03*
X92320000Y-110385000D03*
X92320000Y-109735000D03*
X92320000Y-109085000D03*
X92320000Y-108435000D03*
X92320000Y-107785000D03*
X92320000Y-107135000D03*
X86420000Y-97375000D03*
X86420000Y-98025000D03*
X86420000Y-98675000D03*
X86420000Y-99325000D03*
X86420000Y-99975000D03*
X86420000Y-100625000D03*
X86420000Y-101275000D03*
X86420000Y-101925000D03*
X86420000Y-102575000D03*
X86420000Y-103225000D03*
X92320000Y-103225000D03*
X92320000Y-102575000D03*
X92320000Y-101925000D03*
X92320000Y-101275000D03*
X92320000Y-100625000D03*
X92320000Y-99975000D03*
X92320000Y-99325000D03*
X92320000Y-98675000D03*
X92320000Y-98025000D03*
X92320000Y-97375000D03*
X86420000Y-86985000D03*
X86420000Y-87635000D03*
X86420000Y-88285000D03*
X86420000Y-88935000D03*
X86420000Y-89585000D03*
X86420000Y-90235000D03*
X86420000Y-90885000D03*
X86420000Y-91535000D03*
X86420000Y-92185000D03*
X86420000Y-92835000D03*
X92320000Y-92835000D03*
X92320000Y-92185000D03*
X92320000Y-91535000D03*
X92320000Y-90885000D03*
X92320000Y-90235000D03*
X92320000Y-89585000D03*
X92320000Y-88935000D03*
X92320000Y-88285000D03*
X92320000Y-87635000D03*
X92320000Y-86985000D03*
X86420000Y-59845000D03*
X86420000Y-60495000D03*
X86420000Y-61145000D03*
X86420000Y-61795000D03*
X86420000Y-62445000D03*
X86420000Y-63095000D03*
X86420000Y-63745000D03*
X86420000Y-64395000D03*
X86420000Y-65045000D03*
X86420000Y-65695000D03*
X92320000Y-65695000D03*
X92320000Y-65045000D03*
X92320000Y-64395000D03*
X92320000Y-63745000D03*
X92320000Y-63095000D03*
X92320000Y-62445000D03*
X92320000Y-61795000D03*
X92320000Y-61145000D03*
X92320000Y-60495000D03*
X92320000Y-59845000D03*
X86420000Y-77555000D03*
X86420000Y-78205000D03*
X86420000Y-78855000D03*
X86420000Y-79505000D03*
X86420000Y-80155000D03*
X86420000Y-80805000D03*
X86420000Y-81455000D03*
X86420000Y-82105000D03*
X86420000Y-82755000D03*
X86420000Y-83405000D03*
X92320000Y-83405000D03*
X92320000Y-82755000D03*
X92320000Y-82105000D03*
X92320000Y-81455000D03*
X92320000Y-80805000D03*
X92320000Y-80155000D03*
X92320000Y-79505000D03*
X92320000Y-78855000D03*
X92320000Y-78205000D03*
X92320000Y-77555000D03*
X86420000Y-68575000D03*
X86420000Y-69225000D03*
X86420000Y-69875000D03*
X86420000Y-70525000D03*
X86420000Y-71175000D03*
X86420000Y-71825000D03*
X86420000Y-72475000D03*
X86420000Y-73125000D03*
X86420000Y-73775000D03*
X86420000Y-74425000D03*
X92320000Y-74425000D03*
X92320000Y-73775000D03*
X92320000Y-73125000D03*
X92320000Y-72475000D03*
X92320000Y-71825000D03*
X92320000Y-71175000D03*
X92320000Y-70525000D03*
X92320000Y-69875000D03*
X92320000Y-69225000D03*
X92320000Y-68575000D03*
D13*
X137305000Y-76445000D03*
X136805000Y-76445000D03*
X136305000Y-76445000D03*
X135805000Y-76445000D03*
X135305000Y-76445000D03*
X134805000Y-76445000D03*
X134305000Y-76445000D03*
X133805000Y-76445000D03*
X133305000Y-76445000D03*
X132805000Y-76445000D03*
X132305000Y-76445000D03*
X131805000Y-76445000D03*
X131305000Y-76445000D03*
X130805000Y-76445000D03*
X130305000Y-76445000D03*
X129805000Y-76445000D03*
X129305000Y-76445000D03*
X128805000Y-76445000D03*
X128305000Y-76445000D03*
X127805000Y-76445000D03*
X127305000Y-76445000D03*
X126805000Y-76445000D03*
X126305000Y-76445000D03*
X125805000Y-76445000D03*
X125305000Y-76445000D03*
X124805000Y-76445000D03*
X124305000Y-76445000D03*
X123805000Y-76445000D03*
X123305000Y-76445000D03*
X122805000Y-76445000D03*
X122305000Y-76445000D03*
X121805000Y-76445000D03*
X121305000Y-76445000D03*
X120805000Y-76445000D03*
X120305000Y-76445000D03*
X119805000Y-76445000D03*
D14*
X118005000Y-78245000D03*
X118005000Y-78745000D03*
X118005000Y-79245000D03*
X118005000Y-79745000D03*
X118005000Y-80245000D03*
X118005000Y-80745000D03*
X118005000Y-81245000D03*
X118005000Y-81745000D03*
X118005000Y-82245000D03*
X118005000Y-82745000D03*
X118005000Y-83245000D03*
X118005000Y-83745000D03*
X118005000Y-84245000D03*
X118005000Y-84745000D03*
X118005000Y-85245000D03*
X118005000Y-85745000D03*
X118005000Y-86245000D03*
X118005000Y-86745000D03*
X118005000Y-87245000D03*
X118005000Y-87745000D03*
X118005000Y-88245000D03*
X118005000Y-88745000D03*
X118005000Y-89245000D03*
X118005000Y-89745000D03*
X118005000Y-90245000D03*
X118005000Y-90745000D03*
X118005000Y-91245000D03*
X118005000Y-91745000D03*
X118005000Y-92245000D03*
X118005000Y-92745000D03*
X118005000Y-93245000D03*
X118005000Y-93745000D03*
X118005000Y-94245000D03*
X118005000Y-94745000D03*
X118005000Y-95245000D03*
X118005000Y-95745000D03*
D13*
X119805000Y-97545000D03*
X120305000Y-97545000D03*
X120805000Y-97545000D03*
X121305000Y-97545000D03*
X121805000Y-97545000D03*
X122305000Y-97545000D03*
X122805000Y-97545000D03*
X123305000Y-97545000D03*
X123805000Y-97545000D03*
X124305000Y-97545000D03*
X124805000Y-97545000D03*
X125305000Y-97545000D03*
X125805000Y-97545000D03*
X126305000Y-97545000D03*
X126805000Y-97545000D03*
X127305000Y-97545000D03*
X127805000Y-97545000D03*
X128305000Y-97545000D03*
X128805000Y-97545000D03*
X129305000Y-97545000D03*
X129805000Y-97545000D03*
X130305000Y-97545000D03*
X130805000Y-97545000D03*
X131305000Y-97545000D03*
X131805000Y-97545000D03*
X132305000Y-97545000D03*
X132805000Y-97545000D03*
X133305000Y-97545000D03*
X133805000Y-97545000D03*
X134305000Y-97545000D03*
X134805000Y-97545000D03*
X135305000Y-97545000D03*
X135805000Y-97545000D03*
X136305000Y-97545000D03*
X136805000Y-97545000D03*
X137305000Y-97545000D03*
D14*
X139105000Y-95745000D03*
X139105000Y-95245000D03*
X139105000Y-94745000D03*
X139105000Y-94245000D03*
X139105000Y-93745000D03*
X139105000Y-93245000D03*
X139105000Y-92745000D03*
X139105000Y-92245000D03*
X139105000Y-91745000D03*
X139105000Y-91245000D03*
X139105000Y-90745000D03*
X139105000Y-90245000D03*
X139105000Y-89745000D03*
X139105000Y-89245000D03*
X139105000Y-88745000D03*
X139105000Y-88245000D03*
X139105000Y-87745000D03*
X139105000Y-87245000D03*
X139105000Y-86745000D03*
X139105000Y-86245000D03*
X139105000Y-85745000D03*
X139105000Y-85245000D03*
X139105000Y-84745000D03*
X139105000Y-84245000D03*
X139105000Y-83745000D03*
X139105000Y-83245000D03*
X139105000Y-82745000D03*
X139105000Y-82245000D03*
X139105000Y-81745000D03*
X139105000Y-81245000D03*
X139105000Y-80745000D03*
X139105000Y-80245000D03*
X139105000Y-79745000D03*
X139105000Y-79245000D03*
X139105000Y-78745000D03*
X139105000Y-78245000D03*
D15*
X71415000Y-53350000D03*
X71415000Y-57350000D03*
X81575000Y-53000000D03*
X81575000Y-57000000D03*
X56080000Y-54620000D03*
X56080000Y-58620000D03*
X66240000Y-53350000D03*
X66240000Y-57350000D03*
D16*
X78400000Y-56056140D03*
X78400000Y-54555000D03*
X78400000Y-53053860D03*
D17*
X75448520Y-54555000D03*
D18*
X77297640Y-54555000D03*
D19*
G36*
X76722990Y-53180185D02*
X77872290Y-53947683D01*
X77872290Y-55162317D01*
X76722990Y-55929815D01*
X76722990Y-53180185D01*
X76722990Y-53180185D01*
G37*
D16*
X62841480Y-56056140D03*
X62841480Y-54555000D03*
X62841480Y-53053860D03*
D17*
X59890000Y-54555000D03*
D18*
X61739120Y-54555000D03*
D19*
G36*
X61164470Y-53180185D02*
X62313770Y-53947683D01*
X62313770Y-55162317D01*
X61164470Y-55929815D01*
X61164470Y-53180185D01*
X61164470Y-53180185D01*
G37*
D20*
X111400000Y-53000000D03*
X108900000Y-53000000D03*
D21*
X143415000Y-100330000D03*
X143415000Y-102870000D03*
X143415000Y-105410000D03*
X143415000Y-107950000D03*
X143415000Y-110490000D03*
X143415000Y-113030000D03*
D22*
X57935000Y-63509240D03*
X56035000Y-63509240D03*
X56985000Y-65508220D03*
D23*
X111400000Y-55950000D03*
X107600000Y-55950000D03*
X107600000Y-58450000D03*
X111400000Y-58450000D03*
D21*
X145542000Y-82804000D03*
X145542000Y-85344000D03*
X145542000Y-87884000D03*
X145542000Y-90424000D03*
X145542000Y-92964000D03*
X145542000Y-95504000D03*
D24*
X146558000Y-53848000D03*
D25*
X94394000Y-55372000D03*
X91694000Y-55372000D03*
D26*
X79248000Y-59864000D03*
X79248000Y-62564000D03*
D25*
X86106000Y-55372000D03*
X88806000Y-55372000D03*
D27*
X52832000Y-58642000D03*
X52832000Y-54642000D03*
D28*
X65000000Y-91000000D03*
X72500000Y-91000000D03*
X72500000Y-99000000D03*
X65000000Y-99000000D03*
D24*
X52500000Y-97545000D03*
D29*
G36*
X65913000Y-114173000D02*
X53467000Y-114173000D01*
X53467000Y-109347000D01*
X65913000Y-109347000D01*
X65913000Y-114173000D01*
X65913000Y-114173000D01*
G37*
X65913000Y-114173000D02*
X53467000Y-114173000D01*
X53467000Y-109347000D01*
X65913000Y-109347000D01*
X65913000Y-114173000D01*
M02*
