G04 #@! TF.GenerationSoftware,KiCad,Pcbnew,(2017-11-24 revision a01d81e4b)-master*
G04 #@! TF.CreationDate,2018-01-27T17:30:05+01:00*
G04 #@! TF.ProjectId,phram_1,706872616D5F312E6B696361645F7063,rev?*
G04 #@! TF.SameCoordinates,Original*
G04 #@! TF.FileFunction,Legend,Bot*
G04 #@! TF.FilePolarity,Positive*
%FSLAX46Y46*%
G04 Gerber Fmt 4.6, Leading zero omitted, Abs format (unit mm)*
G04 Created by KiCad (PCBNEW (2017-11-24 revision a01d81e4b)-master) date Sat Jan 27 17:30:05 2018*
%MOMM*%
%LPD*%
G01*
G04 APERTURE LIST*
%ADD10C,0.150000*%
G04 APERTURE END LIST*
D10*
X93400000Y-105875000D02*
X94600000Y-105875000D01*
X94600000Y-104125000D02*
X93400000Y-104125000D01*
X91750000Y-95875000D02*
X92950000Y-95875000D01*
X92950000Y-94125000D02*
X91750000Y-94125000D01*
X98125000Y-88400000D02*
X98125000Y-89600000D01*
X99875000Y-89600000D02*
X99875000Y-88400000D01*
X98125000Y-60900000D02*
X98125000Y-62100000D01*
X99875000Y-62100000D02*
X99875000Y-60900000D01*
X116050000Y-86350000D02*
X117050000Y-86350000D01*
X117050000Y-88050000D02*
X116050000Y-88050000D01*
X88500000Y-98650000D02*
X89500000Y-98650000D01*
X89500000Y-100350000D02*
X88500000Y-100350000D01*
X88674000Y-69508000D02*
X89674000Y-69508000D01*
X89674000Y-71208000D02*
X88674000Y-71208000D01*
X95150000Y-62000000D02*
X95150000Y-61000000D01*
X96850000Y-61000000D02*
X96850000Y-62000000D01*
X113820000Y-51728000D02*
X114820000Y-51728000D01*
X114820000Y-53428000D02*
X113820000Y-53428000D01*
X88674000Y-78652000D02*
X89674000Y-78652000D01*
X89674000Y-80352000D02*
X88674000Y-80352000D01*
X126650000Y-74550000D02*
X126650000Y-75550000D01*
X124950000Y-75550000D02*
X124950000Y-74550000D01*
X95162000Y-89500000D02*
X95162000Y-88500000D01*
X96862000Y-88500000D02*
X96862000Y-89500000D01*
X128705000Y-66540000D02*
X128705000Y-65540000D01*
X130405000Y-65540000D02*
X130405000Y-66540000D01*
X133505000Y-66774000D02*
X133505000Y-65774000D01*
X135205000Y-65774000D02*
X135205000Y-66774000D01*
X135905000Y-58138000D02*
X135905000Y-57138000D01*
X137605000Y-57138000D02*
X137605000Y-58138000D01*
X138850000Y-58138000D02*
X138850000Y-57138000D01*
X140550000Y-57138000D02*
X140550000Y-58138000D01*
X120650000Y-97750000D02*
X120650000Y-96750000D01*
X122350000Y-96750000D02*
X122350000Y-97750000D01*
X134650000Y-74350000D02*
X134650000Y-75350000D01*
X132950000Y-75350000D02*
X132950000Y-74350000D01*
X133830000Y-53174000D02*
X132830000Y-53174000D01*
X132830000Y-51474000D02*
X133830000Y-51474000D01*
X127105000Y-58138000D02*
X127105000Y-57138000D01*
X128805000Y-57138000D02*
X128805000Y-58138000D01*
X141150000Y-87550000D02*
X140150000Y-87550000D01*
X140150000Y-85850000D02*
X141150000Y-85850000D01*
X88674000Y-108116000D02*
X89674000Y-108116000D01*
X89674000Y-109816000D02*
X88674000Y-109816000D01*
X138150000Y-74350000D02*
X138150000Y-75350000D01*
X136450000Y-75350000D02*
X136450000Y-74350000D01*
X141150000Y-80650000D02*
X140150000Y-80650000D01*
X140150000Y-78950000D02*
X141150000Y-78950000D01*
X125950000Y-97750000D02*
X125950000Y-96750000D01*
X127650000Y-96750000D02*
X127650000Y-97750000D01*
X130450000Y-97850000D02*
X130450000Y-96850000D01*
X132150000Y-96850000D02*
X132150000Y-97850000D01*
X116195000Y-79995000D02*
X116195000Y-78995000D01*
X117895000Y-78995000D02*
X117895000Y-79995000D01*
X139350000Y-94450000D02*
X138350000Y-94450000D01*
X138350000Y-92750000D02*
X139350000Y-92750000D01*
X85485000Y-92190000D02*
X85485000Y-93390000D01*
X87235000Y-93390000D02*
X87235000Y-92190000D01*
X94166666Y-103852380D02*
X94500000Y-103376190D01*
X94738095Y-103852380D02*
X94738095Y-102852380D01*
X94357142Y-102852380D01*
X94261904Y-102900000D01*
X94214285Y-102947619D01*
X94166666Y-103042857D01*
X94166666Y-103185714D01*
X94214285Y-103280952D01*
X94261904Y-103328571D01*
X94357142Y-103376190D01*
X94738095Y-103376190D01*
X93214285Y-103852380D02*
X93785714Y-103852380D01*
X93500000Y-103852380D02*
X93500000Y-102852380D01*
X93595238Y-102995238D01*
X93690476Y-103090476D01*
X93785714Y-103138095D01*
X95966666Y-95452380D02*
X96300000Y-94976190D01*
X96538095Y-95452380D02*
X96538095Y-94452380D01*
X96157142Y-94452380D01*
X96061904Y-94500000D01*
X96014285Y-94547619D01*
X95966666Y-94642857D01*
X95966666Y-94785714D01*
X96014285Y-94880952D01*
X96061904Y-94928571D01*
X96157142Y-94976190D01*
X96538095Y-94976190D01*
X95585714Y-94547619D02*
X95538095Y-94500000D01*
X95442857Y-94452380D01*
X95204761Y-94452380D01*
X95109523Y-94500000D01*
X95061904Y-94547619D01*
X95014285Y-94642857D01*
X95014285Y-94738095D01*
X95061904Y-94880952D01*
X95633333Y-95452380D01*
X95014285Y-95452380D01*
X100347619Y-89166666D02*
X100823809Y-89500000D01*
X100347619Y-89738095D02*
X101347619Y-89738095D01*
X101347619Y-89357142D01*
X101300000Y-89261904D01*
X101252380Y-89214285D01*
X101157142Y-89166666D01*
X101014285Y-89166666D01*
X100919047Y-89214285D01*
X100871428Y-89261904D01*
X100823809Y-89357142D01*
X100823809Y-89738095D01*
X101347619Y-88833333D02*
X101347619Y-88214285D01*
X100966666Y-88547619D01*
X100966666Y-88404761D01*
X100919047Y-88309523D01*
X100871428Y-88261904D01*
X100776190Y-88214285D01*
X100538095Y-88214285D01*
X100442857Y-88261904D01*
X100395238Y-88309523D01*
X100347619Y-88404761D01*
X100347619Y-88690476D01*
X100395238Y-88785714D01*
X100442857Y-88833333D01*
X98547619Y-65166666D02*
X99023809Y-65500000D01*
X98547619Y-65738095D02*
X99547619Y-65738095D01*
X99547619Y-65357142D01*
X99500000Y-65261904D01*
X99452380Y-65214285D01*
X99357142Y-65166666D01*
X99214285Y-65166666D01*
X99119047Y-65214285D01*
X99071428Y-65261904D01*
X99023809Y-65357142D01*
X99023809Y-65738095D01*
X99214285Y-64309523D02*
X98547619Y-64309523D01*
X99595238Y-64547619D02*
X98880952Y-64785714D01*
X98880952Y-64166666D01*
X116716666Y-85757142D02*
X116764285Y-85804761D01*
X116907142Y-85852380D01*
X117002380Y-85852380D01*
X117145238Y-85804761D01*
X117240476Y-85709523D01*
X117288095Y-85614285D01*
X117335714Y-85423809D01*
X117335714Y-85280952D01*
X117288095Y-85090476D01*
X117240476Y-84995238D01*
X117145238Y-84900000D01*
X117002380Y-84852380D01*
X116907142Y-84852380D01*
X116764285Y-84900000D01*
X116716666Y-84947619D01*
X115811904Y-84852380D02*
X116288095Y-84852380D01*
X116335714Y-85328571D01*
X116288095Y-85280952D01*
X116192857Y-85233333D01*
X115954761Y-85233333D01*
X115859523Y-85280952D01*
X115811904Y-85328571D01*
X115764285Y-85423809D01*
X115764285Y-85661904D01*
X115811904Y-85757142D01*
X115859523Y-85804761D01*
X115954761Y-85852380D01*
X116192857Y-85852380D01*
X116288095Y-85804761D01*
X116335714Y-85757142D01*
X88766666Y-98357142D02*
X88814285Y-98404761D01*
X88957142Y-98452380D01*
X89052380Y-98452380D01*
X89195238Y-98404761D01*
X89290476Y-98309523D01*
X89338095Y-98214285D01*
X89385714Y-98023809D01*
X89385714Y-97880952D01*
X89338095Y-97690476D01*
X89290476Y-97595238D01*
X89195238Y-97500000D01*
X89052380Y-97452380D01*
X88957142Y-97452380D01*
X88814285Y-97500000D01*
X88766666Y-97547619D01*
X87909523Y-97452380D02*
X88100000Y-97452380D01*
X88195238Y-97500000D01*
X88242857Y-97547619D01*
X88338095Y-97690476D01*
X88385714Y-97880952D01*
X88385714Y-98261904D01*
X88338095Y-98357142D01*
X88290476Y-98404761D01*
X88195238Y-98452380D01*
X88004761Y-98452380D01*
X87909523Y-98404761D01*
X87861904Y-98357142D01*
X87814285Y-98261904D01*
X87814285Y-98023809D01*
X87861904Y-97928571D01*
X87909523Y-97880952D01*
X88004761Y-97833333D01*
X88195238Y-97833333D01*
X88290476Y-97880952D01*
X88338095Y-97928571D01*
X88385714Y-98023809D01*
X88966666Y-69157142D02*
X89014285Y-69204761D01*
X89157142Y-69252380D01*
X89252380Y-69252380D01*
X89395238Y-69204761D01*
X89490476Y-69109523D01*
X89538095Y-69014285D01*
X89585714Y-68823809D01*
X89585714Y-68680952D01*
X89538095Y-68490476D01*
X89490476Y-68395238D01*
X89395238Y-68300000D01*
X89252380Y-68252380D01*
X89157142Y-68252380D01*
X89014285Y-68300000D01*
X88966666Y-68347619D01*
X88633333Y-68252380D02*
X87966666Y-68252380D01*
X88395238Y-69252380D01*
X95642857Y-65166666D02*
X95595238Y-65214285D01*
X95547619Y-65357142D01*
X95547619Y-65452380D01*
X95595238Y-65595238D01*
X95690476Y-65690476D01*
X95785714Y-65738095D01*
X95976190Y-65785714D01*
X96119047Y-65785714D01*
X96309523Y-65738095D01*
X96404761Y-65690476D01*
X96500000Y-65595238D01*
X96547619Y-65452380D01*
X96547619Y-65357142D01*
X96500000Y-65214285D01*
X96452380Y-65166666D01*
X96119047Y-64595238D02*
X96166666Y-64690476D01*
X96214285Y-64738095D01*
X96309523Y-64785714D01*
X96357142Y-64785714D01*
X96452380Y-64738095D01*
X96500000Y-64690476D01*
X96547619Y-64595238D01*
X96547619Y-64404761D01*
X96500000Y-64309523D01*
X96452380Y-64261904D01*
X96357142Y-64214285D01*
X96309523Y-64214285D01*
X96214285Y-64261904D01*
X96166666Y-64309523D01*
X96119047Y-64404761D01*
X96119047Y-64595238D01*
X96071428Y-64690476D01*
X96023809Y-64738095D01*
X95928571Y-64785714D01*
X95738095Y-64785714D01*
X95642857Y-64738095D01*
X95595238Y-64690476D01*
X95547619Y-64595238D01*
X95547619Y-64404761D01*
X95595238Y-64309523D01*
X95642857Y-64261904D01*
X95738095Y-64214285D01*
X95928571Y-64214285D01*
X96023809Y-64261904D01*
X96071428Y-64309523D01*
X96119047Y-64404761D01*
X115042857Y-54757142D02*
X115090476Y-54804761D01*
X115233333Y-54852380D01*
X115328571Y-54852380D01*
X115471428Y-54804761D01*
X115566666Y-54709523D01*
X115614285Y-54614285D01*
X115661904Y-54423809D01*
X115661904Y-54280952D01*
X115614285Y-54090476D01*
X115566666Y-53995238D01*
X115471428Y-53900000D01*
X115328571Y-53852380D01*
X115233333Y-53852380D01*
X115090476Y-53900000D01*
X115042857Y-53947619D01*
X114090476Y-54852380D02*
X114661904Y-54852380D01*
X114376190Y-54852380D02*
X114376190Y-53852380D01*
X114471428Y-53995238D01*
X114566666Y-54090476D01*
X114661904Y-54138095D01*
X113471428Y-53852380D02*
X113376190Y-53852380D01*
X113280952Y-53900000D01*
X113233333Y-53947619D01*
X113185714Y-54042857D01*
X113138095Y-54233333D01*
X113138095Y-54471428D01*
X113185714Y-54661904D01*
X113233333Y-54757142D01*
X113280952Y-54804761D01*
X113376190Y-54852380D01*
X113471428Y-54852380D01*
X113566666Y-54804761D01*
X113614285Y-54757142D01*
X113661904Y-54661904D01*
X113709523Y-54471428D01*
X113709523Y-54233333D01*
X113661904Y-54042857D01*
X113614285Y-53947619D01*
X113566666Y-53900000D01*
X113471428Y-53852380D01*
X89242857Y-78157142D02*
X89290476Y-78204761D01*
X89433333Y-78252380D01*
X89528571Y-78252380D01*
X89671428Y-78204761D01*
X89766666Y-78109523D01*
X89814285Y-78014285D01*
X89861904Y-77823809D01*
X89861904Y-77680952D01*
X89814285Y-77490476D01*
X89766666Y-77395238D01*
X89671428Y-77300000D01*
X89528571Y-77252380D01*
X89433333Y-77252380D01*
X89290476Y-77300000D01*
X89242857Y-77347619D01*
X88290476Y-78252380D02*
X88861904Y-78252380D01*
X88576190Y-78252380D02*
X88576190Y-77252380D01*
X88671428Y-77395238D01*
X88766666Y-77490476D01*
X88861904Y-77538095D01*
X87338095Y-78252380D02*
X87909523Y-78252380D01*
X87623809Y-78252380D02*
X87623809Y-77252380D01*
X87719047Y-77395238D01*
X87814285Y-77490476D01*
X87909523Y-77538095D01*
X127242857Y-75842857D02*
X127195238Y-75890476D01*
X127147619Y-76033333D01*
X127147619Y-76128571D01*
X127195238Y-76271428D01*
X127290476Y-76366666D01*
X127385714Y-76414285D01*
X127576190Y-76461904D01*
X127719047Y-76461904D01*
X127909523Y-76414285D01*
X128004761Y-76366666D01*
X128100000Y-76271428D01*
X128147619Y-76128571D01*
X128147619Y-76033333D01*
X128100000Y-75890476D01*
X128052380Y-75842857D01*
X127147619Y-74890476D02*
X127147619Y-75461904D01*
X127147619Y-75176190D02*
X128147619Y-75176190D01*
X128004761Y-75271428D01*
X127909523Y-75366666D01*
X127861904Y-75461904D01*
X128052380Y-74509523D02*
X128100000Y-74461904D01*
X128147619Y-74366666D01*
X128147619Y-74128571D01*
X128100000Y-74033333D01*
X128052380Y-73985714D01*
X127957142Y-73938095D01*
X127861904Y-73938095D01*
X127719047Y-73985714D01*
X127147619Y-74557142D01*
X127147619Y-73938095D01*
X93554857Y-89642857D02*
X93507238Y-89690476D01*
X93459619Y-89833333D01*
X93459619Y-89928571D01*
X93507238Y-90071428D01*
X93602476Y-90166666D01*
X93697714Y-90214285D01*
X93888190Y-90261904D01*
X94031047Y-90261904D01*
X94221523Y-90214285D01*
X94316761Y-90166666D01*
X94412000Y-90071428D01*
X94459619Y-89928571D01*
X94459619Y-89833333D01*
X94412000Y-89690476D01*
X94364380Y-89642857D01*
X93459619Y-88690476D02*
X93459619Y-89261904D01*
X93459619Y-88976190D02*
X94459619Y-88976190D01*
X94316761Y-89071428D01*
X94221523Y-89166666D01*
X94173904Y-89261904D01*
X94459619Y-88357142D02*
X94459619Y-87738095D01*
X94078666Y-88071428D01*
X94078666Y-87928571D01*
X94031047Y-87833333D01*
X93983428Y-87785714D01*
X93888190Y-87738095D01*
X93650095Y-87738095D01*
X93554857Y-87785714D01*
X93507238Y-87833333D01*
X93459619Y-87928571D01*
X93459619Y-88214285D01*
X93507238Y-88309523D01*
X93554857Y-88357142D01*
X129042857Y-70442857D02*
X128995238Y-70490476D01*
X128947619Y-70633333D01*
X128947619Y-70728571D01*
X128995238Y-70871428D01*
X129090476Y-70966666D01*
X129185714Y-71014285D01*
X129376190Y-71061904D01*
X129519047Y-71061904D01*
X129709523Y-71014285D01*
X129804761Y-70966666D01*
X129900000Y-70871428D01*
X129947619Y-70728571D01*
X129947619Y-70633333D01*
X129900000Y-70490476D01*
X129852380Y-70442857D01*
X128947619Y-69490476D02*
X128947619Y-70061904D01*
X128947619Y-69776190D02*
X129947619Y-69776190D01*
X129804761Y-69871428D01*
X129709523Y-69966666D01*
X129661904Y-70061904D01*
X129614285Y-68633333D02*
X128947619Y-68633333D01*
X129995238Y-68871428D02*
X129280952Y-69109523D01*
X129280952Y-68490476D01*
X134042857Y-70642857D02*
X133995238Y-70690476D01*
X133947619Y-70833333D01*
X133947619Y-70928571D01*
X133995238Y-71071428D01*
X134090476Y-71166666D01*
X134185714Y-71214285D01*
X134376190Y-71261904D01*
X134519047Y-71261904D01*
X134709523Y-71214285D01*
X134804761Y-71166666D01*
X134900000Y-71071428D01*
X134947619Y-70928571D01*
X134947619Y-70833333D01*
X134900000Y-70690476D01*
X134852380Y-70642857D01*
X133947619Y-69690476D02*
X133947619Y-70261904D01*
X133947619Y-69976190D02*
X134947619Y-69976190D01*
X134804761Y-70071428D01*
X134709523Y-70166666D01*
X134661904Y-70261904D01*
X134947619Y-68785714D02*
X134947619Y-69261904D01*
X134471428Y-69309523D01*
X134519047Y-69261904D01*
X134566666Y-69166666D01*
X134566666Y-68928571D01*
X134519047Y-68833333D01*
X134471428Y-68785714D01*
X134376190Y-68738095D01*
X134138095Y-68738095D01*
X134042857Y-68785714D01*
X133995238Y-68833333D01*
X133947619Y-68928571D01*
X133947619Y-69166666D01*
X133995238Y-69261904D01*
X134042857Y-69309523D01*
X134297857Y-58280857D02*
X134250238Y-58328476D01*
X134202619Y-58471333D01*
X134202619Y-58566571D01*
X134250238Y-58709428D01*
X134345476Y-58804666D01*
X134440714Y-58852285D01*
X134631190Y-58899904D01*
X134774047Y-58899904D01*
X134964523Y-58852285D01*
X135059761Y-58804666D01*
X135155000Y-58709428D01*
X135202619Y-58566571D01*
X135202619Y-58471333D01*
X135155000Y-58328476D01*
X135107380Y-58280857D01*
X134202619Y-57328476D02*
X134202619Y-57899904D01*
X134202619Y-57614190D02*
X135202619Y-57614190D01*
X135059761Y-57709428D01*
X134964523Y-57804666D01*
X134916904Y-57899904D01*
X135202619Y-56471333D02*
X135202619Y-56661809D01*
X135155000Y-56757047D01*
X135107380Y-56804666D01*
X134964523Y-56899904D01*
X134774047Y-56947523D01*
X134393095Y-56947523D01*
X134297857Y-56899904D01*
X134250238Y-56852285D01*
X134202619Y-56757047D01*
X134202619Y-56566571D01*
X134250238Y-56471333D01*
X134297857Y-56423714D01*
X134393095Y-56376095D01*
X134631190Y-56376095D01*
X134726428Y-56423714D01*
X134774047Y-56471333D01*
X134821666Y-56566571D01*
X134821666Y-56757047D01*
X134774047Y-56852285D01*
X134726428Y-56899904D01*
X134631190Y-56947523D01*
X141042857Y-58442857D02*
X140995238Y-58490476D01*
X140947619Y-58633333D01*
X140947619Y-58728571D01*
X140995238Y-58871428D01*
X141090476Y-58966666D01*
X141185714Y-59014285D01*
X141376190Y-59061904D01*
X141519047Y-59061904D01*
X141709523Y-59014285D01*
X141804761Y-58966666D01*
X141900000Y-58871428D01*
X141947619Y-58728571D01*
X141947619Y-58633333D01*
X141900000Y-58490476D01*
X141852380Y-58442857D01*
X140947619Y-57490476D02*
X140947619Y-58061904D01*
X140947619Y-57776190D02*
X141947619Y-57776190D01*
X141804761Y-57871428D01*
X141709523Y-57966666D01*
X141661904Y-58061904D01*
X141947619Y-57157142D02*
X141947619Y-56490476D01*
X140947619Y-56919047D01*
X121042857Y-101842857D02*
X120995238Y-101890476D01*
X120947619Y-102033333D01*
X120947619Y-102128571D01*
X120995238Y-102271428D01*
X121090476Y-102366666D01*
X121185714Y-102414285D01*
X121376190Y-102461904D01*
X121519047Y-102461904D01*
X121709523Y-102414285D01*
X121804761Y-102366666D01*
X121900000Y-102271428D01*
X121947619Y-102128571D01*
X121947619Y-102033333D01*
X121900000Y-101890476D01*
X121852380Y-101842857D01*
X120947619Y-100890476D02*
X120947619Y-101461904D01*
X120947619Y-101176190D02*
X121947619Y-101176190D01*
X121804761Y-101271428D01*
X121709523Y-101366666D01*
X121661904Y-101461904D01*
X121519047Y-100319047D02*
X121566666Y-100414285D01*
X121614285Y-100461904D01*
X121709523Y-100509523D01*
X121757142Y-100509523D01*
X121852380Y-100461904D01*
X121900000Y-100414285D01*
X121947619Y-100319047D01*
X121947619Y-100128571D01*
X121900000Y-100033333D01*
X121852380Y-99985714D01*
X121757142Y-99938095D01*
X121709523Y-99938095D01*
X121614285Y-99985714D01*
X121566666Y-100033333D01*
X121519047Y-100128571D01*
X121519047Y-100319047D01*
X121471428Y-100414285D01*
X121423809Y-100461904D01*
X121328571Y-100509523D01*
X121138095Y-100509523D01*
X121042857Y-100461904D01*
X120995238Y-100414285D01*
X120947619Y-100319047D01*
X120947619Y-100128571D01*
X120995238Y-100033333D01*
X121042857Y-99985714D01*
X121138095Y-99938095D01*
X121328571Y-99938095D01*
X121423809Y-99985714D01*
X121471428Y-100033333D01*
X121519047Y-100128571D01*
X131642857Y-75842857D02*
X131595238Y-75890476D01*
X131547619Y-76033333D01*
X131547619Y-76128571D01*
X131595238Y-76271428D01*
X131690476Y-76366666D01*
X131785714Y-76414285D01*
X131976190Y-76461904D01*
X132119047Y-76461904D01*
X132309523Y-76414285D01*
X132404761Y-76366666D01*
X132500000Y-76271428D01*
X132547619Y-76128571D01*
X132547619Y-76033333D01*
X132500000Y-75890476D01*
X132452380Y-75842857D01*
X131547619Y-74890476D02*
X131547619Y-75461904D01*
X131547619Y-75176190D02*
X132547619Y-75176190D01*
X132404761Y-75271428D01*
X132309523Y-75366666D01*
X132261904Y-75461904D01*
X131547619Y-74414285D02*
X131547619Y-74223809D01*
X131595238Y-74128571D01*
X131642857Y-74080952D01*
X131785714Y-73985714D01*
X131976190Y-73938095D01*
X132357142Y-73938095D01*
X132452380Y-73985714D01*
X132500000Y-74033333D01*
X132547619Y-74128571D01*
X132547619Y-74319047D01*
X132500000Y-74414285D01*
X132452380Y-74461904D01*
X132357142Y-74509523D01*
X132119047Y-74509523D01*
X132023809Y-74461904D01*
X131976190Y-74414285D01*
X131928571Y-74319047D01*
X131928571Y-74128571D01*
X131976190Y-74033333D01*
X132023809Y-73985714D01*
X132119047Y-73938095D01*
X130242857Y-52957142D02*
X130290476Y-53004761D01*
X130433333Y-53052380D01*
X130528571Y-53052380D01*
X130671428Y-53004761D01*
X130766666Y-52909523D01*
X130814285Y-52814285D01*
X130861904Y-52623809D01*
X130861904Y-52480952D01*
X130814285Y-52290476D01*
X130766666Y-52195238D01*
X130671428Y-52100000D01*
X130528571Y-52052380D01*
X130433333Y-52052380D01*
X130290476Y-52100000D01*
X130242857Y-52147619D01*
X129861904Y-52147619D02*
X129814285Y-52100000D01*
X129719047Y-52052380D01*
X129480952Y-52052380D01*
X129385714Y-52100000D01*
X129338095Y-52147619D01*
X129290476Y-52242857D01*
X129290476Y-52338095D01*
X129338095Y-52480952D01*
X129909523Y-53052380D01*
X129290476Y-53052380D01*
X128671428Y-52052380D02*
X128576190Y-52052380D01*
X128480952Y-52100000D01*
X128433333Y-52147619D01*
X128385714Y-52242857D01*
X128338095Y-52433333D01*
X128338095Y-52671428D01*
X128385714Y-52861904D01*
X128433333Y-52957142D01*
X128480952Y-53004761D01*
X128576190Y-53052380D01*
X128671428Y-53052380D01*
X128766666Y-53004761D01*
X128814285Y-52957142D01*
X128861904Y-52861904D01*
X128909523Y-52671428D01*
X128909523Y-52433333D01*
X128861904Y-52242857D01*
X128814285Y-52147619D01*
X128766666Y-52100000D01*
X128671428Y-52052380D01*
X125497857Y-58280857D02*
X125450238Y-58328476D01*
X125402619Y-58471333D01*
X125402619Y-58566571D01*
X125450238Y-58709428D01*
X125545476Y-58804666D01*
X125640714Y-58852285D01*
X125831190Y-58899904D01*
X125974047Y-58899904D01*
X126164523Y-58852285D01*
X126259761Y-58804666D01*
X126355000Y-58709428D01*
X126402619Y-58566571D01*
X126402619Y-58471333D01*
X126355000Y-58328476D01*
X126307380Y-58280857D01*
X126307380Y-57899904D02*
X126355000Y-57852285D01*
X126402619Y-57757047D01*
X126402619Y-57518952D01*
X126355000Y-57423714D01*
X126307380Y-57376095D01*
X126212142Y-57328476D01*
X126116904Y-57328476D01*
X125974047Y-57376095D01*
X125402619Y-57947523D01*
X125402619Y-57328476D01*
X125402619Y-56376095D02*
X125402619Y-56947523D01*
X125402619Y-56661809D02*
X126402619Y-56661809D01*
X126259761Y-56757047D01*
X126164523Y-56852285D01*
X126116904Y-56947523D01*
X141442857Y-85357142D02*
X141490476Y-85404761D01*
X141633333Y-85452380D01*
X141728571Y-85452380D01*
X141871428Y-85404761D01*
X141966666Y-85309523D01*
X142014285Y-85214285D01*
X142061904Y-85023809D01*
X142061904Y-84880952D01*
X142014285Y-84690476D01*
X141966666Y-84595238D01*
X141871428Y-84500000D01*
X141728571Y-84452380D01*
X141633333Y-84452380D01*
X141490476Y-84500000D01*
X141442857Y-84547619D01*
X141061904Y-84547619D02*
X141014285Y-84500000D01*
X140919047Y-84452380D01*
X140680952Y-84452380D01*
X140585714Y-84500000D01*
X140538095Y-84547619D01*
X140490476Y-84642857D01*
X140490476Y-84738095D01*
X140538095Y-84880952D01*
X141109523Y-85452380D01*
X140490476Y-85452380D01*
X140109523Y-84547619D02*
X140061904Y-84500000D01*
X139966666Y-84452380D01*
X139728571Y-84452380D01*
X139633333Y-84500000D01*
X139585714Y-84547619D01*
X139538095Y-84642857D01*
X139538095Y-84738095D01*
X139585714Y-84880952D01*
X140157142Y-85452380D01*
X139538095Y-85452380D01*
X89242857Y-107557142D02*
X89290476Y-107604761D01*
X89433333Y-107652380D01*
X89528571Y-107652380D01*
X89671428Y-107604761D01*
X89766666Y-107509523D01*
X89814285Y-107414285D01*
X89861904Y-107223809D01*
X89861904Y-107080952D01*
X89814285Y-106890476D01*
X89766666Y-106795238D01*
X89671428Y-106700000D01*
X89528571Y-106652380D01*
X89433333Y-106652380D01*
X89290476Y-106700000D01*
X89242857Y-106747619D01*
X88861904Y-106747619D02*
X88814285Y-106700000D01*
X88719047Y-106652380D01*
X88480952Y-106652380D01*
X88385714Y-106700000D01*
X88338095Y-106747619D01*
X88290476Y-106842857D01*
X88290476Y-106938095D01*
X88338095Y-107080952D01*
X88909523Y-107652380D01*
X88290476Y-107652380D01*
X87957142Y-106652380D02*
X87338095Y-106652380D01*
X87671428Y-107033333D01*
X87528571Y-107033333D01*
X87433333Y-107080952D01*
X87385714Y-107128571D01*
X87338095Y-107223809D01*
X87338095Y-107461904D01*
X87385714Y-107557142D01*
X87433333Y-107604761D01*
X87528571Y-107652380D01*
X87814285Y-107652380D01*
X87909523Y-107604761D01*
X87957142Y-107557142D01*
X138642857Y-75642857D02*
X138595238Y-75690476D01*
X138547619Y-75833333D01*
X138547619Y-75928571D01*
X138595238Y-76071428D01*
X138690476Y-76166666D01*
X138785714Y-76214285D01*
X138976190Y-76261904D01*
X139119047Y-76261904D01*
X139309523Y-76214285D01*
X139404761Y-76166666D01*
X139500000Y-76071428D01*
X139547619Y-75928571D01*
X139547619Y-75833333D01*
X139500000Y-75690476D01*
X139452380Y-75642857D01*
X139452380Y-75261904D02*
X139500000Y-75214285D01*
X139547619Y-75119047D01*
X139547619Y-74880952D01*
X139500000Y-74785714D01*
X139452380Y-74738095D01*
X139357142Y-74690476D01*
X139261904Y-74690476D01*
X139119047Y-74738095D01*
X138547619Y-75309523D01*
X138547619Y-74690476D01*
X139214285Y-73833333D02*
X138547619Y-73833333D01*
X139595238Y-74071428D02*
X138880952Y-74309523D01*
X138880952Y-73690476D01*
X141442857Y-81957142D02*
X141490476Y-82004761D01*
X141633333Y-82052380D01*
X141728571Y-82052380D01*
X141871428Y-82004761D01*
X141966666Y-81909523D01*
X142014285Y-81814285D01*
X142061904Y-81623809D01*
X142061904Y-81480952D01*
X142014285Y-81290476D01*
X141966666Y-81195238D01*
X141871428Y-81100000D01*
X141728571Y-81052380D01*
X141633333Y-81052380D01*
X141490476Y-81100000D01*
X141442857Y-81147619D01*
X141061904Y-81147619D02*
X141014285Y-81100000D01*
X140919047Y-81052380D01*
X140680952Y-81052380D01*
X140585714Y-81100000D01*
X140538095Y-81147619D01*
X140490476Y-81242857D01*
X140490476Y-81338095D01*
X140538095Y-81480952D01*
X141109523Y-82052380D01*
X140490476Y-82052380D01*
X139585714Y-81052380D02*
X140061904Y-81052380D01*
X140109523Y-81528571D01*
X140061904Y-81480952D01*
X139966666Y-81433333D01*
X139728571Y-81433333D01*
X139633333Y-81480952D01*
X139585714Y-81528571D01*
X139538095Y-81623809D01*
X139538095Y-81861904D01*
X139585714Y-81957142D01*
X139633333Y-82004761D01*
X139728571Y-82052380D01*
X139966666Y-82052380D01*
X140061904Y-82004761D01*
X140109523Y-81957142D01*
X126242857Y-101842857D02*
X126195238Y-101890476D01*
X126147619Y-102033333D01*
X126147619Y-102128571D01*
X126195238Y-102271428D01*
X126290476Y-102366666D01*
X126385714Y-102414285D01*
X126576190Y-102461904D01*
X126719047Y-102461904D01*
X126909523Y-102414285D01*
X127004761Y-102366666D01*
X127100000Y-102271428D01*
X127147619Y-102128571D01*
X127147619Y-102033333D01*
X127100000Y-101890476D01*
X127052380Y-101842857D01*
X127052380Y-101461904D02*
X127100000Y-101414285D01*
X127147619Y-101319047D01*
X127147619Y-101080952D01*
X127100000Y-100985714D01*
X127052380Y-100938095D01*
X126957142Y-100890476D01*
X126861904Y-100890476D01*
X126719047Y-100938095D01*
X126147619Y-101509523D01*
X126147619Y-100890476D01*
X127147619Y-100033333D02*
X127147619Y-100223809D01*
X127100000Y-100319047D01*
X127052380Y-100366666D01*
X126909523Y-100461904D01*
X126719047Y-100509523D01*
X126338095Y-100509523D01*
X126242857Y-100461904D01*
X126195238Y-100414285D01*
X126147619Y-100319047D01*
X126147619Y-100128571D01*
X126195238Y-100033333D01*
X126242857Y-99985714D01*
X126338095Y-99938095D01*
X126576190Y-99938095D01*
X126671428Y-99985714D01*
X126719047Y-100033333D01*
X126766666Y-100128571D01*
X126766666Y-100319047D01*
X126719047Y-100414285D01*
X126671428Y-100461904D01*
X126576190Y-100509523D01*
X130842857Y-101842857D02*
X130795238Y-101890476D01*
X130747619Y-102033333D01*
X130747619Y-102128571D01*
X130795238Y-102271428D01*
X130890476Y-102366666D01*
X130985714Y-102414285D01*
X131176190Y-102461904D01*
X131319047Y-102461904D01*
X131509523Y-102414285D01*
X131604761Y-102366666D01*
X131700000Y-102271428D01*
X131747619Y-102128571D01*
X131747619Y-102033333D01*
X131700000Y-101890476D01*
X131652380Y-101842857D01*
X131652380Y-101461904D02*
X131700000Y-101414285D01*
X131747619Y-101319047D01*
X131747619Y-101080952D01*
X131700000Y-100985714D01*
X131652380Y-100938095D01*
X131557142Y-100890476D01*
X131461904Y-100890476D01*
X131319047Y-100938095D01*
X130747619Y-101509523D01*
X130747619Y-100890476D01*
X131747619Y-100557142D02*
X131747619Y-99890476D01*
X130747619Y-100319047D01*
X114587857Y-80137857D02*
X114540238Y-80185476D01*
X114492619Y-80328333D01*
X114492619Y-80423571D01*
X114540238Y-80566428D01*
X114635476Y-80661666D01*
X114730714Y-80709285D01*
X114921190Y-80756904D01*
X115064047Y-80756904D01*
X115254523Y-80709285D01*
X115349761Y-80661666D01*
X115445000Y-80566428D01*
X115492619Y-80423571D01*
X115492619Y-80328333D01*
X115445000Y-80185476D01*
X115397380Y-80137857D01*
X115397380Y-79756904D02*
X115445000Y-79709285D01*
X115492619Y-79614047D01*
X115492619Y-79375952D01*
X115445000Y-79280714D01*
X115397380Y-79233095D01*
X115302142Y-79185476D01*
X115206904Y-79185476D01*
X115064047Y-79233095D01*
X114492619Y-79804523D01*
X114492619Y-79185476D01*
X115064047Y-78614047D02*
X115111666Y-78709285D01*
X115159285Y-78756904D01*
X115254523Y-78804523D01*
X115302142Y-78804523D01*
X115397380Y-78756904D01*
X115445000Y-78709285D01*
X115492619Y-78614047D01*
X115492619Y-78423571D01*
X115445000Y-78328333D01*
X115397380Y-78280714D01*
X115302142Y-78233095D01*
X115254523Y-78233095D01*
X115159285Y-78280714D01*
X115111666Y-78328333D01*
X115064047Y-78423571D01*
X115064047Y-78614047D01*
X115016428Y-78709285D01*
X114968809Y-78756904D01*
X114873571Y-78804523D01*
X114683095Y-78804523D01*
X114587857Y-78756904D01*
X114540238Y-78709285D01*
X114492619Y-78614047D01*
X114492619Y-78423571D01*
X114540238Y-78328333D01*
X114587857Y-78280714D01*
X114683095Y-78233095D01*
X114873571Y-78233095D01*
X114968809Y-78280714D01*
X115016428Y-78328333D01*
X115064047Y-78423571D01*
X139492857Y-96057142D02*
X139540476Y-96104761D01*
X139683333Y-96152380D01*
X139778571Y-96152380D01*
X139921428Y-96104761D01*
X140016666Y-96009523D01*
X140064285Y-95914285D01*
X140111904Y-95723809D01*
X140111904Y-95580952D01*
X140064285Y-95390476D01*
X140016666Y-95295238D01*
X139921428Y-95200000D01*
X139778571Y-95152380D01*
X139683333Y-95152380D01*
X139540476Y-95200000D01*
X139492857Y-95247619D01*
X139111904Y-95247619D02*
X139064285Y-95200000D01*
X138969047Y-95152380D01*
X138730952Y-95152380D01*
X138635714Y-95200000D01*
X138588095Y-95247619D01*
X138540476Y-95342857D01*
X138540476Y-95438095D01*
X138588095Y-95580952D01*
X139159523Y-96152380D01*
X138540476Y-96152380D01*
X138064285Y-96152380D02*
X137873809Y-96152380D01*
X137778571Y-96104761D01*
X137730952Y-96057142D01*
X137635714Y-95914285D01*
X137588095Y-95723809D01*
X137588095Y-95342857D01*
X137635714Y-95247619D01*
X137683333Y-95200000D01*
X137778571Y-95152380D01*
X137969047Y-95152380D01*
X138064285Y-95200000D01*
X138111904Y-95247619D01*
X138159523Y-95342857D01*
X138159523Y-95580952D01*
X138111904Y-95676190D01*
X138064285Y-95723809D01*
X137969047Y-95771428D01*
X137778571Y-95771428D01*
X137683333Y-95723809D01*
X137635714Y-95676190D01*
X137588095Y-95580952D01*
X85947619Y-89566666D02*
X86423809Y-89900000D01*
X85947619Y-90138095D02*
X86947619Y-90138095D01*
X86947619Y-89757142D01*
X86900000Y-89661904D01*
X86852380Y-89614285D01*
X86757142Y-89566666D01*
X86614285Y-89566666D01*
X86519047Y-89614285D01*
X86471428Y-89661904D01*
X86423809Y-89757142D01*
X86423809Y-90138095D01*
X86947619Y-89233333D02*
X86947619Y-88566666D01*
X85947619Y-88995238D01*
M02*
