G04 #@! TF.GenerationSoftware,KiCad,Pcbnew,(2017-11-24 revision a01d81e4b)-master*
G04 #@! TF.CreationDate,2018-01-27T17:30:05+01:00*
G04 #@! TF.ProjectId,phram_1,706872616D5F312E6B696361645F7063,rev?*
G04 #@! TF.SameCoordinates,Original*
G04 #@! TF.FileFunction,Soldermask,Bot*
G04 #@! TF.FilePolarity,Negative*
%FSLAX46Y46*%
G04 Gerber Fmt 4.6, Leading zero omitted, Abs format (unit mm)*
G04 Created by KiCad (PCBNEW (2017-11-24 revision a01d81e4b)-master) date Sat Jan 27 17:30:05 2018*
%MOMM*%
%LPD*%
G01*
G04 APERTURE LIST*
%ADD10C,1.800000*%
%ADD11R,1.900000X1.700000*%
%ADD12R,1.700000X1.900000*%
%ADD13R,1.900000X1.650000*%
%ADD14R,1.650000X1.900000*%
%ADD15O,2.432000X2.127200*%
%ADD16C,2.635200*%
%ADD17C,4.400000*%
G04 APERTURE END LIST*
D10*
X68780000Y-82305000D03*
X66240000Y-84845000D03*
X66240000Y-82305000D03*
X63700000Y-84845000D03*
X63700000Y-82305000D03*
X61160000Y-84845000D03*
X61160000Y-82305000D03*
X58620000Y-84845000D03*
X58620000Y-82305000D03*
X56080000Y-84845000D03*
X58620000Y-87385000D03*
X56080000Y-87385000D03*
X58620000Y-89925000D03*
X56080000Y-89925000D03*
X58620000Y-92465000D03*
X56080000Y-92465000D03*
X58620000Y-95005000D03*
X56080000Y-95005000D03*
X58620000Y-97545000D03*
X56080000Y-97545000D03*
X58620000Y-100085000D03*
X56080000Y-100085000D03*
X58620000Y-102625000D03*
X56080000Y-102625000D03*
X58620000Y-105165000D03*
X56080000Y-105165000D03*
X58620000Y-107705000D03*
X61160000Y-105165000D03*
X61160000Y-107705000D03*
X63700000Y-105165000D03*
X63700000Y-107705000D03*
X66240000Y-105165000D03*
X66240000Y-107705000D03*
X68780000Y-105165000D03*
X68780000Y-107705000D03*
X71320000Y-105165000D03*
X71320000Y-107705000D03*
X73860000Y-105165000D03*
X73860000Y-107705000D03*
X76400000Y-105165000D03*
X76400000Y-107705000D03*
X78940000Y-105165000D03*
X78940000Y-107705000D03*
X81480000Y-105165000D03*
X78940000Y-102625000D03*
X81480000Y-102625000D03*
X78940000Y-100085000D03*
X81480000Y-100085000D03*
X78940000Y-97545000D03*
X81480000Y-97545000D03*
X78940000Y-95005000D03*
X81480000Y-95005000D03*
X78940000Y-92465000D03*
X81480000Y-92465000D03*
X78940000Y-89925000D03*
X81480000Y-89925000D03*
X78940000Y-87385000D03*
X81480000Y-87385000D03*
X78940000Y-84845000D03*
X81480000Y-84845000D03*
X78940000Y-82305000D03*
X76400000Y-84845000D03*
X76400000Y-82305000D03*
X73860000Y-84845000D03*
X73860000Y-82305000D03*
X71320000Y-84845000D03*
X71320000Y-82305000D03*
X68780000Y-84845000D03*
D11*
X95350000Y-105000000D03*
X92650000Y-105000000D03*
X93700000Y-95000000D03*
X91000000Y-95000000D03*
D12*
X99000000Y-90350000D03*
X99000000Y-87650000D03*
X99000000Y-62850000D03*
X99000000Y-60150000D03*
D13*
X117800000Y-87200000D03*
X115300000Y-87200000D03*
X90250000Y-99500000D03*
X87750000Y-99500000D03*
X90424000Y-70358000D03*
X87924000Y-70358000D03*
D14*
X96000000Y-60250000D03*
X96000000Y-62750000D03*
D13*
X115570000Y-52578000D03*
X113070000Y-52578000D03*
X90424000Y-79502000D03*
X87924000Y-79502000D03*
D14*
X125800000Y-76300000D03*
X125800000Y-73800000D03*
X96012000Y-87750000D03*
X96012000Y-90250000D03*
X129555000Y-64790000D03*
X129555000Y-67290000D03*
X134355000Y-65024000D03*
X134355000Y-67524000D03*
X136755000Y-56388000D03*
X136755000Y-58888000D03*
X139700000Y-56388000D03*
X139700000Y-58888000D03*
X121500000Y-96000000D03*
X121500000Y-98500000D03*
X133800000Y-76100000D03*
X133800000Y-73600000D03*
D13*
X132080000Y-52324000D03*
X134580000Y-52324000D03*
D14*
X127955000Y-56388000D03*
X127955000Y-58888000D03*
D13*
X139400000Y-86700000D03*
X141900000Y-86700000D03*
X90424000Y-108966000D03*
X87924000Y-108966000D03*
D14*
X137300000Y-76100000D03*
X137300000Y-73600000D03*
D13*
X139400000Y-79800000D03*
X141900000Y-79800000D03*
D14*
X126800000Y-96000000D03*
X126800000Y-98500000D03*
X131300000Y-96100000D03*
X131300000Y-98600000D03*
X117045000Y-78245000D03*
X117045000Y-80745000D03*
D15*
X143415000Y-100330000D03*
X143415000Y-102870000D03*
X143415000Y-105410000D03*
X143415000Y-107950000D03*
X143415000Y-110490000D03*
X143415000Y-113030000D03*
D13*
X137600000Y-93600000D03*
X140100000Y-93600000D03*
D15*
X145542000Y-82804000D03*
X145542000Y-85344000D03*
X145542000Y-87884000D03*
X145542000Y-90424000D03*
X145542000Y-92964000D03*
X145542000Y-95504000D03*
D16*
X146558000Y-53848000D03*
D12*
X86360000Y-94140000D03*
X86360000Y-91440000D03*
D17*
X65000000Y-91000000D03*
X72500000Y-91000000D03*
X72500000Y-99000000D03*
X65000000Y-99000000D03*
D16*
X52500000Y-97545000D03*
M02*
