G04 #@! TF.GenerationSoftware,KiCad,Pcbnew,(2017-11-24 revision a01d81e4b)-master*
G04 #@! TF.CreationDate,2018-01-27T17:30:05+01:00*
G04 #@! TF.ProjectId,phram_1,706872616D5F312E6B696361645F7063,rev?*
G04 #@! TF.SameCoordinates,Original*
G04 #@! TF.FileFunction,Legend,Top*
G04 #@! TF.FilePolarity,Positive*
%FSLAX46Y46*%
G04 Gerber Fmt 4.6, Leading zero omitted, Abs format (unit mm)*
G04 Created by KiCad (PCBNEW (2017-11-24 revision a01d81e4b)-master) date Sat Jan 27 17:30:05 2018*
%MOMM*%
%LPD*%
G01*
G04 APERTURE LIST*
%ADD10C,0.300000*%
%ADD11C,0.010000*%
%ADD12C,0.150000*%
G04 APERTURE END LIST*
D10*
X144165142Y-79188571D02*
X145022285Y-79188571D01*
X144593714Y-80688571D02*
X144593714Y-79188571D01*
X145522285Y-79902857D02*
X146022285Y-79902857D01*
X146236571Y-80688571D02*
X145522285Y-80688571D01*
X145522285Y-79188571D01*
X146236571Y-79188571D01*
X146808000Y-80617142D02*
X147022285Y-80688571D01*
X147379428Y-80688571D01*
X147522285Y-80617142D01*
X147593714Y-80545714D01*
X147665142Y-80402857D01*
X147665142Y-80260000D01*
X147593714Y-80117142D01*
X147522285Y-80045714D01*
X147379428Y-79974285D01*
X147093714Y-79902857D01*
X146950857Y-79831428D01*
X146879428Y-79760000D01*
X146808000Y-79617142D01*
X146808000Y-79474285D01*
X146879428Y-79331428D01*
X146950857Y-79260000D01*
X147093714Y-79188571D01*
X147450857Y-79188571D01*
X147665142Y-79260000D01*
X148093714Y-79188571D02*
X148950857Y-79188571D01*
X148522285Y-80688571D02*
X148522285Y-79188571D01*
X143684571Y-83482571D02*
X142827428Y-83482571D01*
X143256000Y-83482571D02*
X143256000Y-81982571D01*
X143113142Y-82196857D01*
X142970285Y-82339714D01*
X142827428Y-82411142D01*
X145415142Y-56146000D02*
X145272285Y-56074571D01*
X145058000Y-56074571D01*
X144843714Y-56146000D01*
X144700857Y-56288857D01*
X144629428Y-56431714D01*
X144558000Y-56717428D01*
X144558000Y-56931714D01*
X144629428Y-57217428D01*
X144700857Y-57360285D01*
X144843714Y-57503142D01*
X145058000Y-57574571D01*
X145200857Y-57574571D01*
X145415142Y-57503142D01*
X145486571Y-57431714D01*
X145486571Y-56931714D01*
X145200857Y-56931714D01*
X146129428Y-57574571D02*
X146129428Y-56074571D01*
X146986571Y-57574571D01*
X146986571Y-56074571D01*
X147700857Y-57574571D02*
X147700857Y-56074571D01*
X148058000Y-56074571D01*
X148272285Y-56146000D01*
X148415142Y-56288857D01*
X148486571Y-56431714D01*
X148558000Y-56717428D01*
X148558000Y-56931714D01*
X148486571Y-57217428D01*
X148415142Y-57360285D01*
X148272285Y-57503142D01*
X148058000Y-57574571D01*
X147700857Y-57574571D01*
X98035714Y-110250000D02*
X97964285Y-110178571D01*
X97821428Y-109964285D01*
X97750000Y-109821428D01*
X97678571Y-109607142D01*
X97607142Y-109250000D01*
X97607142Y-108964285D01*
X97678571Y-108607142D01*
X97750000Y-108392857D01*
X97821428Y-108250000D01*
X97964285Y-108035714D01*
X98035714Y-107964285D01*
X99250000Y-109607142D02*
X99107142Y-109678571D01*
X98821428Y-109678571D01*
X98678571Y-109607142D01*
X98607142Y-109535714D01*
X98535714Y-109392857D01*
X98535714Y-108964285D01*
X98607142Y-108821428D01*
X98678571Y-108750000D01*
X98821428Y-108678571D01*
X99107142Y-108678571D01*
X99250000Y-108750000D01*
X99750000Y-110250000D02*
X99821428Y-110178571D01*
X99964285Y-109964285D01*
X100035714Y-109821428D01*
X100107142Y-109607142D01*
X100178571Y-109250000D01*
X100178571Y-108964285D01*
X100107142Y-108607142D01*
X100035714Y-108392857D01*
X99964285Y-108250000D01*
X99821428Y-108035714D01*
X99750000Y-107964285D01*
X101964285Y-108321428D02*
X102035714Y-108250000D01*
X102178571Y-108178571D01*
X102535714Y-108178571D01*
X102678571Y-108250000D01*
X102750000Y-108321428D01*
X102821428Y-108464285D01*
X102821428Y-108607142D01*
X102750000Y-108821428D01*
X101892857Y-109678571D01*
X102821428Y-109678571D01*
X103750000Y-108178571D02*
X103892857Y-108178571D01*
X104035714Y-108250000D01*
X104107142Y-108321428D01*
X104178571Y-108464285D01*
X104250000Y-108750000D01*
X104250000Y-109107142D01*
X104178571Y-109392857D01*
X104107142Y-109535714D01*
X104035714Y-109607142D01*
X103892857Y-109678571D01*
X103750000Y-109678571D01*
X103607142Y-109607142D01*
X103535714Y-109535714D01*
X103464285Y-109392857D01*
X103392857Y-109107142D01*
X103392857Y-108750000D01*
X103464285Y-108464285D01*
X103535714Y-108321428D01*
X103607142Y-108250000D01*
X103750000Y-108178571D01*
X105678571Y-109678571D02*
X104821428Y-109678571D01*
X105250000Y-109678571D02*
X105250000Y-108178571D01*
X105107142Y-108392857D01*
X104964285Y-108535714D01*
X104821428Y-108607142D01*
X106964285Y-108178571D02*
X106678571Y-108178571D01*
X106535714Y-108250000D01*
X106464285Y-108321428D01*
X106321428Y-108535714D01*
X106250000Y-108821428D01*
X106250000Y-109392857D01*
X106321428Y-109535714D01*
X106392857Y-109607142D01*
X106535714Y-109678571D01*
X106821428Y-109678571D01*
X106964285Y-109607142D01*
X107035714Y-109535714D01*
X107107142Y-109392857D01*
X107107142Y-109035714D01*
X107035714Y-108892857D01*
X106964285Y-108821428D01*
X106821428Y-108750000D01*
X106535714Y-108750000D01*
X106392857Y-108821428D01*
X106321428Y-108892857D01*
X106250000Y-109035714D01*
X107750000Y-109107142D02*
X108892857Y-109107142D01*
X109535714Y-108321428D02*
X109607142Y-108250000D01*
X109750000Y-108178571D01*
X110107142Y-108178571D01*
X110250000Y-108250000D01*
X110321428Y-108321428D01*
X110392857Y-108464285D01*
X110392857Y-108607142D01*
X110321428Y-108821428D01*
X109464285Y-109678571D01*
X110392857Y-109678571D01*
X111321428Y-108178571D02*
X111464285Y-108178571D01*
X111607142Y-108250000D01*
X111678571Y-108321428D01*
X111750000Y-108464285D01*
X111821428Y-108750000D01*
X111821428Y-109107142D01*
X111750000Y-109392857D01*
X111678571Y-109535714D01*
X111607142Y-109607142D01*
X111464285Y-109678571D01*
X111321428Y-109678571D01*
X111178571Y-109607142D01*
X111107142Y-109535714D01*
X111035714Y-109392857D01*
X110964285Y-109107142D01*
X110964285Y-108750000D01*
X111035714Y-108464285D01*
X111107142Y-108321428D01*
X111178571Y-108250000D01*
X111321428Y-108178571D01*
X113250000Y-109678571D02*
X112392857Y-109678571D01*
X112821428Y-109678571D02*
X112821428Y-108178571D01*
X112678571Y-108392857D01*
X112535714Y-108535714D01*
X112392857Y-108607142D01*
X114107142Y-108821428D02*
X113964285Y-108750000D01*
X113892857Y-108678571D01*
X113821428Y-108535714D01*
X113821428Y-108464285D01*
X113892857Y-108321428D01*
X113964285Y-108250000D01*
X114107142Y-108178571D01*
X114392857Y-108178571D01*
X114535714Y-108250000D01*
X114607142Y-108321428D01*
X114678571Y-108464285D01*
X114678571Y-108535714D01*
X114607142Y-108678571D01*
X114535714Y-108750000D01*
X114392857Y-108821428D01*
X114107142Y-108821428D01*
X113964285Y-108892857D01*
X113892857Y-108964285D01*
X113821428Y-109107142D01*
X113821428Y-109392857D01*
X113892857Y-109535714D01*
X113964285Y-109607142D01*
X114107142Y-109678571D01*
X114392857Y-109678571D01*
X114535714Y-109607142D01*
X114607142Y-109535714D01*
X114678571Y-109392857D01*
X114678571Y-109107142D01*
X114607142Y-108964285D01*
X114535714Y-108892857D01*
X114392857Y-108821428D01*
X116464285Y-109678571D02*
X116464285Y-108178571D01*
X117035714Y-108178571D01*
X117178571Y-108250000D01*
X117250000Y-108321428D01*
X117321428Y-108464285D01*
X117321428Y-108678571D01*
X117250000Y-108821428D01*
X117178571Y-108892857D01*
X117035714Y-108964285D01*
X116464285Y-108964285D01*
X117964285Y-109678571D02*
X117964285Y-108678571D01*
X117964285Y-108178571D02*
X117892857Y-108250000D01*
X117964285Y-108321428D01*
X118035714Y-108250000D01*
X117964285Y-108178571D01*
X117964285Y-108321428D01*
X118892857Y-109678571D02*
X118750000Y-109607142D01*
X118678571Y-109535714D01*
X118607142Y-109392857D01*
X118607142Y-108964285D01*
X118678571Y-108821428D01*
X118750000Y-108750000D01*
X118892857Y-108678571D01*
X119107142Y-108678571D01*
X119250000Y-108750000D01*
X119321428Y-108821428D01*
X119392857Y-108964285D01*
X119392857Y-109392857D01*
X119321428Y-109535714D01*
X119250000Y-109607142D01*
X119107142Y-109678571D01*
X118892857Y-109678571D01*
X119821428Y-108678571D02*
X120392857Y-108678571D01*
X120035714Y-108178571D02*
X120035714Y-109464285D01*
X120107142Y-109607142D01*
X120250000Y-109678571D01*
X120392857Y-109678571D01*
X120892857Y-109678571D02*
X120892857Y-108678571D01*
X120892857Y-108964285D02*
X120964285Y-108821428D01*
X121035714Y-108750000D01*
X121178571Y-108678571D01*
X121321428Y-108678571D01*
X122821428Y-108178571D02*
X123178571Y-109678571D01*
X123464285Y-108607142D01*
X123750000Y-109678571D01*
X124107142Y-108178571D01*
X124678571Y-109678571D02*
X124678571Y-108678571D01*
X124678571Y-108178571D02*
X124607142Y-108250000D01*
X124678571Y-108321428D01*
X124750000Y-108250000D01*
X124678571Y-108178571D01*
X124678571Y-108321428D01*
X125321428Y-109607142D02*
X125464285Y-109678571D01*
X125750000Y-109678571D01*
X125892857Y-109607142D01*
X125964285Y-109464285D01*
X125964285Y-109392857D01*
X125892857Y-109250000D01*
X125750000Y-109178571D01*
X125535714Y-109178571D01*
X125392857Y-109107142D01*
X125321428Y-108964285D01*
X125321428Y-108892857D01*
X125392857Y-108750000D01*
X125535714Y-108678571D01*
X125750000Y-108678571D01*
X125892857Y-108750000D01*
X126464285Y-108678571D02*
X127250000Y-108678571D01*
X126464285Y-109678571D01*
X127250000Y-109678571D01*
X128035714Y-109678571D02*
X127892857Y-109607142D01*
X127821428Y-109535714D01*
X127750000Y-109392857D01*
X127750000Y-108964285D01*
X127821428Y-108821428D01*
X127892857Y-108750000D01*
X128035714Y-108678571D01*
X128250000Y-108678571D01*
X128392857Y-108750000D01*
X128464285Y-108821428D01*
X128535714Y-108964285D01*
X128535714Y-109392857D01*
X128464285Y-109535714D01*
X128392857Y-109607142D01*
X128250000Y-109678571D01*
X128035714Y-109678571D01*
X129035714Y-108678571D02*
X129321428Y-109678571D01*
X129607142Y-108964285D01*
X129892857Y-109678571D01*
X130178571Y-108678571D01*
X131392857Y-109678571D02*
X131392857Y-108892857D01*
X131321428Y-108750000D01*
X131178571Y-108678571D01*
X130892857Y-108678571D01*
X130750000Y-108750000D01*
X131392857Y-109607142D02*
X131250000Y-109678571D01*
X130892857Y-109678571D01*
X130750000Y-109607142D01*
X130678571Y-109464285D01*
X130678571Y-109321428D01*
X130750000Y-109178571D01*
X130892857Y-109107142D01*
X131250000Y-109107142D01*
X131392857Y-109035714D01*
X131892857Y-108678571D02*
X132464285Y-108678571D01*
X132107142Y-108178571D02*
X132107142Y-109464285D01*
X132178571Y-109607142D01*
X132321428Y-109678571D01*
X132464285Y-109678571D01*
X132821428Y-108678571D02*
X133178571Y-109678571D01*
X133535714Y-108678571D02*
X133178571Y-109678571D01*
X133035714Y-110035714D01*
X132964285Y-110107142D01*
X132821428Y-110178571D01*
X103071428Y-104178571D02*
X103071428Y-105678571D01*
X103071428Y-104250000D02*
X103214285Y-104178571D01*
X103500000Y-104178571D01*
X103642857Y-104250000D01*
X103714285Y-104321428D01*
X103785714Y-104464285D01*
X103785714Y-104892857D01*
X103714285Y-105035714D01*
X103642857Y-105107142D01*
X103500000Y-105178571D01*
X103214285Y-105178571D01*
X103071428Y-105107142D01*
X104428571Y-105178571D02*
X104428571Y-103678571D01*
X105071428Y-105178571D02*
X105071428Y-104392857D01*
X105000000Y-104250000D01*
X104857142Y-104178571D01*
X104642857Y-104178571D01*
X104500000Y-104250000D01*
X104428571Y-104321428D01*
X105785714Y-105178571D02*
X105785714Y-104178571D01*
X105785714Y-104464285D02*
X105857142Y-104321428D01*
X105928571Y-104250000D01*
X106071428Y-104178571D01*
X106214285Y-104178571D01*
X107357142Y-105178571D02*
X107357142Y-104392857D01*
X107285714Y-104250000D01*
X107142857Y-104178571D01*
X106857142Y-104178571D01*
X106714285Y-104250000D01*
X107357142Y-105107142D02*
X107214285Y-105178571D01*
X106857142Y-105178571D01*
X106714285Y-105107142D01*
X106642857Y-104964285D01*
X106642857Y-104821428D01*
X106714285Y-104678571D01*
X106857142Y-104607142D01*
X107214285Y-104607142D01*
X107357142Y-104535714D01*
X108071428Y-105178571D02*
X108071428Y-104178571D01*
X108071428Y-104321428D02*
X108142857Y-104250000D01*
X108285714Y-104178571D01*
X108500000Y-104178571D01*
X108642857Y-104250000D01*
X108714285Y-104392857D01*
X108714285Y-105178571D01*
X108714285Y-104392857D02*
X108785714Y-104250000D01*
X108928571Y-104178571D01*
X109142857Y-104178571D01*
X109285714Y-104250000D01*
X109357142Y-104392857D01*
X109357142Y-105178571D01*
X109714285Y-105321428D02*
X110857142Y-105321428D01*
X112000000Y-105178571D02*
X111142857Y-105178571D01*
X111571428Y-105178571D02*
X111571428Y-103678571D01*
X111428571Y-103892857D01*
X111285714Y-104035714D01*
X111142857Y-104107142D01*
X137478000Y-112208571D02*
X138335142Y-112208571D01*
X137906571Y-113708571D02*
X137906571Y-112208571D01*
X138835142Y-113708571D02*
X138835142Y-112208571D01*
X139335142Y-113280000D01*
X139835142Y-112208571D01*
X139835142Y-113708571D01*
X140478000Y-113637142D02*
X140692285Y-113708571D01*
X141049428Y-113708571D01*
X141192285Y-113637142D01*
X141263714Y-113565714D01*
X141335142Y-113422857D01*
X141335142Y-113280000D01*
X141263714Y-113137142D01*
X141192285Y-113065714D01*
X141049428Y-112994285D01*
X140763714Y-112922857D01*
X140620857Y-112851428D01*
X140549428Y-112780000D01*
X140478000Y-112637142D01*
X140478000Y-112494285D01*
X140549428Y-112351428D01*
X140620857Y-112280000D01*
X140763714Y-112208571D01*
X141120857Y-112208571D01*
X141335142Y-112280000D01*
X138450285Y-109922571D02*
X139307428Y-109922571D01*
X138878857Y-111422571D02*
X138878857Y-109922571D01*
X139807428Y-111422571D02*
X139807428Y-109922571D01*
X140164571Y-109922571D01*
X140378857Y-109994000D01*
X140521714Y-110136857D01*
X140593142Y-110279714D01*
X140664571Y-110565428D01*
X140664571Y-110779714D01*
X140593142Y-111065428D01*
X140521714Y-111208285D01*
X140378857Y-111351142D01*
X140164571Y-111422571D01*
X139807428Y-111422571D01*
X141307428Y-111422571D02*
X141307428Y-109922571D01*
X137513714Y-107382571D02*
X138370857Y-107382571D01*
X137942285Y-108882571D02*
X137942285Y-107382571D01*
X138870857Y-108882571D02*
X138870857Y-107382571D01*
X139228000Y-107382571D01*
X139442285Y-107454000D01*
X139585142Y-107596857D01*
X139656571Y-107739714D01*
X139728000Y-108025428D01*
X139728000Y-108239714D01*
X139656571Y-108525428D01*
X139585142Y-108668285D01*
X139442285Y-108811142D01*
X139228000Y-108882571D01*
X138870857Y-108882571D01*
X140656571Y-107382571D02*
X140942285Y-107382571D01*
X141085142Y-107454000D01*
X141228000Y-107596857D01*
X141299428Y-107882571D01*
X141299428Y-108382571D01*
X141228000Y-108668285D01*
X141085142Y-108811142D01*
X140942285Y-108882571D01*
X140656571Y-108882571D01*
X140513714Y-108811142D01*
X140370857Y-108668285D01*
X140299428Y-108382571D01*
X140299428Y-107882571D01*
X140370857Y-107596857D01*
X140513714Y-107454000D01*
X140656571Y-107382571D01*
X137549428Y-104588571D02*
X138406571Y-104588571D01*
X137978000Y-106088571D02*
X137978000Y-104588571D01*
X139763714Y-105945714D02*
X139692285Y-106017142D01*
X139478000Y-106088571D01*
X139335142Y-106088571D01*
X139120857Y-106017142D01*
X138978000Y-105874285D01*
X138906571Y-105731428D01*
X138835142Y-105445714D01*
X138835142Y-105231428D01*
X138906571Y-104945714D01*
X138978000Y-104802857D01*
X139120857Y-104660000D01*
X139335142Y-104588571D01*
X139478000Y-104588571D01*
X139692285Y-104660000D01*
X139763714Y-104731428D01*
X140406571Y-106088571D02*
X140406571Y-104588571D01*
X141263714Y-106088571D02*
X140620857Y-105231428D01*
X141263714Y-104588571D02*
X140406571Y-105445714D01*
X138335142Y-102120000D02*
X138192285Y-102048571D01*
X137978000Y-102048571D01*
X137763714Y-102120000D01*
X137620857Y-102262857D01*
X137549428Y-102405714D01*
X137478000Y-102691428D01*
X137478000Y-102905714D01*
X137549428Y-103191428D01*
X137620857Y-103334285D01*
X137763714Y-103477142D01*
X137978000Y-103548571D01*
X138120857Y-103548571D01*
X138335142Y-103477142D01*
X138406571Y-103405714D01*
X138406571Y-102905714D01*
X138120857Y-102905714D01*
X139049428Y-103548571D02*
X139049428Y-102048571D01*
X139906571Y-103548571D01*
X139906571Y-102048571D01*
X140620857Y-103548571D02*
X140620857Y-102048571D01*
X140978000Y-102048571D01*
X141192285Y-102120000D01*
X141335142Y-102262857D01*
X141406571Y-102405714D01*
X141478000Y-102691428D01*
X141478000Y-102905714D01*
X141406571Y-103191428D01*
X141335142Y-103334285D01*
X141192285Y-103477142D01*
X140978000Y-103548571D01*
X140620857Y-103548571D01*
X137874857Y-99508571D02*
X138803428Y-99508571D01*
X138303428Y-100080000D01*
X138517714Y-100080000D01*
X138660571Y-100151428D01*
X138732000Y-100222857D01*
X138803428Y-100365714D01*
X138803428Y-100722857D01*
X138732000Y-100865714D01*
X138660571Y-100937142D01*
X138517714Y-101008571D01*
X138089142Y-101008571D01*
X137946285Y-100937142D01*
X137874857Y-100865714D01*
X139232000Y-99508571D02*
X139732000Y-101008571D01*
X140232000Y-99508571D01*
X140589142Y-99508571D02*
X141517714Y-99508571D01*
X141017714Y-100080000D01*
X141232000Y-100080000D01*
X141374857Y-100151428D01*
X141446285Y-100222857D01*
X141517714Y-100365714D01*
X141517714Y-100722857D01*
X141446285Y-100865714D01*
X141374857Y-100937142D01*
X141232000Y-101008571D01*
X140803428Y-101008571D01*
X140660571Y-100937142D01*
X140589142Y-100865714D01*
D11*
G36*
X108246536Y-93100427D02*
X108359118Y-93697618D01*
X108774531Y-93868865D01*
X109189945Y-94040112D01*
X109688302Y-93701233D01*
X109827869Y-93606877D01*
X109954029Y-93522630D01*
X110060896Y-93452338D01*
X110142583Y-93399847D01*
X110193202Y-93369004D01*
X110206987Y-93362353D01*
X110231821Y-93379458D01*
X110284889Y-93426744D01*
X110360241Y-93498172D01*
X110451930Y-93587700D01*
X110554008Y-93689289D01*
X110660527Y-93796898D01*
X110765537Y-93904487D01*
X110863092Y-94006015D01*
X110947243Y-94095441D01*
X111012041Y-94166726D01*
X111051538Y-94213828D01*
X111060981Y-94229592D01*
X111047392Y-94258653D01*
X111009294Y-94322321D01*
X110950694Y-94414367D01*
X110875598Y-94528564D01*
X110788009Y-94658684D01*
X110737255Y-94732901D01*
X110644746Y-94868422D01*
X110562541Y-94990716D01*
X110494631Y-95093695D01*
X110445001Y-95171273D01*
X110417641Y-95217361D01*
X110413530Y-95227047D01*
X110422850Y-95254574D01*
X110448255Y-95318728D01*
X110485912Y-95410490D01*
X110531987Y-95520839D01*
X110582647Y-95640755D01*
X110634060Y-95761219D01*
X110682390Y-95873209D01*
X110723807Y-95967707D01*
X110754475Y-96035692D01*
X110770562Y-96068143D01*
X110771512Y-96069420D01*
X110796773Y-96075617D01*
X110864046Y-96089440D01*
X110966361Y-96109532D01*
X111096742Y-96134534D01*
X111248217Y-96163086D01*
X111336594Y-96179551D01*
X111498453Y-96210369D01*
X111644650Y-96239694D01*
X111767788Y-96265921D01*
X111860470Y-96287446D01*
X111915302Y-96302665D01*
X111926324Y-96307493D01*
X111937119Y-96340174D01*
X111945830Y-96413985D01*
X111952461Y-96520292D01*
X111957019Y-96650467D01*
X111959510Y-96795876D01*
X111959939Y-96947890D01*
X111958312Y-97097877D01*
X111954636Y-97237206D01*
X111948916Y-97357245D01*
X111941158Y-97449365D01*
X111931369Y-97504932D01*
X111925497Y-97516500D01*
X111890400Y-97530365D01*
X111816029Y-97550188D01*
X111712224Y-97573639D01*
X111588820Y-97598391D01*
X111545742Y-97606398D01*
X111338048Y-97644441D01*
X111173985Y-97675079D01*
X111048131Y-97699529D01*
X110955066Y-97719009D01*
X110889368Y-97734736D01*
X110845618Y-97747928D01*
X110818393Y-97759804D01*
X110802273Y-97771580D01*
X110800018Y-97773908D01*
X110777504Y-97811400D01*
X110743159Y-97884365D01*
X110700412Y-97983867D01*
X110652693Y-98100973D01*
X110603431Y-98226748D01*
X110556056Y-98352257D01*
X110513996Y-98468565D01*
X110480681Y-98566739D01*
X110459542Y-98637843D01*
X110454006Y-98672942D01*
X110454467Y-98674172D01*
X110473224Y-98702861D01*
X110515777Y-98765985D01*
X110577654Y-98856973D01*
X110654383Y-98969255D01*
X110741492Y-99096260D01*
X110766299Y-99132353D01*
X110854753Y-99263203D01*
X110932589Y-99382591D01*
X110995567Y-99483662D01*
X111039446Y-99559559D01*
X111059986Y-99603427D01*
X111060981Y-99608817D01*
X111043723Y-99637144D01*
X110996036Y-99693261D01*
X110924051Y-99771137D01*
X110833898Y-99864740D01*
X110731706Y-99968041D01*
X110623606Y-100075006D01*
X110515729Y-100179606D01*
X110414205Y-100275809D01*
X110325163Y-100357584D01*
X110254734Y-100418900D01*
X110209048Y-100453726D01*
X110196410Y-100459412D01*
X110166992Y-100446020D01*
X110106762Y-100409899D01*
X110025530Y-100357136D01*
X109963031Y-100314667D01*
X109849786Y-100236740D01*
X109715675Y-100144984D01*
X109581156Y-100053375D01*
X109508834Y-100004346D01*
X109264039Y-99838770D01*
X109058551Y-99949875D01*
X108964937Y-99998548D01*
X108885331Y-100036381D01*
X108831468Y-100057958D01*
X108817758Y-100060961D01*
X108801271Y-100038793D01*
X108768746Y-99976149D01*
X108722609Y-99878809D01*
X108665291Y-99752549D01*
X108599217Y-99603150D01*
X108526816Y-99436388D01*
X108450517Y-99258042D01*
X108372747Y-99073891D01*
X108295935Y-98889712D01*
X108222507Y-98711285D01*
X108154893Y-98544387D01*
X108095521Y-98394797D01*
X108046817Y-98268293D01*
X108011211Y-98170654D01*
X107991131Y-98107657D01*
X107987901Y-98086021D01*
X108013497Y-98058424D01*
X108069539Y-98013625D01*
X108144312Y-97960934D01*
X108150588Y-97956765D01*
X108343846Y-97802069D01*
X108499675Y-97621591D01*
X108616725Y-97421102D01*
X108693646Y-97206374D01*
X108729087Y-96983177D01*
X108721698Y-96757281D01*
X108670128Y-96534459D01*
X108573027Y-96320479D01*
X108544459Y-96273664D01*
X108395869Y-96084618D01*
X108220328Y-95932812D01*
X108023911Y-95819034D01*
X107812694Y-95744075D01*
X107592754Y-95708722D01*
X107370164Y-95713767D01*
X107151002Y-95759999D01*
X106941343Y-95848206D01*
X106747262Y-95979179D01*
X106687227Y-96032337D01*
X106534436Y-96198739D01*
X106423098Y-96373912D01*
X106346724Y-96570266D01*
X106304188Y-96764717D01*
X106293687Y-96983342D01*
X106328701Y-97203052D01*
X106405674Y-97416420D01*
X106521048Y-97616022D01*
X106671266Y-97794429D01*
X106852774Y-97944217D01*
X106876628Y-97960006D01*
X106952202Y-98011712D01*
X107009652Y-98056512D01*
X107037118Y-98085117D01*
X107037518Y-98086021D01*
X107031621Y-98116964D01*
X107008246Y-98187191D01*
X106969822Y-98290925D01*
X106918778Y-98422390D01*
X106857543Y-98575807D01*
X106788545Y-98745401D01*
X106714214Y-98925393D01*
X106636979Y-99110008D01*
X106559269Y-99293468D01*
X106483512Y-99469996D01*
X106412138Y-99633814D01*
X106347575Y-99779147D01*
X106292253Y-99900217D01*
X106248601Y-99991247D01*
X106219047Y-100046460D01*
X106207145Y-100060961D01*
X106170778Y-100049669D01*
X106102731Y-100019385D01*
X106014737Y-99975520D01*
X105966351Y-99949875D01*
X105760864Y-99838770D01*
X105516069Y-100004346D01*
X105391107Y-100089170D01*
X105254296Y-100182516D01*
X105126089Y-100270408D01*
X105061872Y-100314667D01*
X104971552Y-100375318D01*
X104895072Y-100423381D01*
X104842408Y-100452770D01*
X104825303Y-100458982D01*
X104800406Y-100442223D01*
X104745306Y-100395436D01*
X104665344Y-100323480D01*
X104565861Y-100231212D01*
X104452201Y-100123490D01*
X104380316Y-100054326D01*
X104254552Y-99930757D01*
X104145864Y-99820234D01*
X104058646Y-99727485D01*
X103997290Y-99657237D01*
X103966192Y-99614220D01*
X103963209Y-99605490D01*
X103977054Y-99572284D01*
X104015313Y-99505142D01*
X104073742Y-99410863D01*
X104148098Y-99296245D01*
X104234136Y-99168083D01*
X104258603Y-99132353D01*
X104347755Y-99002489D01*
X104427739Y-98885569D01*
X104494081Y-98788162D01*
X104542312Y-98716839D01*
X104567958Y-98678170D01*
X104570436Y-98674172D01*
X104566730Y-98643355D01*
X104547062Y-98575599D01*
X104514861Y-98479839D01*
X104473556Y-98365009D01*
X104426576Y-98240044D01*
X104377350Y-98113879D01*
X104329309Y-97995448D01*
X104285882Y-97893685D01*
X104250497Y-97817526D01*
X104226585Y-97775904D01*
X104224885Y-97773908D01*
X104210263Y-97762013D01*
X104185566Y-97750250D01*
X104145373Y-97737401D01*
X104084264Y-97722249D01*
X103996818Y-97703576D01*
X103877613Y-97680165D01*
X103721228Y-97650797D01*
X103522244Y-97614255D01*
X103479161Y-97606398D01*
X103351471Y-97581727D01*
X103240154Y-97557593D01*
X103155046Y-97536324D01*
X103105984Y-97520248D01*
X103099406Y-97516500D01*
X103088565Y-97483273D01*
X103079754Y-97409021D01*
X103072977Y-97302376D01*
X103068241Y-97171967D01*
X103065551Y-97026427D01*
X103064914Y-96874386D01*
X103066335Y-96724476D01*
X103069821Y-96585328D01*
X103075377Y-96465572D01*
X103083009Y-96373841D01*
X103092723Y-96318766D01*
X103098579Y-96307493D01*
X103131181Y-96296123D01*
X103205419Y-96277624D01*
X103313897Y-96253602D01*
X103449218Y-96225662D01*
X103603986Y-96195408D01*
X103688308Y-96179551D01*
X103848297Y-96149644D01*
X103990968Y-96122550D01*
X104109349Y-96099631D01*
X104196466Y-96082243D01*
X104245346Y-96071747D01*
X104253391Y-96069420D01*
X104266988Y-96043186D01*
X104295730Y-95979995D01*
X104335786Y-95888877D01*
X104383325Y-95778857D01*
X104434516Y-95658965D01*
X104485527Y-95538227D01*
X104532527Y-95425671D01*
X104571685Y-95330326D01*
X104599170Y-95261217D01*
X104611150Y-95227374D01*
X104611373Y-95225895D01*
X104597792Y-95199197D01*
X104559716Y-95137760D01*
X104501148Y-95047689D01*
X104426089Y-94935090D01*
X104338541Y-94806070D01*
X104287648Y-94731961D01*
X104194910Y-94596077D01*
X104112542Y-94472709D01*
X104044562Y-94368097D01*
X103994989Y-94288483D01*
X103967843Y-94240107D01*
X103963922Y-94229262D01*
X103980776Y-94204020D01*
X104027369Y-94150124D01*
X104097749Y-94073613D01*
X104185966Y-93980523D01*
X104286066Y-93876895D01*
X104392099Y-93768764D01*
X104498112Y-93662170D01*
X104598153Y-93563150D01*
X104686271Y-93477742D01*
X104756514Y-93411985D01*
X104802929Y-93371916D01*
X104818457Y-93362353D01*
X104843740Y-93375800D01*
X104904212Y-93413575D01*
X104993993Y-93471835D01*
X105107204Y-93546734D01*
X105237964Y-93634425D01*
X105336600Y-93701233D01*
X105834958Y-94040112D01*
X106250371Y-93868865D01*
X106665785Y-93697618D01*
X106778367Y-93100427D01*
X106890950Y-92503235D01*
X108133953Y-92503235D01*
X108246536Y-93100427D01*
X108246536Y-93100427D01*
G37*
X108246536Y-93100427D02*
X108359118Y-93697618D01*
X108774531Y-93868865D01*
X109189945Y-94040112D01*
X109688302Y-93701233D01*
X109827869Y-93606877D01*
X109954029Y-93522630D01*
X110060896Y-93452338D01*
X110142583Y-93399847D01*
X110193202Y-93369004D01*
X110206987Y-93362353D01*
X110231821Y-93379458D01*
X110284889Y-93426744D01*
X110360241Y-93498172D01*
X110451930Y-93587700D01*
X110554008Y-93689289D01*
X110660527Y-93796898D01*
X110765537Y-93904487D01*
X110863092Y-94006015D01*
X110947243Y-94095441D01*
X111012041Y-94166726D01*
X111051538Y-94213828D01*
X111060981Y-94229592D01*
X111047392Y-94258653D01*
X111009294Y-94322321D01*
X110950694Y-94414367D01*
X110875598Y-94528564D01*
X110788009Y-94658684D01*
X110737255Y-94732901D01*
X110644746Y-94868422D01*
X110562541Y-94990716D01*
X110494631Y-95093695D01*
X110445001Y-95171273D01*
X110417641Y-95217361D01*
X110413530Y-95227047D01*
X110422850Y-95254574D01*
X110448255Y-95318728D01*
X110485912Y-95410490D01*
X110531987Y-95520839D01*
X110582647Y-95640755D01*
X110634060Y-95761219D01*
X110682390Y-95873209D01*
X110723807Y-95967707D01*
X110754475Y-96035692D01*
X110770562Y-96068143D01*
X110771512Y-96069420D01*
X110796773Y-96075617D01*
X110864046Y-96089440D01*
X110966361Y-96109532D01*
X111096742Y-96134534D01*
X111248217Y-96163086D01*
X111336594Y-96179551D01*
X111498453Y-96210369D01*
X111644650Y-96239694D01*
X111767788Y-96265921D01*
X111860470Y-96287446D01*
X111915302Y-96302665D01*
X111926324Y-96307493D01*
X111937119Y-96340174D01*
X111945830Y-96413985D01*
X111952461Y-96520292D01*
X111957019Y-96650467D01*
X111959510Y-96795876D01*
X111959939Y-96947890D01*
X111958312Y-97097877D01*
X111954636Y-97237206D01*
X111948916Y-97357245D01*
X111941158Y-97449365D01*
X111931369Y-97504932D01*
X111925497Y-97516500D01*
X111890400Y-97530365D01*
X111816029Y-97550188D01*
X111712224Y-97573639D01*
X111588820Y-97598391D01*
X111545742Y-97606398D01*
X111338048Y-97644441D01*
X111173985Y-97675079D01*
X111048131Y-97699529D01*
X110955066Y-97719009D01*
X110889368Y-97734736D01*
X110845618Y-97747928D01*
X110818393Y-97759804D01*
X110802273Y-97771580D01*
X110800018Y-97773908D01*
X110777504Y-97811400D01*
X110743159Y-97884365D01*
X110700412Y-97983867D01*
X110652693Y-98100973D01*
X110603431Y-98226748D01*
X110556056Y-98352257D01*
X110513996Y-98468565D01*
X110480681Y-98566739D01*
X110459542Y-98637843D01*
X110454006Y-98672942D01*
X110454467Y-98674172D01*
X110473224Y-98702861D01*
X110515777Y-98765985D01*
X110577654Y-98856973D01*
X110654383Y-98969255D01*
X110741492Y-99096260D01*
X110766299Y-99132353D01*
X110854753Y-99263203D01*
X110932589Y-99382591D01*
X110995567Y-99483662D01*
X111039446Y-99559559D01*
X111059986Y-99603427D01*
X111060981Y-99608817D01*
X111043723Y-99637144D01*
X110996036Y-99693261D01*
X110924051Y-99771137D01*
X110833898Y-99864740D01*
X110731706Y-99968041D01*
X110623606Y-100075006D01*
X110515729Y-100179606D01*
X110414205Y-100275809D01*
X110325163Y-100357584D01*
X110254734Y-100418900D01*
X110209048Y-100453726D01*
X110196410Y-100459412D01*
X110166992Y-100446020D01*
X110106762Y-100409899D01*
X110025530Y-100357136D01*
X109963031Y-100314667D01*
X109849786Y-100236740D01*
X109715675Y-100144984D01*
X109581156Y-100053375D01*
X109508834Y-100004346D01*
X109264039Y-99838770D01*
X109058551Y-99949875D01*
X108964937Y-99998548D01*
X108885331Y-100036381D01*
X108831468Y-100057958D01*
X108817758Y-100060961D01*
X108801271Y-100038793D01*
X108768746Y-99976149D01*
X108722609Y-99878809D01*
X108665291Y-99752549D01*
X108599217Y-99603150D01*
X108526816Y-99436388D01*
X108450517Y-99258042D01*
X108372747Y-99073891D01*
X108295935Y-98889712D01*
X108222507Y-98711285D01*
X108154893Y-98544387D01*
X108095521Y-98394797D01*
X108046817Y-98268293D01*
X108011211Y-98170654D01*
X107991131Y-98107657D01*
X107987901Y-98086021D01*
X108013497Y-98058424D01*
X108069539Y-98013625D01*
X108144312Y-97960934D01*
X108150588Y-97956765D01*
X108343846Y-97802069D01*
X108499675Y-97621591D01*
X108616725Y-97421102D01*
X108693646Y-97206374D01*
X108729087Y-96983177D01*
X108721698Y-96757281D01*
X108670128Y-96534459D01*
X108573027Y-96320479D01*
X108544459Y-96273664D01*
X108395869Y-96084618D01*
X108220328Y-95932812D01*
X108023911Y-95819034D01*
X107812694Y-95744075D01*
X107592754Y-95708722D01*
X107370164Y-95713767D01*
X107151002Y-95759999D01*
X106941343Y-95848206D01*
X106747262Y-95979179D01*
X106687227Y-96032337D01*
X106534436Y-96198739D01*
X106423098Y-96373912D01*
X106346724Y-96570266D01*
X106304188Y-96764717D01*
X106293687Y-96983342D01*
X106328701Y-97203052D01*
X106405674Y-97416420D01*
X106521048Y-97616022D01*
X106671266Y-97794429D01*
X106852774Y-97944217D01*
X106876628Y-97960006D01*
X106952202Y-98011712D01*
X107009652Y-98056512D01*
X107037118Y-98085117D01*
X107037518Y-98086021D01*
X107031621Y-98116964D01*
X107008246Y-98187191D01*
X106969822Y-98290925D01*
X106918778Y-98422390D01*
X106857543Y-98575807D01*
X106788545Y-98745401D01*
X106714214Y-98925393D01*
X106636979Y-99110008D01*
X106559269Y-99293468D01*
X106483512Y-99469996D01*
X106412138Y-99633814D01*
X106347575Y-99779147D01*
X106292253Y-99900217D01*
X106248601Y-99991247D01*
X106219047Y-100046460D01*
X106207145Y-100060961D01*
X106170778Y-100049669D01*
X106102731Y-100019385D01*
X106014737Y-99975520D01*
X105966351Y-99949875D01*
X105760864Y-99838770D01*
X105516069Y-100004346D01*
X105391107Y-100089170D01*
X105254296Y-100182516D01*
X105126089Y-100270408D01*
X105061872Y-100314667D01*
X104971552Y-100375318D01*
X104895072Y-100423381D01*
X104842408Y-100452770D01*
X104825303Y-100458982D01*
X104800406Y-100442223D01*
X104745306Y-100395436D01*
X104665344Y-100323480D01*
X104565861Y-100231212D01*
X104452201Y-100123490D01*
X104380316Y-100054326D01*
X104254552Y-99930757D01*
X104145864Y-99820234D01*
X104058646Y-99727485D01*
X103997290Y-99657237D01*
X103966192Y-99614220D01*
X103963209Y-99605490D01*
X103977054Y-99572284D01*
X104015313Y-99505142D01*
X104073742Y-99410863D01*
X104148098Y-99296245D01*
X104234136Y-99168083D01*
X104258603Y-99132353D01*
X104347755Y-99002489D01*
X104427739Y-98885569D01*
X104494081Y-98788162D01*
X104542312Y-98716839D01*
X104567958Y-98678170D01*
X104570436Y-98674172D01*
X104566730Y-98643355D01*
X104547062Y-98575599D01*
X104514861Y-98479839D01*
X104473556Y-98365009D01*
X104426576Y-98240044D01*
X104377350Y-98113879D01*
X104329309Y-97995448D01*
X104285882Y-97893685D01*
X104250497Y-97817526D01*
X104226585Y-97775904D01*
X104224885Y-97773908D01*
X104210263Y-97762013D01*
X104185566Y-97750250D01*
X104145373Y-97737401D01*
X104084264Y-97722249D01*
X103996818Y-97703576D01*
X103877613Y-97680165D01*
X103721228Y-97650797D01*
X103522244Y-97614255D01*
X103479161Y-97606398D01*
X103351471Y-97581727D01*
X103240154Y-97557593D01*
X103155046Y-97536324D01*
X103105984Y-97520248D01*
X103099406Y-97516500D01*
X103088565Y-97483273D01*
X103079754Y-97409021D01*
X103072977Y-97302376D01*
X103068241Y-97171967D01*
X103065551Y-97026427D01*
X103064914Y-96874386D01*
X103066335Y-96724476D01*
X103069821Y-96585328D01*
X103075377Y-96465572D01*
X103083009Y-96373841D01*
X103092723Y-96318766D01*
X103098579Y-96307493D01*
X103131181Y-96296123D01*
X103205419Y-96277624D01*
X103313897Y-96253602D01*
X103449218Y-96225662D01*
X103603986Y-96195408D01*
X103688308Y-96179551D01*
X103848297Y-96149644D01*
X103990968Y-96122550D01*
X104109349Y-96099631D01*
X104196466Y-96082243D01*
X104245346Y-96071747D01*
X104253391Y-96069420D01*
X104266988Y-96043186D01*
X104295730Y-95979995D01*
X104335786Y-95888877D01*
X104383325Y-95778857D01*
X104434516Y-95658965D01*
X104485527Y-95538227D01*
X104532527Y-95425671D01*
X104571685Y-95330326D01*
X104599170Y-95261217D01*
X104611150Y-95227374D01*
X104611373Y-95225895D01*
X104597792Y-95199197D01*
X104559716Y-95137760D01*
X104501148Y-95047689D01*
X104426089Y-94935090D01*
X104338541Y-94806070D01*
X104287648Y-94731961D01*
X104194910Y-94596077D01*
X104112542Y-94472709D01*
X104044562Y-94368097D01*
X103994989Y-94288483D01*
X103967843Y-94240107D01*
X103963922Y-94229262D01*
X103980776Y-94204020D01*
X104027369Y-94150124D01*
X104097749Y-94073613D01*
X104185966Y-93980523D01*
X104286066Y-93876895D01*
X104392099Y-93768764D01*
X104498112Y-93662170D01*
X104598153Y-93563150D01*
X104686271Y-93477742D01*
X104756514Y-93411985D01*
X104802929Y-93371916D01*
X104818457Y-93362353D01*
X104843740Y-93375800D01*
X104904212Y-93413575D01*
X104993993Y-93471835D01*
X105107204Y-93546734D01*
X105237964Y-93634425D01*
X105336600Y-93701233D01*
X105834958Y-94040112D01*
X106250371Y-93868865D01*
X106665785Y-93697618D01*
X106778367Y-93100427D01*
X106890950Y-92503235D01*
X108133953Y-92503235D01*
X108246536Y-93100427D01*
D12*
X76400000Y-87385000D02*
X63700000Y-87385000D01*
X76400000Y-102625000D02*
X76400000Y-87385000D01*
X61160000Y-102625000D02*
X76400000Y-102625000D01*
X61160000Y-89925000D02*
X61160000Y-102625000D01*
X63700000Y-87385000D02*
X61160000Y-89925000D01*
X82750000Y-108975000D02*
X82750000Y-81035000D01*
X54810000Y-108975000D02*
X82750000Y-108975000D01*
X54810000Y-81035000D02*
X54810000Y-108975000D01*
X82750000Y-81035000D02*
X54810000Y-81035000D01*
X139205000Y-53320000D02*
X139090000Y-53320000D01*
X139205000Y-65420000D02*
X139090000Y-65420000D01*
X116655000Y-65420000D02*
X116855000Y-65420000D01*
X116655000Y-51520000D02*
X116855000Y-51520000D01*
X139205000Y-53320000D02*
X139205000Y-65420000D01*
X116655000Y-51520000D02*
X116655000Y-65420000D01*
X139090000Y-53320000D02*
X139090000Y-51945000D01*
X87145000Y-113435000D02*
X91595000Y-113435000D01*
X85620000Y-106685000D02*
X91595000Y-106685000D01*
X87145000Y-103675000D02*
X91595000Y-103675000D01*
X85620000Y-96925000D02*
X91595000Y-96925000D01*
X87145000Y-93285000D02*
X91595000Y-93285000D01*
X85620000Y-86535000D02*
X91595000Y-86535000D01*
X87145000Y-66145000D02*
X91595000Y-66145000D01*
X85620000Y-59395000D02*
X91595000Y-59395000D01*
X87145000Y-83855000D02*
X91595000Y-83855000D01*
X85620000Y-77105000D02*
X91595000Y-77105000D01*
X87145000Y-74875000D02*
X91595000Y-74875000D01*
X85620000Y-68125000D02*
X91595000Y-68125000D01*
X138730000Y-76820000D02*
X137655000Y-76820000D01*
X138730000Y-97170000D02*
X137655000Y-97170000D01*
X118380000Y-97170000D02*
X119455000Y-97170000D01*
X118380000Y-76820000D02*
X119455000Y-76820000D01*
X138730000Y-76820000D02*
X138730000Y-77895000D01*
X118380000Y-76820000D02*
X118380000Y-77895000D01*
X118380000Y-97170000D02*
X118380000Y-96095000D01*
X138730000Y-97170000D02*
X138730000Y-96095000D01*
X137655000Y-76820000D02*
X137655000Y-75720000D01*
X72440000Y-56350000D02*
X72440000Y-54350000D01*
X70390000Y-54350000D02*
X70390000Y-56350000D01*
X82600000Y-56000000D02*
X82600000Y-54000000D01*
X80550000Y-54000000D02*
X80550000Y-56000000D01*
X57105000Y-57620000D02*
X57105000Y-55620000D01*
X55055000Y-55620000D02*
X55055000Y-57620000D01*
X67265000Y-56350000D02*
X67265000Y-54350000D01*
X65215000Y-54350000D02*
X65215000Y-56350000D01*
X76749000Y-56454920D02*
X76449280Y-56206000D01*
X76449280Y-56206000D02*
X76299420Y-56104400D01*
X76299420Y-56104400D02*
X77147780Y-56104400D01*
X75247860Y-56805440D02*
X77048720Y-56805440D01*
X75247860Y-56805440D02*
X75247860Y-56155200D01*
X75247860Y-52304560D02*
X77048720Y-52304560D01*
X75247860Y-52304560D02*
X75247860Y-52954800D01*
X61190480Y-56454920D02*
X60890760Y-56206000D01*
X60890760Y-56206000D02*
X60740900Y-56104400D01*
X60740900Y-56104400D02*
X61589260Y-56104400D01*
X59689340Y-56805440D02*
X61490200Y-56805440D01*
X59689340Y-56805440D02*
X59689340Y-56155200D01*
X59689340Y-52304560D02*
X61490200Y-52304560D01*
X59689340Y-52304560D02*
X59689340Y-52954800D01*
X109650000Y-53850000D02*
X110650000Y-53850000D01*
X110650000Y-52150000D02*
X109650000Y-52150000D01*
X142115000Y-98780000D02*
X142115000Y-100330000D01*
X143415000Y-98780000D02*
X142115000Y-98780000D01*
X147606000Y-100203000D02*
X153448000Y-100203000D01*
X153448000Y-100203000D02*
X153448000Y-100457000D01*
X153448000Y-100457000D02*
X147606000Y-100457000D01*
X147606000Y-100457000D02*
X147606000Y-100330000D01*
X147606000Y-100330000D02*
X153448000Y-100330000D01*
X144939000Y-100076000D02*
X144558000Y-100076000D01*
X144939000Y-100584000D02*
X144558000Y-100584000D01*
X144939000Y-102616000D02*
X144558000Y-102616000D01*
X144939000Y-103124000D02*
X144558000Y-103124000D01*
X144939000Y-105156000D02*
X144558000Y-105156000D01*
X144939000Y-105664000D02*
X144558000Y-105664000D01*
X144939000Y-113284000D02*
X144558000Y-113284000D01*
X144939000Y-112776000D02*
X144558000Y-112776000D01*
X144939000Y-110744000D02*
X144558000Y-110744000D01*
X144939000Y-110236000D02*
X144558000Y-110236000D01*
X144939000Y-108204000D02*
X144558000Y-108204000D01*
X144939000Y-107696000D02*
X144558000Y-107696000D01*
X144939000Y-99060000D02*
X147479000Y-99060000D01*
X144939000Y-101600000D02*
X147479000Y-101600000D01*
X144939000Y-101600000D02*
X144939000Y-104140000D01*
X144939000Y-104140000D02*
X147479000Y-104140000D01*
X147479000Y-102616000D02*
X153575000Y-102616000D01*
X153575000Y-102616000D02*
X153575000Y-103124000D01*
X153575000Y-103124000D02*
X147479000Y-103124000D01*
X147479000Y-104140000D02*
X147479000Y-101600000D01*
X147479000Y-101600000D02*
X147479000Y-99060000D01*
X153575000Y-100584000D02*
X147479000Y-100584000D01*
X153575000Y-100076000D02*
X153575000Y-100584000D01*
X147479000Y-100076000D02*
X153575000Y-100076000D01*
X144939000Y-101600000D02*
X147479000Y-101600000D01*
X144939000Y-99060000D02*
X144939000Y-101600000D01*
X144939000Y-109220000D02*
X147479000Y-109220000D01*
X144939000Y-109220000D02*
X144939000Y-111760000D01*
X144939000Y-111760000D02*
X147479000Y-111760000D01*
X147479000Y-110236000D02*
X153575000Y-110236000D01*
X153575000Y-110236000D02*
X153575000Y-110744000D01*
X153575000Y-110744000D02*
X147479000Y-110744000D01*
X147479000Y-111760000D02*
X147479000Y-109220000D01*
X147479000Y-114300000D02*
X147479000Y-111760000D01*
X153575000Y-113284000D02*
X147479000Y-113284000D01*
X153575000Y-112776000D02*
X153575000Y-113284000D01*
X147479000Y-112776000D02*
X153575000Y-112776000D01*
X144939000Y-114300000D02*
X147479000Y-114300000D01*
X144939000Y-111760000D02*
X144939000Y-114300000D01*
X144939000Y-111760000D02*
X147479000Y-111760000D01*
X144939000Y-106680000D02*
X147479000Y-106680000D01*
X144939000Y-106680000D02*
X144939000Y-109220000D01*
X144939000Y-109220000D02*
X147479000Y-109220000D01*
X147479000Y-107696000D02*
X153575000Y-107696000D01*
X153575000Y-107696000D02*
X153575000Y-108204000D01*
X153575000Y-108204000D02*
X147479000Y-108204000D01*
X147479000Y-109220000D02*
X147479000Y-106680000D01*
X147479000Y-106680000D02*
X147479000Y-104140000D01*
X153575000Y-105664000D02*
X147479000Y-105664000D01*
X153575000Y-105156000D02*
X153575000Y-105664000D01*
X147479000Y-105156000D02*
X153575000Y-105156000D01*
X144939000Y-106680000D02*
X147479000Y-106680000D01*
X144939000Y-104140000D02*
X144939000Y-106680000D01*
X144939000Y-104140000D02*
X147479000Y-104140000D01*
X55685840Y-65160240D02*
X55734100Y-65160240D01*
X58484820Y-64459200D02*
X58484820Y-65160240D01*
X58484820Y-65160240D02*
X58235900Y-65160240D01*
X55685840Y-65160240D02*
X55485180Y-65160240D01*
X55485180Y-65160240D02*
X55485180Y-64459200D01*
X112700000Y-54400000D02*
G75*
G03X112700000Y-54400000I-200000J0D01*
G01*
X106300000Y-59600000D02*
X112700000Y-59600000D01*
X106300000Y-54800000D02*
X106300000Y-59600000D01*
X112700000Y-54800000D02*
X106300000Y-54800000D01*
X112700000Y-59600000D02*
X112700000Y-54800000D01*
X144242000Y-81254000D02*
X144242000Y-82804000D01*
X145542000Y-81254000D02*
X144242000Y-81254000D01*
X149733000Y-82677000D02*
X155575000Y-82677000D01*
X155575000Y-82677000D02*
X155575000Y-82931000D01*
X155575000Y-82931000D02*
X149733000Y-82931000D01*
X149733000Y-82931000D02*
X149733000Y-82804000D01*
X149733000Y-82804000D02*
X155575000Y-82804000D01*
X147066000Y-82550000D02*
X146685000Y-82550000D01*
X147066000Y-83058000D02*
X146685000Y-83058000D01*
X147066000Y-85090000D02*
X146685000Y-85090000D01*
X147066000Y-85598000D02*
X146685000Y-85598000D01*
X147066000Y-87630000D02*
X146685000Y-87630000D01*
X147066000Y-88138000D02*
X146685000Y-88138000D01*
X147066000Y-95758000D02*
X146685000Y-95758000D01*
X147066000Y-95250000D02*
X146685000Y-95250000D01*
X147066000Y-93218000D02*
X146685000Y-93218000D01*
X147066000Y-92710000D02*
X146685000Y-92710000D01*
X147066000Y-90678000D02*
X146685000Y-90678000D01*
X147066000Y-90170000D02*
X146685000Y-90170000D01*
X147066000Y-81534000D02*
X149606000Y-81534000D01*
X147066000Y-84074000D02*
X149606000Y-84074000D01*
X147066000Y-84074000D02*
X147066000Y-86614000D01*
X147066000Y-86614000D02*
X149606000Y-86614000D01*
X149606000Y-85090000D02*
X155702000Y-85090000D01*
X155702000Y-85090000D02*
X155702000Y-85598000D01*
X155702000Y-85598000D02*
X149606000Y-85598000D01*
X149606000Y-86614000D02*
X149606000Y-84074000D01*
X149606000Y-84074000D02*
X149606000Y-81534000D01*
X155702000Y-83058000D02*
X149606000Y-83058000D01*
X155702000Y-82550000D02*
X155702000Y-83058000D01*
X149606000Y-82550000D02*
X155702000Y-82550000D01*
X147066000Y-84074000D02*
X149606000Y-84074000D01*
X147066000Y-81534000D02*
X147066000Y-84074000D01*
X147066000Y-91694000D02*
X149606000Y-91694000D01*
X147066000Y-91694000D02*
X147066000Y-94234000D01*
X147066000Y-94234000D02*
X149606000Y-94234000D01*
X149606000Y-92710000D02*
X155702000Y-92710000D01*
X155702000Y-92710000D02*
X155702000Y-93218000D01*
X155702000Y-93218000D02*
X149606000Y-93218000D01*
X149606000Y-94234000D02*
X149606000Y-91694000D01*
X149606000Y-96774000D02*
X149606000Y-94234000D01*
X155702000Y-95758000D02*
X149606000Y-95758000D01*
X155702000Y-95250000D02*
X155702000Y-95758000D01*
X149606000Y-95250000D02*
X155702000Y-95250000D01*
X147066000Y-96774000D02*
X149606000Y-96774000D01*
X147066000Y-94234000D02*
X147066000Y-96774000D01*
X147066000Y-94234000D02*
X149606000Y-94234000D01*
X147066000Y-89154000D02*
X149606000Y-89154000D01*
X147066000Y-89154000D02*
X147066000Y-91694000D01*
X147066000Y-91694000D02*
X149606000Y-91694000D01*
X149606000Y-90170000D02*
X155702000Y-90170000D01*
X155702000Y-90170000D02*
X155702000Y-90678000D01*
X155702000Y-90678000D02*
X149606000Y-90678000D01*
X149606000Y-91694000D02*
X149606000Y-89154000D01*
X149606000Y-89154000D02*
X149606000Y-86614000D01*
X155702000Y-88138000D02*
X149606000Y-88138000D01*
X155702000Y-87630000D02*
X155702000Y-88138000D01*
X149606000Y-87630000D02*
X155702000Y-87630000D01*
X147066000Y-89154000D02*
X149606000Y-89154000D01*
X147066000Y-86614000D02*
X147066000Y-89154000D01*
X147066000Y-86614000D02*
X149606000Y-86614000D01*
X148108000Y-52298000D02*
X148108000Y-53848000D01*
X145008000Y-53848000D02*
X145008000Y-52298000D01*
X145008000Y-52298000D02*
X148108000Y-52298000D01*
X145288000Y-55118000D02*
X147828000Y-55118000D01*
X92444000Y-54497000D02*
X93644000Y-54497000D01*
X93644000Y-56247000D02*
X92444000Y-56247000D01*
X78373000Y-61814000D02*
X78373000Y-60614000D01*
X80123000Y-60614000D02*
X80123000Y-61814000D01*
X88056000Y-56247000D02*
X86856000Y-56247000D01*
X86856000Y-54497000D02*
X88056000Y-54497000D01*
X53907000Y-55642000D02*
X53907000Y-57642000D01*
X51757000Y-57642000D02*
X51757000Y-55642000D01*
X54050000Y-95950000D02*
X54050000Y-97500000D01*
X50950000Y-97500000D02*
X50950000Y-95950000D01*
X50950000Y-95950000D02*
X54050000Y-95950000D01*
X51230000Y-98770000D02*
X53770000Y-98770000D01*
X140493904Y-52284380D02*
X140493904Y-53093904D01*
X140541523Y-53189142D01*
X140589142Y-53236761D01*
X140684380Y-53284380D01*
X140874857Y-53284380D01*
X140970095Y-53236761D01*
X141017714Y-53189142D01*
X141065333Y-53093904D01*
X141065333Y-52284380D01*
X142065333Y-53284380D02*
X141493904Y-53284380D01*
X141779619Y-53284380D02*
X141779619Y-52284380D01*
X141684380Y-52427238D01*
X141589142Y-52522476D01*
X141493904Y-52570095D01*
X142684380Y-52284380D02*
X142779619Y-52284380D01*
X142874857Y-52332000D01*
X142922476Y-52379619D01*
X142970095Y-52474857D01*
X143017714Y-52665333D01*
X143017714Y-52903428D01*
X142970095Y-53093904D01*
X142922476Y-53189142D01*
X142874857Y-53236761D01*
X142779619Y-53284380D01*
X142684380Y-53284380D01*
X142589142Y-53236761D01*
X142541523Y-53189142D01*
X142493904Y-53093904D01*
X142446285Y-52903428D01*
X142446285Y-52665333D01*
X142493904Y-52474857D01*
X142541523Y-52379619D01*
X142589142Y-52332000D01*
X142684380Y-52284380D01*
X85598095Y-105212380D02*
X85598095Y-106021904D01*
X85645714Y-106117142D01*
X85693333Y-106164761D01*
X85788571Y-106212380D01*
X85979047Y-106212380D01*
X86074285Y-106164761D01*
X86121904Y-106117142D01*
X86169523Y-106021904D01*
X86169523Y-105212380D01*
X86598095Y-105307619D02*
X86645714Y-105260000D01*
X86740952Y-105212380D01*
X86979047Y-105212380D01*
X87074285Y-105260000D01*
X87121904Y-105307619D01*
X87169523Y-105402857D01*
X87169523Y-105498095D01*
X87121904Y-105640952D01*
X86550476Y-106212380D01*
X87169523Y-106212380D01*
X83566095Y-96964380D02*
X83566095Y-97773904D01*
X83613714Y-97869142D01*
X83661333Y-97916761D01*
X83756571Y-97964380D01*
X83947047Y-97964380D01*
X84042285Y-97916761D01*
X84089904Y-97869142D01*
X84137523Y-97773904D01*
X84137523Y-96964380D01*
X84518476Y-96964380D02*
X85137523Y-96964380D01*
X84804190Y-97345333D01*
X84947047Y-97345333D01*
X85042285Y-97392952D01*
X85089904Y-97440571D01*
X85137523Y-97535809D01*
X85137523Y-97773904D01*
X85089904Y-97869142D01*
X85042285Y-97916761D01*
X84947047Y-97964380D01*
X84661333Y-97964380D01*
X84566095Y-97916761D01*
X84518476Y-97869142D01*
X85598095Y-85304380D02*
X85598095Y-86113904D01*
X85645714Y-86209142D01*
X85693333Y-86256761D01*
X85788571Y-86304380D01*
X85979047Y-86304380D01*
X86074285Y-86256761D01*
X86121904Y-86209142D01*
X86169523Y-86113904D01*
X86169523Y-85304380D01*
X87074285Y-85637714D02*
X87074285Y-86304380D01*
X86836190Y-85256761D02*
X86598095Y-85971047D01*
X87217142Y-85971047D01*
X85598095Y-57922380D02*
X85598095Y-58731904D01*
X85645714Y-58827142D01*
X85693333Y-58874761D01*
X85788571Y-58922380D01*
X85979047Y-58922380D01*
X86074285Y-58874761D01*
X86121904Y-58827142D01*
X86169523Y-58731904D01*
X86169523Y-57922380D01*
X87074285Y-57922380D02*
X86883809Y-57922380D01*
X86788571Y-57970000D01*
X86740952Y-58017619D01*
X86645714Y-58160476D01*
X86598095Y-58350952D01*
X86598095Y-58731904D01*
X86645714Y-58827142D01*
X86693333Y-58874761D01*
X86788571Y-58922380D01*
X86979047Y-58922380D01*
X87074285Y-58874761D01*
X87121904Y-58827142D01*
X87169523Y-58731904D01*
X87169523Y-58493809D01*
X87121904Y-58398571D01*
X87074285Y-58350952D01*
X86979047Y-58303333D01*
X86788571Y-58303333D01*
X86693333Y-58350952D01*
X86645714Y-58398571D01*
X86598095Y-58493809D01*
X83566095Y-76922380D02*
X83566095Y-77731904D01*
X83613714Y-77827142D01*
X83661333Y-77874761D01*
X83756571Y-77922380D01*
X83947047Y-77922380D01*
X84042285Y-77874761D01*
X84089904Y-77827142D01*
X84137523Y-77731904D01*
X84137523Y-76922380D01*
X84518476Y-76922380D02*
X85185142Y-76922380D01*
X84756571Y-77922380D01*
X83566095Y-67778380D02*
X83566095Y-68587904D01*
X83613714Y-68683142D01*
X83661333Y-68730761D01*
X83756571Y-68778380D01*
X83947047Y-68778380D01*
X84042285Y-68730761D01*
X84089904Y-68683142D01*
X84137523Y-68587904D01*
X84137523Y-67778380D01*
X84756571Y-68206952D02*
X84661333Y-68159333D01*
X84613714Y-68111714D01*
X84566095Y-68016476D01*
X84566095Y-67968857D01*
X84613714Y-67873619D01*
X84661333Y-67826000D01*
X84756571Y-67778380D01*
X84947047Y-67778380D01*
X85042285Y-67826000D01*
X85089904Y-67873619D01*
X85137523Y-67968857D01*
X85137523Y-68016476D01*
X85089904Y-68111714D01*
X85042285Y-68159333D01*
X84947047Y-68206952D01*
X84756571Y-68206952D01*
X84661333Y-68254571D01*
X84613714Y-68302190D01*
X84566095Y-68397428D01*
X84566095Y-68587904D01*
X84613714Y-68683142D01*
X84661333Y-68730761D01*
X84756571Y-68778380D01*
X84947047Y-68778380D01*
X85042285Y-68730761D01*
X85089904Y-68683142D01*
X85137523Y-68587904D01*
X85137523Y-68397428D01*
X85089904Y-68302190D01*
X85042285Y-68254571D01*
X84947047Y-68206952D01*
X139192095Y-75398380D02*
X139192095Y-76207904D01*
X139239714Y-76303142D01*
X139287333Y-76350761D01*
X139382571Y-76398380D01*
X139573047Y-76398380D01*
X139668285Y-76350761D01*
X139715904Y-76303142D01*
X139763523Y-76207904D01*
X139763523Y-75398380D01*
X140287333Y-76398380D02*
X140477809Y-76398380D01*
X140573047Y-76350761D01*
X140620666Y-76303142D01*
X140715904Y-76160285D01*
X140763523Y-75969809D01*
X140763523Y-75588857D01*
X140715904Y-75493619D01*
X140668285Y-75446000D01*
X140573047Y-75398380D01*
X140382571Y-75398380D01*
X140287333Y-75446000D01*
X140239714Y-75493619D01*
X140192095Y-75588857D01*
X140192095Y-75826952D01*
X140239714Y-75922190D01*
X140287333Y-75969809D01*
X140382571Y-76017428D01*
X140573047Y-76017428D01*
X140668285Y-75969809D01*
X140715904Y-75922190D01*
X140763523Y-75826952D01*
X71248333Y-59857142D02*
X71200714Y-59904761D01*
X71057857Y-59952380D01*
X70962619Y-59952380D01*
X70819761Y-59904761D01*
X70724523Y-59809523D01*
X70676904Y-59714285D01*
X70629285Y-59523809D01*
X70629285Y-59380952D01*
X70676904Y-59190476D01*
X70724523Y-59095238D01*
X70819761Y-59000000D01*
X70962619Y-58952380D01*
X71057857Y-58952380D01*
X71200714Y-59000000D01*
X71248333Y-59047619D01*
X72200714Y-59952380D02*
X71629285Y-59952380D01*
X71915000Y-59952380D02*
X71915000Y-58952380D01*
X71819761Y-59095238D01*
X71724523Y-59190476D01*
X71629285Y-59238095D01*
X81408333Y-59539142D02*
X81360714Y-59586761D01*
X81217857Y-59634380D01*
X81122619Y-59634380D01*
X80979761Y-59586761D01*
X80884523Y-59491523D01*
X80836904Y-59396285D01*
X80789285Y-59205809D01*
X80789285Y-59062952D01*
X80836904Y-58872476D01*
X80884523Y-58777238D01*
X80979761Y-58682000D01*
X81122619Y-58634380D01*
X81217857Y-58634380D01*
X81360714Y-58682000D01*
X81408333Y-58729619D01*
X81789285Y-58729619D02*
X81836904Y-58682000D01*
X81932142Y-58634380D01*
X82170238Y-58634380D01*
X82265476Y-58682000D01*
X82313095Y-58729619D01*
X82360714Y-58824857D01*
X82360714Y-58920095D01*
X82313095Y-59062952D01*
X81741666Y-59634380D01*
X82360714Y-59634380D01*
X55913333Y-52935142D02*
X55865714Y-52982761D01*
X55722857Y-53030380D01*
X55627619Y-53030380D01*
X55484761Y-52982761D01*
X55389523Y-52887523D01*
X55341904Y-52792285D01*
X55294285Y-52601809D01*
X55294285Y-52458952D01*
X55341904Y-52268476D01*
X55389523Y-52173238D01*
X55484761Y-52078000D01*
X55627619Y-52030380D01*
X55722857Y-52030380D01*
X55865714Y-52078000D01*
X55913333Y-52125619D01*
X56246666Y-52030380D02*
X56865714Y-52030380D01*
X56532380Y-52411333D01*
X56675238Y-52411333D01*
X56770476Y-52458952D01*
X56818095Y-52506571D01*
X56865714Y-52601809D01*
X56865714Y-52839904D01*
X56818095Y-52935142D01*
X56770476Y-52982761D01*
X56675238Y-53030380D01*
X56389523Y-53030380D01*
X56294285Y-52982761D01*
X56246666Y-52935142D01*
X66073333Y-60047142D02*
X66025714Y-60094761D01*
X65882857Y-60142380D01*
X65787619Y-60142380D01*
X65644761Y-60094761D01*
X65549523Y-59999523D01*
X65501904Y-59904285D01*
X65454285Y-59713809D01*
X65454285Y-59570952D01*
X65501904Y-59380476D01*
X65549523Y-59285238D01*
X65644761Y-59190000D01*
X65787619Y-59142380D01*
X65882857Y-59142380D01*
X66025714Y-59190000D01*
X66073333Y-59237619D01*
X66930476Y-59475714D02*
X66930476Y-60142380D01*
X66692380Y-59094761D02*
X66454285Y-59809047D01*
X67073333Y-59809047D01*
X76561904Y-57452380D02*
X76561904Y-58261904D01*
X76609523Y-58357142D01*
X76657142Y-58404761D01*
X76752380Y-58452380D01*
X76942857Y-58452380D01*
X77038095Y-58404761D01*
X77085714Y-58357142D01*
X77133333Y-58261904D01*
X77133333Y-57452380D01*
X78133333Y-58452380D02*
X77561904Y-58452380D01*
X77847619Y-58452380D02*
X77847619Y-57452380D01*
X77752380Y-57595238D01*
X77657142Y-57690476D01*
X77561904Y-57738095D01*
X79085714Y-58452380D02*
X78514285Y-58452380D01*
X78800000Y-58452380D02*
X78800000Y-57452380D01*
X78704761Y-57595238D01*
X78609523Y-57690476D01*
X78514285Y-57738095D01*
X59561904Y-57452380D02*
X59561904Y-58261904D01*
X59609523Y-58357142D01*
X59657142Y-58404761D01*
X59752380Y-58452380D01*
X59942857Y-58452380D01*
X60038095Y-58404761D01*
X60085714Y-58357142D01*
X60133333Y-58261904D01*
X60133333Y-57452380D01*
X61133333Y-58452380D02*
X60561904Y-58452380D01*
X60847619Y-58452380D02*
X60847619Y-57452380D01*
X60752380Y-57595238D01*
X60657142Y-57690476D01*
X60561904Y-57738095D01*
X61514285Y-57547619D02*
X61561904Y-57500000D01*
X61657142Y-57452380D01*
X61895238Y-57452380D01*
X61990476Y-57500000D01*
X62038095Y-57547619D01*
X62085714Y-57642857D01*
X62085714Y-57738095D01*
X62038095Y-57880952D01*
X61466666Y-58452380D01*
X62085714Y-58452380D01*
X106733333Y-53507142D02*
X106685714Y-53554761D01*
X106542857Y-53602380D01*
X106447619Y-53602380D01*
X106304761Y-53554761D01*
X106209523Y-53459523D01*
X106161904Y-53364285D01*
X106114285Y-53173809D01*
X106114285Y-53030952D01*
X106161904Y-52840476D01*
X106209523Y-52745238D01*
X106304761Y-52650000D01*
X106447619Y-52602380D01*
X106542857Y-52602380D01*
X106685714Y-52650000D01*
X106733333Y-52697619D01*
X107209523Y-53602380D02*
X107400000Y-53602380D01*
X107495238Y-53554761D01*
X107542857Y-53507142D01*
X107638095Y-53364285D01*
X107685714Y-53173809D01*
X107685714Y-52792857D01*
X107638095Y-52697619D01*
X107590476Y-52650000D01*
X107495238Y-52602380D01*
X107304761Y-52602380D01*
X107209523Y-52650000D01*
X107161904Y-52697619D01*
X107114285Y-52792857D01*
X107114285Y-53030952D01*
X107161904Y-53126190D01*
X107209523Y-53173809D01*
X107304761Y-53221428D01*
X107495238Y-53221428D01*
X107590476Y-53173809D01*
X107638095Y-53126190D01*
X107685714Y-53030952D01*
X56904761Y-67547619D02*
X56809523Y-67500000D01*
X56714285Y-67404761D01*
X56571428Y-67261904D01*
X56476190Y-67214285D01*
X56380952Y-67214285D01*
X56428571Y-67452380D02*
X56333333Y-67404761D01*
X56238095Y-67309523D01*
X56190476Y-67119047D01*
X56190476Y-66785714D01*
X56238095Y-66595238D01*
X56333333Y-66500000D01*
X56428571Y-66452380D01*
X56619047Y-66452380D01*
X56714285Y-66500000D01*
X56809523Y-66595238D01*
X56857142Y-66785714D01*
X56857142Y-67119047D01*
X56809523Y-67309523D01*
X56714285Y-67404761D01*
X56619047Y-67452380D01*
X56428571Y-67452380D01*
X57809523Y-67452380D02*
X57238095Y-67452380D01*
X57523809Y-67452380D02*
X57523809Y-66452380D01*
X57428571Y-66595238D01*
X57333333Y-66690476D01*
X57238095Y-66738095D01*
X110990476Y-59852380D02*
X111657142Y-60852380D01*
X111657142Y-59852380D02*
X110990476Y-60852380D01*
X112561904Y-60852380D02*
X111990476Y-60852380D01*
X112276190Y-60852380D02*
X112276190Y-59852380D01*
X112180952Y-59995238D01*
X112085714Y-60090476D01*
X111990476Y-60138095D01*
X79033333Y-64852380D02*
X78700000Y-64376190D01*
X78461904Y-64852380D02*
X78461904Y-63852380D01*
X78842857Y-63852380D01*
X78938095Y-63900000D01*
X78985714Y-63947619D01*
X79033333Y-64042857D01*
X79033333Y-64185714D01*
X78985714Y-64280952D01*
X78938095Y-64328571D01*
X78842857Y-64376190D01*
X78461904Y-64376190D01*
X79938095Y-63852380D02*
X79461904Y-63852380D01*
X79414285Y-64328571D01*
X79461904Y-64280952D01*
X79557142Y-64233333D01*
X79795238Y-64233333D01*
X79890476Y-64280952D01*
X79938095Y-64328571D01*
X79985714Y-64423809D01*
X79985714Y-64661904D01*
X79938095Y-64757142D01*
X79890476Y-64804761D01*
X79795238Y-64852380D01*
X79557142Y-64852380D01*
X79461904Y-64804761D01*
X79414285Y-64757142D01*
X87209333Y-54300380D02*
X86876000Y-53824190D01*
X86637904Y-54300380D02*
X86637904Y-53300380D01*
X87018857Y-53300380D01*
X87114095Y-53348000D01*
X87161714Y-53395619D01*
X87209333Y-53490857D01*
X87209333Y-53633714D01*
X87161714Y-53728952D01*
X87114095Y-53776571D01*
X87018857Y-53824190D01*
X86637904Y-53824190D01*
X88066476Y-53300380D02*
X87876000Y-53300380D01*
X87780761Y-53348000D01*
X87733142Y-53395619D01*
X87637904Y-53538476D01*
X87590285Y-53728952D01*
X87590285Y-54109904D01*
X87637904Y-54205142D01*
X87685523Y-54252761D01*
X87780761Y-54300380D01*
X87971238Y-54300380D01*
X88066476Y-54252761D01*
X88114095Y-54205142D01*
X88161714Y-54109904D01*
X88161714Y-53871809D01*
X88114095Y-53776571D01*
X88066476Y-53728952D01*
X87971238Y-53681333D01*
X87780761Y-53681333D01*
X87685523Y-53728952D01*
X87637904Y-53776571D01*
X87590285Y-53871809D01*
X52633333Y-53052380D02*
X52300000Y-52576190D01*
X52061904Y-53052380D02*
X52061904Y-52052380D01*
X52442857Y-52052380D01*
X52538095Y-52100000D01*
X52585714Y-52147619D01*
X52633333Y-52242857D01*
X52633333Y-52385714D01*
X52585714Y-52480952D01*
X52538095Y-52528571D01*
X52442857Y-52576190D01*
X52061904Y-52576190D01*
X53204761Y-52480952D02*
X53109523Y-52433333D01*
X53061904Y-52385714D01*
X53014285Y-52290476D01*
X53014285Y-52242857D01*
X53061904Y-52147619D01*
X53109523Y-52100000D01*
X53204761Y-52052380D01*
X53395238Y-52052380D01*
X53490476Y-52100000D01*
X53538095Y-52147619D01*
X53585714Y-52242857D01*
X53585714Y-52290476D01*
X53538095Y-52385714D01*
X53490476Y-52433333D01*
X53395238Y-52480952D01*
X53204761Y-52480952D01*
X53109523Y-52528571D01*
X53061904Y-52576190D01*
X53014285Y-52671428D01*
X53014285Y-52861904D01*
X53061904Y-52957142D01*
X53109523Y-53004761D01*
X53204761Y-53052380D01*
X53395238Y-53052380D01*
X53490476Y-53004761D01*
X53538095Y-52957142D01*
X53585714Y-52861904D01*
X53585714Y-52671428D01*
X53538095Y-52576190D01*
X53490476Y-52528571D01*
X53395238Y-52480952D01*
M02*
